<ttFont>
<head>
    <!-- Most of this table will be recalculated by the compiler -->
    <tableVersion value="1.0"/>
    <fontRevision value="2.004"/>
    <checkSumAdjustment value="0x886029d3"/>
    <magicNumber value="0x5f0f3cf5"/>
    <flags value="00000000 00000011"/>
    <unitsPerEm value="1000"/>
    <created value="Thu Oct  8 09:58:42 2009"/>
    <modified value="Thu Oct  8 09:58:42 2009"/>
    <xMin value="-448"/>
    <yMin value="-295"/>
    <xMax value="1436"/>
    <yMax value="1136"/>
    <macStyle value="00000000 00000010"/>
    <lowestRecPPEM value="3"/>
    <fontDirectionHint value="2"/>
    <indexToLocFormat value="0"/>
    <glyphDataFormat value="0"/>
  </head>
          <CharString index="0">
            720 6 callsubr
            -116 625 rlineto
            25 -5 -10 1 -18 hhcurveto
            -18 -11 0 -26 -13 hvcurveto
            -312 -602 -8 -15 -1 -3 -30 -3 rlinecurve
            -2 -20 -23 0 -15 hhcurveto
            -8 -47 107 3 117 -3 -75 callsubr
            -8 -70 0 12 2 hvcurveto
            6 12 57 111 rlineto
            219 hlineto
            25 -135 rlineto
            -83 164 callsubr
            40 hhcurveto
            39 75 77 callgsubr
            -256 229 rmoveto
            -186 hlineto
            137 264 rlineto
            return
          </CharString>
          <CharString index="1">
            38 6 -26 32 -39 hhcurveto
            -42 -34 -34 -36 -6 hvcurveto
            -38 -7 26 -32 39 hhcurveto
            42 35 34 36 6 hvcurveto
            return
          </CharString>
          <CharString index="2">
            508 219 rmoveto
            141 23 -72 93 -134 hhcurveto
            -129 -107 -89 -145 -24 hvcurveto
            -144 -24 80 -81 127 hhcurveto
            132 104 85 140 24 hvcurveto
            -127 10 rmoveto
            -8 -47 -8 -52 -16 -34 rrcurveto
            -39 -16 -41 -23 -36 hhcurveto
            -37 -35 22 44 -3 hvcurveto
            -3 33 10 61 6 35 8 47 8 48 14 32 rrcurveto
            38 17 41 23 37 hhcurveto
            43 28 -29 -32 3 hvcurveto
            4 -33 -8 -48 -8 -46 rrcurveto
            return
          </CharString>
          <CharString index="3">
            rmoveto
            -102 callgsubr
            endchar
          </CharString>
          <CharString index="4">
            -91 callsubr
            6 -2 -4 3 hvcurveto
            -4 -2 -10 -2 12 callgsubr
            -23 -22 -15 -27 -5 -29 -3 -16 rcurveline
            -8 -1 5 -6 8 hhcurveto
            8 7 6 8 1 hvcurveto
            3 17 4 22 22 15 43 18 rlinecurve
            19 8 15 16 4 20 rrcurveto
            endchar
          </CharString>
          <CharString index="5">
            -100 callsubr
            33 28 rlineto
            -44 50 69 -7 39 hhcurveto
            130 83 96 118 20 hvcurveto
            return
          </CharString>
          <CharString index="6">
            97 callsubr
            -17 10 rrcurveto
            12 -19 -23 2 -29 hhcurveto
            -46 -48 -21 -42 -7 hvcurveto
            -25 -4 16 -16 21 hhcurveto
            22 22 16 25 4 hvcurveto
            2 14 -4 12 -8 96 callsubr
            -4 -1 -10 -3 12 callgsubr
            -22 -22 -16 -27 -5 -29 -2 -16 rcurveline
            -8 -2 5 -6 8 hhcurveto
            8 7 6 8 2 hvcurveto
            3 17 3 22 23 -34 callsubr
          </CharString>
          <CharString index="7">
            10 60 -11 46 -20 34 -32 57 -38 9 -81 21 -27 7 -33 8 -10 4 -32 13 -23 38 9 49 rrcurveto
            48 8 33 57 75 hhcurveto
            147 -3 -141 -38 -2 hvcurveto
            -15 1 4 -2 16 hhcurveto
            24 1 5 23 4 hvcurveto
            31 183 rlineto
            19 3 1 9 -18 hhcurveto
            -9 -1 -1 -22 -27 hvcurveto
            -31 -27 rlineto
            33 -34 -43 17 -58 hhcurveto
            -125 -84 -88 -112 -19 hvcurveto
            -10 -59 14 -44 21 -33 32 -48 35 -8 84 -22 22 -5 38 -10 5 -2 46 -22 8 -50 -6 -41 rrcurveto
            -49 -9 -31 -68 -81 hhcurveto
            -71 -115 29 140 16 hvcurveto
            18 2 1 5 -22 hhcurveto
            -24 -1 -6 -23 -4 hvcurveto
            -30 -182 rlineto
            -19 -3 -2 -9 18 hhcurveto
            9 1 1 22 27 hvcurveto
            return
          </CharString>
          <CharString index="8">
            rmoveto
            38 13 -22 35 -39 hhcurveto
            -18 -14 -9 -13 -15 hvcurveto
            -124 -116 20 -38 152 60 14 6 23 10 10 27 rlinecurve
            endchar
          </CharString>
          <CharString index="9">
            -47 -39 -38 -40 -6 -94 callgsubr
            return
          </CharString>
          <CharString index="10">
            383 139 rmoveto
            10 59 -26 31 -12 13 -27 33 -35 7 -40 8 -45 10 -52 10 8 49 rrcurveto
            61 10 70 1 19 hhcurveto
            88 -5 -64 -21 -2 hvcurveto
            -15 -1 1 -4 20 hhcurveto
            24 1 5 23 4 hvcurveto
            13 80 rlineto
            19 3 2 9 -18 hhcurveto
            -8 -22 -11 -7 -14 hvcurveto
            10 -16 -26 8 -38 hhcurveto
            -72 -93 -25 -106 -17 hvcurveto
            -8 -49 22 -26 10 -12 27 -32 37 -8 44 -9 39 -8 59 -12 -11 -62 rrcurveto
            -59 -9 -48 -15 -45 hhcurveto
            -72 -21 47 66 -6 hvcurveto
            14 -2 0 3 -19 hhcurveto
            -24 -1 -6 -23 -4 hvcurveto
            -18 -109 rlineto
            -19 -3 -2 -9 18 hhcurveto
            7 2 0 12 20 hvcurveto
            6 4 15 9 6 3 return
          </CharString>
          <CharString index="11">
            571 397 92 callsubr
            -2 -25 -29 -1 -25 hhcurveto
            -32 -46 2 1 -13 80 callgsubr
            0 52 0 -2 -12 vhcurveto
            -7 -13 -122 -222 -55 247 rlineto
            56 hlineto
            8 47 -123 -3 -112 3 190 callsubr
            hlineto
            88 -397 -12 -22 -35 -65 -15 -21 rlinecurve
            -48 -36 -37 -8 -17 hhcurveto
            -10 -2 1 1 -4 hvcurveto
            16 6 24 15 6 34 rrcurveto
            33 6 -20 24 -34 hhcurveto
            -28 -33 -19 -39 197 callsubr
            31 -45 55 hhcurveto
            76 61 69 47 26 hvcurveto
            253 457 rlineto
            17 10 3 7 63 hhcurveto
            return
          </CharString>
          <CharString index="12">
            rmoveto
            -151 141 -199 -141 10 -24 170 58 150 -58 rlineto
            return
          </CharString>
          <CharString index="13">
            hmoveto
            -106 callsubr
            return
          </CharString>
          <CharString index="14">
            749 339 rmoveto
            15 95 -8 95 -50 70 -4 5 -4 4 -3 5 49 18 38 51 9 56 rrcurveto
            42 7 -20 39 -39 hhcurveto
            -45 -28 -33 -33 -5 hvcurveto
            -34 -6 16 -33 45 hhcurveto
            5 hlineto
            -15 -19 -21 -15 -24 -8 rrcurveto
            hintmask 10100000
            36 -46 -60 17 -65 hhcurveto
            -88 -91 -32 -66 -69 hvcurveto
            -75 -70 -40 -95 -15 -95 -16 -93 10 -93 50 -69 rrcurveto
            -64 48 81 -31 87 hhcurveto
            87 91 31 64 70 hvcurveto
            74 69 39 93 16 93 rrcurveto
            -149 18 rmoveto
            -14 -82 -15 -84 -50 -73 rrcurveto
            -50 -34 -53 -37 -55 hhcurveto
            -55 -41 37 50 -17 hvcurveto
            -25 73 13 84 14 82 12 75 15 78 47 66 rrcurveto
            48 35 53 33 54 hhcurveto
            54 41 -33 -48 18 hvcurveto
            26 -66 -11 -78 -12 -75 rrcurveto
            return
          </CharString>
          <CharString index="15">
            34 -34 -50 16 -53 hhcurveto
            -60 -64 -21 -43 -48 hvcurveto
            -51 -46 -27 -62 -11 -63 -10 -60 8 -60 35 -43 rrcurveto
            -42 35 56 -19 60 hhcurveto
            60 62 19 42 49 hvcurveto
            49 43 28 60 10 60 9 54 -4 54 -23 43 52 15 41 54 10 58 rrcurveto
            -210 -265 rmoveto
            -9 -50 -11 -68 -18 -29 rrcurveto
            -30 -20 -34 -19 -34 hhcurveto
            -34 -28 19 30 -10 hvcurveto
            -9 29 11 68 9 50 7 47 11 63 19 28 rrcurveto
            30 20 34 18 34 hhcurveto
            33 29 -18 -30 10 hvcurveto
            8 -28 -11 -63 -7 -47 rrcurveto
            return
          </CharString>
          <CharString index="16">
            rmoveto
            3 21 -9 18 -16 10 rrcurveto
            12 -19 -24 2 -29 hhcurveto
            -46 -47 -21 -42 -7 hvcurveto
            -25 -4 16 -16 21 hhcurveto
            22 22 16 25 4 hvcurveto
            2 14 -4 12 -9 7 rrcurveto
            2 8 9 1 9 hhcurveto
            10 return
          </CharString>
          <CharString index="17">
            766 397 92 callsubr
            -2 -24 -29 -1 -24 hhcurveto
            -96 166 callsubr
            18 21 0 -10 21 hvcurveto
            -7 -15 -123 -237 -49 262 rlineto
            59 hlineto
            8 47 -112 -3 rlineto
            -30 -30 1 2 -30 80 callgsubr
            46 hlineto
            13 -70 rlineto
            0 -5 -10 -1 -2 vhcurveto
            -80 -155 -44 237 rlineto
            42 hlineto
            8 47 -109 -3 -106 166 callsubr
            58 hlineto
            69 -374 rlineto
            -17 3 2 -10 24 hhcurveto
            25 6 10 15 8 hvcurveto
            121 235 43 -234 rlineto
            -24 4 10 -2 16 hhcurveto
            16 11 3 23 12 hvcurveto
            181 352 rlineto
            16 9 3 7 58 hhcurveto
            return
          </CharString>
          <CharString index="18">
            hintmask 01000100
            846 22 callsubr
            -102 -3 -119 48 callsubr
            22 23 0 -10 22 hvcurveto
            -209 -283 -118 293 rlineto
            75 27 callsubr
            -90 0 -41 hhcurveto
            -39 -75 59 callsubr
            85 hlineto
            147 -365 rlineto
            hintmask 10001000
            -38 -227 9 callgsubr
            88 17 callsubr
            -95 hlineto
            hintmask 01000100
            38 227 254 344 rlineto
            14 10 6 7 85 hhcurveto
            return
          </CharString>
          <CharString index="19">
            -8 -8 -88 callgsubr
            return
          </CharString>
          <CharString index="20">
            -97 callgsubr
            endchar
          </CharString>
          <CharString index="21">
            435 117 rmoveto
            14 2 -14 0 -10 hhcurveto
            -15 -4 -1 -12 -6 hvcurveto
            -20 -11 -32 -64 -74 hhcurveto
            -36 -28 22 39 -11 hvcurveto
            -12 39 7 45 8 48 rrcurveto
            62 10 21 124 93 hhcurveto
            18 11 -2 -3 15 hvcurveto
            -10 -8 -14 -16 -4 -23 rrcurveto
            -44 -7 32 -19 27 hhcurveto
            31 35 21 42 7 hvcurveto
            66 11 -69 26 -79 hhcurveto
            -132 -102 -91 -140 -23 hvcurveto
            return
          </CharString>
          <CharString index="22">
            111 18 85 47 50 hhcurveto
            16 19 -5 -88 -14 hvcurveto
            -46 -274 rlineto
            -65 hlineto
            -8 -47 124 3 return
          </CharString>
          <CharString index="23">
            -95 callsubr
            87 310 -91 callsubr
            7 -2 -4 2 hvcurveto
            -4 -1 -10 -3 12 callgsubr
            -22 -22 -16 -27 -5 -29 -2 -16 rcurveline
            -8 -2 5 -6 8 hhcurveto
            8 7 6 8 2 hvcurveto
            2 17 4 22 23 -34 callsubr
          </CharString>
          <CharString index="24">
            -94 -80 callsubr
            3 36 90 92 callgsubr
            90 0 -3 34 hvcurveto
            return
          </CharString>
          <CharString index="25">
            729 434 rmoveto
            20 241 rlineto
            -579 hlineto
            -62 -241 rlineto
            47 hlineto
            110 28 21 84 128 hhcurveto
            49 hlineto
            -97 -581 rlineto
            -134 -80 callsubr
            3 49 104 0 53 hhcurveto
            53 104 0 -3 47 145 callgsubr
            return
          </CharString>
          <CharString index="26">
            -73 callsubr
            hintmask 0000000100000000
            -31 -17 3 14 -9 hvcurveto
            hintmask 0001000010010000
            34 callgsubr
            hintmask 0001000100000000
            -8 -48 rlineto
            hintmask 0000000001000000
            20 26 0 -4 11 hvcurveto
            hintmask 0000000000100000
            8 -4 2 -10 -2 -9 rrcurveto
            hintmask 0010000010000000
            62 callgsubr
            hintmask 1000000000100000
            -17 callsubr
            hintmask 0010000000001000
            20 callsubr
            hintmask 0000101000000000
            return
          </CharString>
          <CharString index="27">
            hlineto
            -61 callsubr
            return
          </CharString>
          <CharString index="28">
            153 callgsubr
            509 53 hintmask 0000100000000000
            855 18 callgsubr
            hintmask 0001000000000000
            -120 -3 rlineto
            hintmask 0110100110000000
            -64 callsubr
            hintmask 0110000100000000
            -21 -21 2 1 -7 hvcurveto
            -24 3 0 1 4 22 85 513 rcurveline
            323 -576 rlineto
            hintmask 1001000010000000
            -13 7 5 0 13 hhcurveto
            27 2 9 23 3 hvcurveto
            97 578 3 22 1 1 24 3 rlinecurve
            hintmask 0000100000000000
            3 23 21 0 7 hhcurveto
            return
          </CharString>
          <CharString index="29">
            153 -98 153 cntrmask 11100000
            hintmask 11100001
            772 94 rmoveto
            23 4 -14 0 -10 hhcurveto
            -18 -6 -7 -16 -3 hvcurveto
            -44 -12 -24 -25 -28 hhcurveto
            -47 3 57 63 2 hvcurveto
            1 23 2 48 3 vvcurveto
            -1 61 -33 36 -49 23 rrcurveto
            hintmask 11101010
            101 25 66 65 11 71 rrcurveto
            103 18 -84 83 -170 hhcurveto
            -333 -31 callsubr
            hintmask 11110001
            -99 -592 9 callgsubr
            87 35 callsubr
            46 278 rlineto
            86 hlineto
            20 30 0 -38 18 hvcurveto
            15 -32 -4 -24 -11 -62 -10 -63 -1 -4 3 -22 rrcurveto
            -81 16 109 -10 59 hhcurveto
            98 24 94 11 2 hvcurveto
            -208 406 rmoveto
            -69 -11 -12 -70 -137 hhcurveto
            -80 hlineto
            hintmask 11101010
            47 278 rlineto
            82 hlineto
            135 -12 -68 -71 -12 hvcurveto
            return
          </CharString>
          <CharString index="30">
            -184 -88 callsubr
            return
          </CharString>
          <CharString index="31">
            -173 -83 callgsubr
            125 -3 8 47 rlineto
            117 callsubr
            return
          </CharString>
          <CharString index="32">
            8 47 rlineto
            return
          </CharString>
          <CharString index="33">
            196 callsubr
            -99 30 callgsubr
            93 0 41 hhcurveto
            41 93 77 callgsubr
            return
          </CharString>
          <CharString index="34">
            704 494 rmoveto
            44 8 -20 40 -40 hhcurveto
            -45 -27 -34 -33 -6 hvcurveto
            -33 -5 16 -34 45 hhcurveto
            1 hlineto
            -20 -19 -29 -14 -32 -7 8 46 rcurveline
            197 callgsubr
            -48 rlineto
            20 26 0 -4 11 hvcurveto
            7 -4 2 -10 -2 -9 -35 -211 rcurveline
            -69 -11 -50 -56 -55 hhcurveto
            return
          </CharString>
          <CharString index="35">
            48 -46 -55 14 -52 hhcurveto
            -200 -173 -130 -224 -38 hvcurveto
            -226 -37 133 -128 197 hhcurveto
            87 52 42 21 19 hvcurveto
            -25 25 56 -27 7 hhcurveto
            14 2 13 15 3 hvcurveto
            return
          </CharString>
          <CharString index="36">
            3 15 hhcurveto
            20 22 -7 -10 28 hvcurveto
            return
          </CharString>
          <CharString index="37">
            435 202 rmoveto
            -47 hlineto
            -96 -24 -20 -66 -123 hhcurveto
            -55 hlineto
            292 362 10 12 1 3 1 6 rlinecurve
            21 3 -14 0 -18 hhcurveto
            -313 hlineto
            -41 -175 rlineto
            47 hlineto
            91 21 21 48 108 hhcurveto
            53 hlineto
            -294 -364 -9 -11 -1 -2 -1 -9 rlinecurve
            -22 -4 13 0 19 hhcurveto
            323 hlineto
            return
          </CharString>
          <CharString index="38">
            145 callsubr
            hintmask 10000000
            -28 -26 -27 -16 callgsubr
            hintmask 01000000
            33 callsubr
            hintmask 10000000
            -35 callsubr
            hintmask 01000000
            28 26 27 -71 callsubr
            hintmask 10000000
            -38 callsubr
            hintmask 01000000
            5 callgsubr
          </CharString>
          <CharString index="39">
            778 340 rmoveto
            19 115 -20 117 -87 68 62 85 rcurveline
            -31 20 -62 -84 rlineto
            28 -55 -53 8 -46 hhcurveto
            -197 -159 -137 -220 -36 hvcurveto
            -29 -172 68 -89 50 -34 -63 -84 rcurveline
            31 -20 62 84 rlineto
            -26 48 55 -10 52 hhcurveto
            186 167 123 228 38 hvcurveto
            -160 267 rmoveto
            -366 -493 -24 63 14 86 13 77 rlinecurve
            11 70 15 86 39 62 rrcurveto
            86 56 78 17 44 hhcurveto
            72 38 -40 -14 10 hvcurveto
            18 -267 rmoveto
            -13 -77 -15 -87 -45 -63 rrcurveto
            -69 -52 -73 -19 -45 hhcurveto
            -49 -42 18 35 -30 hvcurveto
            366 493 26 -64 -16 -92 -12 -75 rlinecurve
            return
          </CharString>
          <CharString index="40">
            741 -45 callsubr
            -23 hlineto
            -49 -2 5 14 -7 hvcurveto
            -168 357 218 185 rlineto
            27 33 4 4 79 hhcurveto
            -20 callsubr
            -2 -30 -32 -1 -30 hhcurveto
            -38 -55 0 3 -37 55 callsubr
            17 22 0 -10 23 hvcurveto
            -4 -4 0 -2 -7 -5 -338 -286 rcurveline
            52 307 -85 callgsubr
            return
          </CharString>
          <CharString index="41">
            rmoveto
            -62 132 rlineto
            17 -8 -12 13 -23 hhcurveto
            -32 -35 -30 -32 -6 hvcurveto
            -4 -28 18 -13 10 -8 115 -84 rcurveline
            endchar
          </CharString>
          <CharString index="42">
            rmoveto
            -10 24 -170 -58 -150 58 -20 -24 151 -141 rlineto
            endchar
          </CharString>
          <CharString index="43">
            -86 callgsubr
            hintmask 1000000000000000
            -5 callgsubr
            hintmask 0100000000000000
            140 callgsubr
            hintmask 1000000000000000
            29 callgsubr
            return
          </CharString>
          <CharString index="44">
            rlineto
            -94 -80 callsubr
            return
          </CharString>
          <CharString index="45">
            rmoveto
            -146 185 -208 -185 14 -22 175 99 141 -99 rlineto
            return
          </CharString>
          <CharString index="46">
            -8 -47 rlineto
            return
          </CharString>
          <CharString index="47">
            rmoveto
            9 52 rlineto
            -361 hlineto
            -9 -52 rlineto
            endchar
          </CharString>
          <CharString index="48">
            10 55 rlineto
            -47 hlineto
            -9 -54 rlineto
            -54 -9 -22 -35 -29 hhcurveto
            -45 11 65 19 3 hvcurveto
            46 279 rlineto
            121 134 callgsubr
            -121 hlineto
            return
          </CharString>
          <CharString index="49">
            560 -6 36 -30 47 350 47 -36 36 220 36 hstemhm
            93 100 -15 108 -51 100 -41 108 -100 100 -77 118 0 118 -82 118 hintmask 0001101000001000
            561 180 rmoveto
            19 113 -43 93 -88 36 75 25 61 46 12 69 rrcurveto
            67 11 -47 71 -152 hhcurveto
            -121 -94 -48 -96 -16 hvcurveto
            -19 -112 rlineto
            -69 hlineto
            hintmask 0110010000000000
            -61 callsubr
            69 hlineto
            -58 -350 13 callsubr
            113 3 rlineto
            28 9 -1 -2 27 hvcurveto
            hintmask 0001101001001000
            93 559 rlineto
            27 5 13 78 98 hhcurveto
            94 -13 -76 -25 -4 hvcurveto
            -9 -56 -28 -57 -97 -6 -13 -1 -9 0 -3 -17 rrcurveto
            hintmask 1001000100010000
            -3 -17 9 0 9 -1 144 -11 -28 -169 -8 -49 rrcurveto
            -34 -6 -19 -115 -90 hhcurveto
            hintmask 0000000001000000
            -9 -10 2 5 -7 hvcurveto
            26 12 7 27 1 5 rrcurveto
            hintmask 0000000010000000
            30 5 -21 20 -26 hhcurveto
            hintmask 0000000100000000
            -17 -35 -11 -40 -7 hvcurveto
            hintmask 1000000000100000
            -41 -6 28 -45 68 hhcurveto
            hintmask 0000000000010000
            108 107 62 124 21 hvcurveto
            endchar
          </CharString>
          <CharString index="50">
            -9 callgsubr
            239 hmoveto
            -78 callgsubr
            endchar
          </CharString>
          <CharString index="51">
            29 rmoveto
            -64 callgsubr
            -19 -82 -51 -60 -45 -62 callgsubr
            239 hmoveto
            -64 callgsubr
            -19 -82 -51 -60 -45 28 callsubr
          </CharString>
          <CharString index="52">
            107 callsubr
            hintmask 00010000
            -38 callgsubr
            -29 hvcurveto
            hintmask 00001000
            6 -19 -22 8 -21 hhcurveto
            hintmask 00010000
            -41 callsubr
            hintmask 00001000
            28 27 26 64 callsubr
            26 27 4 3 hvcurveto
            endchar
          </CharString>
          <CharString index="53">
            -95 callsubr
            endchar
          </CharString>
          <CharString index="54">
            97 callsubr
            -16 10 rrcurveto
            12 -19 -24 2 -29 hhcurveto
            -46 -48 -21 -42 -7 hvcurveto
            -25 -4 17 -16 21 hhcurveto
            22 21 16 25 4 hvcurveto
            3 14 -4 12 -9 96 callsubr
            1 -4 -2 -10 -3 -16 -1 -11 -3 -7 -4 -4 -23 -22 -15 -27 -5 -29 -3 -16 rcurveline
            -8 -1 5 -6 8 hhcurveto
            8 7 6 8 1 hvcurveto
            3 17 4 22 22 -34 callsubr
          </CharString>
          <CharString index="55">
            778 -6 36 -36 40 27 33 124 108 callgsubr
            hstemhm
            hintmask 01111000
            769 117 rmoveto
            18 3 -19 0 -5 hhcurveto
            -18 -4 -7 -12 -6 hvcurveto
            -61 -31 -53 -21 -38 hhcurveto
            -117 22 138 46 6 hvcurveto
            244 hlineto
            25 8 1 28 4 hvcurveto
            115 19 -36 91 -125 hhcurveto
            -64 -61 -25 -40 -43 hvcurveto
            8 -6 -43 57 -104 hhcurveto
            -128 -110 -85 -144 -24 hvcurveto
            -142 -23 77 -88 131 hhcurveto
            55 64 16 51 58 hvcurveto
            -58 49 68 -9 40 hhcurveto
            119 62 100 23 4 hvcurveto
            -73 134 rmoveto
            -181 hlineto
            7 35 7 39 22 35 rrcurveto
            38 24 38 19 29 hhcurveto
            77 -17 -124 -42 -6 hvcurveto
            -299 -22 rmoveto
            -7 -42 -9 -55 -24 -39 rrcurveto
            hintmask 10101000
            -51 -32 -42 -12 -27 hhcurveto
            -35 -33 22 42 -10 hvcurveto
            -9 34 4 37 10 64 8 48 8 47 24 38 rrcurveto
            29 20 37 26 41 hhcurveto
            37 31 -21 -34 11 hvcurveto
            13 -38 -8 -48 -8 -47 rrcurveto
            endchar
          </CharString>
          <CharString index="56">
            786 6 callgsubr
            22 47 193 47 374 47 58 callgsubr
            hintmask 0001000001000000
            773 229 92 callsubr
            -3 -37 -72 0 -40 hhcurveto
            -48 -95 0 3 -44 80 callgsubr
            125 hlineto
            hintmask 0010010010000000
            -17 -101 rlineto
            -79 -13 -68 -13 -29 hhcurveto
            -48 -80 17 75 -36 hvcurveto
            -28 63 12 84 11 68 9 54 17 98 50 62 rrcurveto
            hintmask 0000100100000000
            82 67 83 11 43 hhcurveto
            hintmask 0000100010000000
            78 77 -59 -149 -3 hvcurveto
            -16 -1 7 0 17 hhcurveto
            26 1 2 26 5 hvcurveto
            36 215 rlineto
            19 3 1 9 -18 hhcurveto
            -9 -2 -2 -7 -9 hvcurveto
            hintmask 0000000100000000
            -67 -53 rlineto
            hintmask 0010111000000000
            -72 callsubr
            return
          </CharString>
          <CharString index="57">
            rmoveto
            -14 22 -175 -99 -141 99 -24 -22 146 -185 rlineto
            endchar
          </CharString>
          <CharString index="58">
            -3 -15 hhcurveto
            -20 -22 7 10 return
          </CharString>
          <CharString index="59">
            7 0 -39 -7 hvcurveto
            -51 -309 13 callsubr
            return
          </CharString>
          <CharString index="60">
            75 12 34 113 89 hhcurveto
            0 -22 -17 -5 -29 vhcurveto
            -41 -6 28 -20 29 hhcurveto
            29 36 21 40 6 hvcurveto
            return
          </CharString>
          <CharString index="61">
            185 callgsubr
            -44 47 539 47 0 47 -44 47 153 callgsubr
            509 53 hintmask 0000001000000000
            855 18 callgsubr
            hintmask 0000010000000000
            -120 -3 rlineto
            hintmask 0001101110000000
            -86 callgsubr
            hintmask 0010000000000000
            -5 callgsubr
            hintmask 0001000000000000
            140 callgsubr
            hintmask 0010000000000000
            29 callgsubr
            hintmask 0001100100000000
            -21 -21 2 1 -7 hvcurveto
            -24 3 0 1 4 22 85 513 rcurveline
            323 -576 rlineto
            hintmask 0010010010000000
            -13 7 5 0 13 hhcurveto
            27 2 9 23 3 hvcurveto
            97 578 3 22 1 1 24 3 rlinecurve
            return
          </CharString>
          <CharString index="62">
            hmoveto
            -75 callsubr
            return
          </CharString>
          <CharString index="63">
            -99 -592 -63 callsubr
            return
          </CharString>
          <CharString index="64">
            722 0 103 558 36 hstem
            132 153 303 153 vstem
            710 200 rmoveto
            -47 hlineto
            -6 -19 -14 -39 -9 -16 rrcurveto
            -13 -6 -5 -10 -53 hhcurveto
            -52 hlineto
            21 37 13 18 66 80 63 76 47 66 13 77 rrcurveto
            123 21 -76 117 -209 hhcurveto
            -216 -109 -122 -118 -20 hvcurveto
            -14 -87 36 -72 35 -73 37 -76 5 -20 6 -26 rrcurveto
            -52 hlineto
            -54 -1 10 16 -2 hvcurveto
            -3 22 0 39 -1 10 rrcurveto
            -47 hlineto
            4 -200 rlineto
            160 hlineto
            25 7 1 28 5 hvcurveto
            11 66 -5 92 -2 41 -5 80 -4 76 12 74 8 48 14 52 33 40 rrcurveto
            49 39 53 14 38 hhcurveto
            152 -27 -163 -40 -7 hvcurveto
            -11 -67 -24 -67 -37 -94 -15 -39 -37 -95 -11 -67 rrcurveto
            -28 -5 6 -1 26 hhcurveto
            160 hlineto
            endchar
          </CharString>
          <CharString index="65">
            711 0 47 245 47 0 36 264 47 hstemhm
            136 131 -32 131 -99 142 129 147 -114 142 hintmask 0001010010000000
            685 186 rmoveto
            14 84 -45 74 -115 15 99 19 62 62 13 74 rrcurveto
            89 15 -57 83 -145 hhcurveto
            -378 -31 callsubr
            hintmask 1010100100000000
            -44 callsubr
            404 hlineto
            147 84 89 97 16 hvcurveto
            -114 328 rmoveto
            -74 -13 -38 -65 -81 hhcurveto
            -117 hlineto
            hintmask 0001010010000000
            44 264 rlineto
            140 hlineto
            18 68 0 -125 -21 hvcurveto
            -33 -326 rmoveto
            -7 -43 -14 -31 -17 -22 rrcurveto
            hintmask 1010001000000000
            -45 -34 -40 0 -17 hhcurveto
            -142 hlineto
            49 292 rlineto
            152 hlineto
            hintmask 0100000100000000
            20 32 0 -47 15 hvcurveto
            14 -40 -9 -55 -2 -9 rrcurveto
            endchar
          </CharString>
          <CharString index="66">
            120 callsubr
            -3 36 callgsubr
            return
          </CharString>
          <CharString index="67">
            8 rmoveto
            125 21 -68 82 -119 hhcurveto
            -19 -42 -1 -30 -49 hvcurveto
            21 126 rlineto
            -4 15 6 -1 30 hhcurveto
            136 98 112 26 4 hvcurveto
            7 1 0 11 -12 hhcurveto
            -3 -2 0 -5 -9 hvcurveto
            -19 -49 -47 -8 -41 hhcurveto
            -61 -42 16 12 -26 hvcurveto
            2 -5 -3 2 -3 hhcurveto
            -15 -2 -13 -16 -3 hvcurveto
            -48 -288 rlineto
            hintmask 1101000010000000
            -20 -3 -2 -13 23 hhcurveto
            11 4 3 7 6 hvcurveto
            16 14 38 42 69 hhcurveto
            63 -12 -73 -92 -16 hvcurveto
            -8 -47 -7 -44 -16 -30 rrcurveto
            -39 -19 -39 -16 -31 hhcurveto
            -35 -39 19 43 -17 hvcurveto
            hintmask 0100001000000000
            48 2 27 30 5 35 rrcurveto
            53 9 -40 15 -24 hhcurveto
            hintmask 1010000100000000
            -15 -54 -9 -61 -10 hvcurveto
            -79 -13 46 -91 109 hhcurveto
            130 112 79 134 22 hvcurveto
            endchar
          </CharString>
          <CharString index="68">
            461 368 rmoveto
            56 10 -55 26 -48 hhcurveto
            -46 -46 -24 -67 -33 hvcurveto
            -1 hlineto
            15 91 rlineto
            return
          </CharString>
          <CharString index="69">
            -6 19 23 -8 21 hhcurveto
            return
          </CharString>
          <CharString index="70">
            -20 hstemhm
            hintmask 01001000
            720 6 callsubr
            -116 625 rlineto
            25 -5 -10 1 -18 hhcurveto
            -18 -11 0 -26 -13 hvcurveto
            -312 -602 rlineto
            hintmask 00100000
            -8 -15 -1 -3 -30 -3 rrcurveto
            hintmask 01010000
            -2 -20 -23 0 -15 hhcurveto
            -8 -47 107 3 117 -3 -75 callsubr
            -8 -70 0 12 2 hvcurveto
            6 12 57 111 rlineto
            219 hlineto
            25 -135 rlineto
            -83 -80 callsubr
            hintmask 10100000
            3 32 63 -1 44 hhcurveto
            -39 -24 -45 -48 -7 -44 -56 callgsubr
            -68 -1 97 44 101 hvcurveto
            hintmask 01010000
            35 38 -1 -2 23 hvcurveto
            -256 229 rmoveto
            -186 hlineto
            137 264 rlineto
            return
          </CharString>
          <CharString index="71">
            -98 -586 -63 callsubr
            return
          </CharString>
          <CharString index="72">
            -39 -25 -27 -4 -4 hvcurveto
            -50 -53 25 -22 rlineto
            return
          </CharString>
          <CharString index="73">
            15 43 18 rlinecurve
            18 8 16 16 3 20 rrcurveto
            endchar
          </CharString>
          <CharString index="74">
            27 -33 hhcurveto
            -44 -15 -43 -11 -4 hvcurveto
            -42 -120 return
          </CharString>
          <CharString index="75">
            750 339 rmoveto
            237 39 -125 121 -173 hhcurveto
            -180 -160 -127 -231 -38 hvcurveto
            -37 -218 109 -118 158 -13 -35 -29 -32 -42 -5 -33 -56 callgsubr
            -48 -15 46 42 29 hvcurveto
            10 17 15 14 15 10 165 19 136 123 35 206 rrcurveto
            -151 14 rmoveto
            -13 -79 -13 -68 -41 -72 rrcurveto
            -63 -36 -60 -40 -56 hhcurveto
            -60 -41 41 58 -16 hvcurveto
            -20 70 13 79 12 74 11 64 12 75 39 65 rrcurveto
            74 45 62 26 47 hhcurveto
            57 48 -36 -68 16 hvcurveto
            16 -63 -10 -64 -12 -73 rrcurveto
            return
          </CharString>
          <CharString index="76">
            hlineto
            -70 callgsubr
            return
          </CharString>
          <CharString index="77">
            136 rmoveto
            66 11 43 259 -206 hhcurveto
            -79 -44 -27 -32 -37 hvcurveto
            -52 -44 -22 -46 -11 -66 rrcurveto
            -144 -24 81 -69 102 hhcurveto
            16 44 1 48 33 hvcurveto
            -6 -26 -4 -26 -6 -26 -14 -60 -11 -26 -19 -27 rrcurveto
            -18 -14 -34 -35 -48 hhcurveto
            -9 -34 1 21 -19 hvcurveto
            29 5 27 22 6 35 rrcurveto
            hintmask 01111000
            34 6 -19 28 -39 hhcurveto
            -36 -31 -23 -42 -7 hvcurveto
            -65 -10 35 -59 96 hhcurveto
            88 170 58 283 48 hvcurveto
            -117 116 rmoveto
            -93 -15 -25 -90 -68 hhcurveto
            -39 -15 29 28 1 hvcurveto
            1 26 13 73 2 16 8 48 9 52 10 27 rrcurveto
            21 8 24 33 46 hhcurveto
            36 12 -34 -25 4 hvcurveto
            -3 3 -17 -15 -91 vhcurveto
            endchar
          </CharString>
          <CharString index="78">
            756 0 30 callsubr
            -20 return
          </CharString>
          <CharString index="79">
            330 rmoveto
            66 11 43 259 -206 hhcurveto
            -79 -43 -27 -32 -38 hvcurveto
            -52 -44 -22 -46 -11 -66 rrcurveto
            -144 -24 81 -69 102 hhcurveto
            16 44 1 48 33 hvcurveto
            -5 -26 -5 -26 -6 -26 -14 -60 -10 -26 -20 -27 rrcurveto
            -18 -14 -34 -35 -48 hhcurveto
            -9 -33 1 21 -20 hvcurveto
            30 5 27 22 5 35 rrcurveto
            34 6 -18 28 -39 hhcurveto
            -36 -31 -23 -42 -7 hvcurveto
            -65 -11 35 -59 96 hhcurveto
            88 171 58 283 47 hvcurveto
            -117 116 rmoveto
            -93 -15 -25 -90 -68 hhcurveto
            -39 -14 29 28 hvcurveto
            2 26 12 73 3 16 8 48 8 52 11 27 rrcurveto
            21 7 25 33 46 hhcurveto
            36 11 -34 -25 4 hvcurveto
            -3 4 -17 -16 -91 vhcurveto
            endchar
          </CharString>
          <CharString index="80">
            -20 hstemhm
            hintmask 11100000
            -107 callsubr
            hintmask 00011000
            -6 callgsubr
            return
          </CharString>
          <CharString index="81">
            -36 -29 -42 -28 -45 hhcurveto
            -37 -25 25 38 -6 hvcurveto
            -6 34 10 59 6 35 7 40 8 53 18 35 rrcurveto
            40 22 37 25 41 hhcurveto
            31 34 -15 -38 20 hvcurveto
            return
          </CharString>
          <CharString index="82">
            0 callgsubr
            28 callgsubr
            -44 142 -98 47 8 142 -53 47 0 47 109 47 -46 47 hintmask 1100010100100000
            673 274 rmoveto
            -47 hlineto
            -130 -43 -36 -97 -166 hhcurveto
            -103 hlineto
            47 282 rlineto
            22 hlineto
            91 -3 -44 -73 -13 hvcurveto
            47 hlineto
            hintmask 0100000010000000
            47 281 rlineto
            -47 hlineto
            -73 -12 -11 -44 -91 hhcurveto
            hintmask 0100001000000000
            -22 hlineto
            hintmask 0010100000000000
            43 257 rlineto
            hintmask 0010001001000000
            99 hlineto
            155 -1 -82 -112 -4 hvcurveto
            47 hlineto
            9 241 rlineto
            -534 94 callgsubr
            hintmask 0010100000000000
            94 hlineto
            hintmask 1001000000100000
            -36 callsubr
            547 hlineto
            endchar
          </CharString>
          <CharString index="83">
            -20 hstemhm
            120 141 165 141 hintmask 10011000
            -13 callgsubr
            hintmask 01100000
            return
          </CharString>
          <CharString index="84">
            3 -1 3 -2 3 vhcurveto
            -47 62 -31 73 -12 80 rrcurveto
            7 -1 -6 5 -7 hhcurveto
            -8 hlineto
            -8 -6 -6 -7 hvcurveto
            -3 -75 5 -74 12 -72 -36 -71 -29 -74 -23 -75 rrcurveto
            -1 0 -2 -1 vvcurveto
            -8 6 -6 8 vhcurveto
            8 hlineto
            5 5 3 5 2 hvcurveto
            40 81 56 74 68 63 rrcurveto
            3 2 2 4 4 vvcurveto
            return
          </CharString>
          <CharString index="85">
            306 119 callsubr
            220 36 hstemhm
            104 108 -50 108 2 126 -107 108 hintmask 01110000
            500 613 rmoveto
            42 7 -27 45 -72 hhcurveto
            -92 -110 -41 -114 -19 hvcurveto
            -17 -101 rlineto
            -58 -80 callsubr
            hintmask 01001000
            58 hlineto
            hintmask 10010010
            -58 -350 65 callgsubr
            hintmask 01001100
            180 callgsubr
            93 134 callgsubr
            -99 hlineto
            17 102 rlineto
            hintmask 00100010
            117 20 79 1 11 hhcurveto
            3 4 0 -1 4 hvcurveto
            -12 -7 -16 -17 -5 -26 rrcurveto
            -43 -7 32 -19 26 hhcurveto
            178 callgsubr
            endchar
          </CharString>
          <CharString index="86">
            467 -6 40 184 108 callgsubr
            return
          </CharString>
          <CharString index="87">
            7 47 rlineto
            return
          </CharString>
          <CharString index="88">
            181 callgsubr
            hintmask 1010000001000000
            553 -61 callgsubr
            hintmask 0100100000000000
            47 callgsubr
            hintmask 0001000100000000
            -179 -8 -7 -88 callgsubr
            hintmask 1000000010000000
            133 callsubr
            hintmask 1000000100000000
            43 callgsubr
            hintmask 1010000011000000
            117 callsubr
            -85 callsubr
            rlineto
            return
          </CharString>
          <CharString index="89">
            -20 hstemhm
            hintmask 11100000
            -105 callgsubr
            hintmask 00011000
            109 callsubr
            return
          </CharString>
          <CharString index="90">
            -24 31 38 -4 58 hhcurveto
            47 43 29 41 29 hvcurveto
            -12 -70 178 6 -75 callsubr
            -19 -27 0 5 -10 hvcurveto
            return
          </CharString>
          <CharString index="91">
            222 rmoveto
            -47 hlineto
            -7 -24 -15 -49 -15 -16 rrcurveto
            -6 -8 -86 0 0 vvcurveto
            -120 hlineto
            136 111 24 19 59 44 23 19 rlinecurve
            57 50 29 47 9 51 rrcurveto
            110 18 -77 79 -122 hhcurveto
            -106 -92 -68 -84 -14 hvcurveto
            hintmask 01010000
            -59 -10 46 -15 24 hhcurveto
            hintmask 00101100
            32 43 22 50 9 hvcurveto
            6 41 -21 25 -34 6 rrcurveto
            30 32 38 5 17 hhcurveto
            85 -5 -101 -41 -7 hvcurveto
            -10 -56 -30 -69 -89 -92 -191 -198 rcurveline
            -12 -12 -1 -2 -3 -19 rrcurveto
            hintmask 10010000
            -3 -18 rlineto
            368 hlineto
            endchar
          </CharString>
          <CharString index="92">
            603 274 rmoveto
            -47 hlineto
            -72 -19 -43 -155 -150 hhcurveto
            -66 hlineto
            return
          </CharString>
          <CharString index="93">
            225 rmoveto
            10 64 3 67 -35 48 rrcurveto
            44 -31 -60 13 -59 hhcurveto
            -59 -64 -13 -44 -47 hvcurveto
            -51 -48 -19 -67 -10 -64 -11 -64 -3 -67 35 -48 rrcurveto
            -44 31 60 -13 59 hhcurveto
            59 64 13 44 47 hvcurveto
            51 48 19 67 11 64 rrcurveto
            -129 hmoveto
            -9 -51 -9 -53 -28 -48 rrcurveto
            -27 -15 -27 -21 -28 hhcurveto
            -28 -19 21 27 -7 hvcurveto
            -12 48 9 53 9 51 8 51 9 53 28 48 rrcurveto
            27 15 27 21 28 hhcurveto
            28 19 -21 -27 7 hvcurveto
            12 -48 -9 -53 -8 -51 rrcurveto
            endchar
          </CharString>
          <CharString index="94">
            569 rmoveto
            45 callsubr
            239 hmoveto
            41 callgsubr
          </CharString>
          <CharString index="95">
            -95 callsubr
            -5 303 rmoveto
            38 13 -22 35 -39 hhcurveto
            -18 -15 -9 -13 -14 hvcurveto
            -124 -116 return
          </CharString>
          <CharString index="96">
            528 17 callgsubr
            339 55 -44 47 195 47 -47 55 hstemhm
            411 108 hintmask 00101001
            511 -3 callsubr
            hintmask 00010000
            -3 -23 -30 0 -24 hhcurveto
            hintmask 00001000
            -38 -63 2 1 -13 80 callgsubr
            hintmask 00010010
            18 25 -4 -7 -2 hvcurveto
            -3 -7 -6 -2 -1 vhcurveto
            -161 -128 75 446 rlineto
            return
          </CharString>
          <CharString index="97">
            -76 callgsubr
            -37 -45 -38 -6 -8 callsubr
            endchar
          </CharString>
          <CharString index="98">
            2 13 7 43 -5 42 rrcurveto
            -19 34 46 -17 56 hhcurveto
            49 38 12 9 21 hvcurveto
            -523 -632 -9 -11 -5 -5 -1 -9 rlinecurve
            -17 -3 12 -14 17 hhcurveto
            16 6 9 10 9 hvcurveto
            608 733 11 13 1 6 1 4 rlinecurve
            return
          </CharString>
          <CharString index="99">
            hvcurveto
            -47 -8 30 -38 70 hhcurveto
            75 40 41 44 7 hvcurveto
            return
          </CharString>
          <CharString index="100">
            rmoveto
            20 3 -14 11 -14 hhcurveto
            -13 -9 -7 -10 -9 hvcurveto
            -64 -57 -66 -23 -64 hhcurveto
            -68 -59 29 46 -44 hvcurveto
            19 -19 -19 10 -29 hhcurveto
            -67 -93 -53 -148 -24 hvcurveto
            -155 -26 81 -47 62 hhcurveto
            59 75 51 151 26 hvcurveto
            return
          </CharString>
          <CharString index="101">
            63 hlineto
            -45 -274 rlineto
            -108 -18 77 -21 65 hhcurveto
            76 40 68 60 10 hvcurveto
            return
          </CharString>
          <CharString index="102">
            -95 callsubr
            59 304 rmoveto
            return
          </CharString>
          <CharString index="103">
            617 rmoveto
            4 27 rlineto
            -218 hlineto
            -11 -42 1 3 -26 hvcurveto
            hintmask 01110000
            -43 5 -1 8 15 vvcurveto
            -47 hlineto
            -78 -254 rlineto
            47 hlineto
            11 34 12 39 15 16 rrcurveto
            8 7 78 0 14 hhcurveto
            134 hlineto
            -85 -92 rlineto
            hintmask 10001000
            -3 -4 -153 -168 -33 -195 rrcurveto
            -71 -12 55 0 7 hhcurveto
            16 48 5 66 11 hvcurveto
            9 53 12 75 33 159 60 66 rlinecurve
            167 185 11 11 0 2 1 6 rlinecurve
            endchar
          </CharString>
          <CharString index="104">
            -45 callsubr
            -18 -15 0 1 -11 hvcurveto
            -15 2 -1 3 -7 13 -109 213 rcurveline
            123 99 rlineto
            12 15 9 7 64 hhcurveto
            -75 callsubr
            return
          </CharString>
          <CharString index="105">
            10 27 vvcurveto
            38 -1 34 35 39 hhcurveto
            18 11 -9 -13 10 hvcurveto
            endchar
          </CharString>
          <CharString index="106">
            32 191 rlineto
            -47 hlineto
            -15 -84 -47 -114 -102 -4 -6 -36 rcurveline
            return
          </CharString>
          <CharString index="107">
            429 rmoveto
            4 27 rlineto
            -218 hlineto
            -11 -43 1 3 -25 hvcurveto
            -43 5 -1 8 -1 15 rrcurveto
            -47 hlineto
            -77 -254 rlineto
            47 hlineto
            11 34 11 39 16 16 rrcurveto
            8 6 78 0 14 hhcurveto
            134 hlineto
            -84 -92 -4 -4 -153 -168 -32 -195 rlinecurve
            -71 -12 55 0 7 hhcurveto
            16 48 5 66 11 hvcurveto
            8 53 13 75 33 159 60 66 rlinecurve
            166 185 11 11 1 2 1 6 rlinecurve
            endchar
          </CharString>
          <CharString index="108">
            -5 callsubr
            -24 22 rlineto
            hintmask 00001000
            81 callsubr
            hintmask 00000100
            24 callgsubr
            hintmask 00001000
            120 callsubr
            -4 hvcurveto
            -49 98 callgsubr
            hintmask 00000100
            28 27 26 -71 callsubr
            hintmask 00001000
            -38 callsubr
            hintmask 00000100
            5 callgsubr
          </CharString>
          <CharString index="109">
            6 6 1 15 -6 7 -6 6 -13 3 -10 -6 rrcurveto
            -8 -10 -8 -11 -23 hhcurveto
            -48 -15 46 42 29 hvcurveto
            return
          </CharString>
          <CharString index="110">
            97 581 rlineto
            48 hlineto
            128 -7 -83 -111 -10 hvcurveto
            return
          </CharString>
          <CharString index="111">
            rmoveto
            -175 hlineto
            17 99 2 17 8 44 43 31 rlinecurve
            28 41 48 1 12 hhcurveto
            19 10 -2 -2 7 hvcurveto
            -22 -16 -5 -23 -2 -8 -2 -12 1 -21 14 -13 4 -4 0 -2 -3 -16 rrcurveto
            endchar
          </CharString>
          <CharString index="112">
            18 callgsubr
            -3 -37 -70 0 -40 hhcurveto
            -45 -97 0 3 -41 55 callsubr
            123 hlineto
            return
          </CharString>
          <CharString index="113">
            -45 callsubr
            -85 hlineto
            return
          </CharString>
          <CharString index="114">
            44 callsubr
            21 callgsubr
            hintmask 10010000
            368 -45 callsubr
            hintmask 10100000
            -99 hlineto
            hintmask 01010000
            160 callsubr
            99 27 callsubr
            -93 0 -41 hhcurveto
            -41 -93 114 callgsubr
            hintmask 01100000
            -60 callgsubr
            hintmask 01010000
            99 hlineto
            hintmask 10100000
            -74 callsubr
            endchar
          </CharString>
          <CharString index="115">
            272 16 callsubr
            return
          </CharString>
          <CharString index="116">
            hstemhm
            136 45 callgsubr
            return
          </CharString>
          <CharString index="117">
            -45 callsubr
            -76 hlineto
            18 109 rlineto
            76 134 callgsubr
            -76 hlineto
            70 421 rlineto
            25 4 0 7 -28 hhcurveto
            -16 -5 0 -15 -12 hvcurveto
            -380 -438 -8 -47 190 callgsubr
            -18 -109 rlineto
            -97 -80 callsubr
            3 36 82 0 39 hhcurveto
            41 62 0 -3 38 hvcurveto
            -156 203 rmoveto
            -204 hlineto
            252 290 rlineto
            endchar
          </CharString>
          <CharString index="118">
            36 203 31 153 36 return
          </CharString>
          <CharString index="119">
            145 callsubr
            hintmask 0000100000000000
            -28 -26 -27 -16 callgsubr
            hintmask 0000010000000000
            33 callsubr
            hintmask 0000100000000000
            -35 callsubr
            hintmask 0000010000000000
            28 26 27 -71 callsubr
            hintmask 0000100000000000
            -38 callsubr
            hintmask 0000010000000000
            5 callgsubr
          </CharString>
          <CharString index="120">
            56 callgsubr
            -47 return
          </CharString>
          <CharString index="121">
            hstemhm
            89 133 -109 113 -80 133 -125 113 14 114 35 113 return
          </CharString>
          <CharString index="122">
            -69 hlineto
            -8 -47 124 3 122 24 callsubr
            return
          </CharString>
          <CharString index="123">
            -45 callsubr
            -69 hlineto
            108 647 rlineto
            return
          </CharString>
          <CharString index="124">
            0 -3 34 145 callgsubr
            return
          </CharString>
          <CharString index="125">
            33 6 -30 25 -33 hhcurveto
            hintmask 11000000
            -4 -3 0 -1 -3 hvcurveto
            -4 -6 -2 -2 -4 hvcurveto
            -33 -14 -8 -41 -11 -29 -4 -12 -5 -13 -4 -12 -11 -30 rcurveline
            -2 -3 -2 -5 -4 vvcurveto
            -1 -3 -1 -6 19 -7 8 -5 rlinecurve
            -1 3 3 -2 3 hhcurveto
            2 hlineto
            5 1 5 6 5 4 73 70 rcurveline
            16 15 17 16 4 22 rrcurveto
            return
          </CharString>
          <CharString index="126">
            35 -39 hhcurveto
            -18 -14 -9 -13 -14 hvcurveto
            -125 -116 20 -38 152 60 14 6 24 10 9 27 rlinecurve
            endchar
          </CharString>
          <CharString index="127">
            -9 3 -1 10 2 10 47 282 rcurveline
            79 16 70 48 12 73 rrcurveto
            return
          </CharString>
          <CharString index="128">
            278 132 callsubr
            156 170 vstem
            326 569 rmoveto
            41 callgsubr
          </CharString>
          <CharString index="129">
            639 rmoveto
            7 47 return
          </CharString>
          <CharString index="130">
            -38 -54 -75 0 -25 hhcurveto
            -5 -28 rlineto
            18 34 0 10 40 hvcurveto
            -52 -309 rlineto
            -80 hlineto
            -4 -28 rlineto
            2 27 66 0 31 hhcurveto
            31 67 0 -2 28 hvcurveto
            return
          </CharString>
          <CharString index="131">
            -3 -75 callsubr
            -69 hlineto
            return
          </CharString>
          <CharString index="132">
            47 282 47 257 47 return
          </CharString>
          <CharString index="133">
            444 -200 48 71 48 hstemhm
            64 96 15 96 -62 128 hintmask 01110000
            337 -116 rmoveto
            119 callgsubr
            7 38 rlineto
            -96 hlineto
            -15 -86 rlineto
            hintmask 10101000
            -2 callgsubr
            endchar
          </CharString>
          <CharString index="134">
            -37 callgsubr
            -36 return
          </CharString>
          <CharString index="135">
            -62 callgsubr
            endchar
          </CharString>
          <CharString index="136">
            500 -6 134 callsubr
            return
          </CharString>
          <CharString index="137">
            47 135 47 469 return
          </CharString>
          <CharString index="138">
            333 174 97 hstemhm
            40 265 -249 265 hintmask 10100000
            305 174 39 callsubr
          </CharString>
          <CharString index="139">
            -2 callgsubr
            119 callgsubr
            return
          </CharString>
          <CharString index="140">
            6 -19 -23 8 -21 hhcurveto
            return
          </CharString>
          <CharString index="141">
            hstemhm
            136 136 -37 136 return
          </CharString>
          <CharString index="142">
            17 callsubr
            -94 hlineto
            return
          </CharString>
          <CharString index="143">
            -45 -8 28 -45 70 hhcurveto
            return
          </CharString>
          <CharString index="144">
            -3 -35 -90 0 -40 hhcurveto
            return
          </CharString>
          <CharString index="145">
            -45 callsubr
            -116 hlineto
            96 576 rlineto
            32 5 -5 0 -34 hhcurveto
            -64 -76 -105 0 -35 hhcurveto
            -61 callsubr
            26 47 0 17 56 hvcurveto
            -86 -514 rlineto
            -112 -80 callsubr
            3 39 91 0 43 hhcurveto
            43 94 0 -3 37 hvcurveto
            endchar
          </CharString>
          <CharString index="146">
            rmoveto
            16 97 rlineto
            -265 hlineto
            hintmask 11000000
            -16 -97 rlineto
            endchar
          </CharString>
          <CharString index="147">
            rlineto
            118 -37 callgsubr
            return
          </CharString>
          <CharString index="148">
            99 hlineto
            155 -1 -82 -112 -4 hvcurveto
            47 hlineto
            9 241 rlineto
            -534 94 callgsubr
            hintmask 0010010000000000
            94 hlineto
            return
          </CharString>
          <CharString index="149">
            rmoveto
            -126 -21 -51 -29 callgsubr
            -21 hvcurveto
            return
          </CharString>
          <CharString index="150">
            21 rmoveto
            -2 120 rlineto
            11 -1 43 -44 -33 return
          </CharString>
          <CharString index="151">
            397 84 callgsubr
            return
          </CharString>
          <CharString index="152">
            -64 callgsubr
            -18 -82 -51 -60 -46 -62 callgsubr
            return
          </CharString>
          <CharString index="153">
            615 560 rmoveto
            99 17 -160 8 -52 hhcurveto
            -17 hlineto
            -60 -7 -120 -13 -15 -88 rrcurveto
            -12 -2 5 -5 15 hhcurveto
            5 hlineto
            13 6 2 19 7 hvcurveto
            47 24 86 5 46 hhcurveto
            53 72 -3 -38 26 hvcurveto
            return
          </CharString>
          <CharString index="154">
            47 348 47 -47 55 return
          </CharString>
          <CharString index="155">
            3 -60 callgsubr
            return
          </CharString>
          <CharString index="156">
            -20 callsubr
            hintmask 0100000000000000
            return
          </CharString>
          <CharString index="157">
            141 117 141 return
          </CharString>
          <CharString index="158">
            -200 156 return
          </CharString>
          <CharString index="159">
            hstemhm
            142 142 0 142 -45 142 return
          </CharString>
          <CharString index="160">
            830 -61 callgsubr
            -71 -54 -39 -52 -36 hvcurveto
            88 -4 -80 3 -32 hhcurveto
            -72 -58 -41 -60 -39 hvcurveto
            -1 hlineto
            17 101 rlineto
            return
          </CharString>
          <CharString index="161">
            539 79 callgsubr
            102 608 rlineto
            return
          </CharString>
          <CharString index="162">
            hvcurveto
            -60 callgsubr
            return
          </CharString>
          <CharString index="163">
            156 -206 rmoveto
            152 912 73 callgsubr
            -152 -912 73 callsubr
            return
          </CharString>
          <CharString index="164">
            47 121 callsubr
            return
          </CharString>
          <CharString index="165">
            132 callgsubr
            rlineto
            38 64 77 callgsubr
            return
          </CharString>
          <CharString index="166">
            0 3 -36 55 callsubr
            return
          </CharString>
          <CharString index="167">
            278 169 callsubr
            -47 55 105 callgsubr
            hintmask 00101010
            8 callsubr
            return
          </CharString>
          <CharString index="168">
            306 -200 36 0 55 504 55 return
          </CharString>
          <CharString index="169">
            47 -44 47 539 47 0 47 -44 47 return
          </CharString>
          <CharString index="170">
            -66 callgsubr
            -47 -16 46 42 29 hvcurveto
            return
          </CharString>
          <CharString index="171">
            -71 callsubr
            hintmask 00010000
            -38 callsubr
            hintmask 00001000
            39 return
          </CharString>
          <CharString index="172">
            361 304 rmoveto
            4 28 rlineto
            -84 hlineto
            58 346 rlineto
            19 3 -4 0 -24 hhcurveto
            return
          </CharString>
          <CharString index="173">
            -64 -17 -20 -38 -85 hhcurveto
            -97 -74 100 230 38 hvcurveto
            227 38 112 79 89 hhcurveto
            83 9 -36 -65 -4 hvcurveto
            -2 -37 -16 -98 -14 -81 rrcurveto
            endchar
          </CharString>
          <CharString index="174">
            763 250 rmoveto
            31 5 -31 0 -15 hhcurveto
            -573 hlineto
            -15 -31 0 -31 -5 hvcurveto
            -30 -5 29 0 12 hhcurveto
            583 hlineto
            12 29 0 30 5 hvcurveto
            return
          </CharString>
          <CharString index="175">
            17 3 -11 13 -17 hhcurveto
            -11 -10 -6 -8 -6 hvcurveto
            -508 -646 -4 -5 -3 -5 -1 -6 rlinecurve
            -17 -2 11 -13 16 hhcurveto
            11 10 6 8 8 hvcurveto
            return
          </CharString>
          <CharString index="176">
            428 0 75 callgsubr
            return
          </CharString>
          <CharString index="177">
            611 -6 53 -50 34 -9 53 319 56 return
          </CharString>
          <CharString index="178">
            333 174 97 hstemhm
            63 265 -249 265 hintmask 10100000
            328 174 39 callsubr
          </CharString>
          <CharString index="179">
            rmoveto
            31 10 -25 26 -33 hhcurveto
            -34 -32 -26 -31 hvcurveto
            -4 -222 rlineto
            48 hlineto
            return
          </CharString>
          <CharString index="180">
            rlineto
            -14 -3 -5 -30 30 hhcurveto
            31 5 29 15 3 hvcurveto
            return
          </CharString>
          <CharString index="181">
            133 callgsubr
            -28 36 return
          </CharString>
          <CharString index="182">
            79 55 callgsubr
            return
          </CharString>
          <CharString index="183">
            -75 callsubr
            -94 hlineto
            return
          </CharString>
          <CharString index="184">
            -11 -20 -14 -61 -44 rcurveline
            hintmask 10010000
            11 -17 rlineto
            41 56 58 30 51 hhcurveto
            40 26 -17 -20 32 hvcurveto
            -17 26 28 -17 40 hhcurveto
            hintmask 01000000
            25 return
          </CharString>
          <CharString index="185">
            38 6 -25 34 -42 hhcurveto
            -3 -3 0 -1 -3 hvcurveto
            -38 -4 -31 -33 -6 -35 rrcurveto
            -38 -6 25 -34 42 hhcurveto
            40 38 34 39 6 hvcurveto
            return
          </CharString>
          <CharString index="186">
            108 0 108 return
          </CharString>
          <CharString index="187">
            9 -23 -24 5 -26 hhcurveto
            -77 -83 -23 -66 -11 hvcurveto
            -55 -9 47 -35 59 hhcurveto
            90 100 10 57 42 hvcurveto
            -41 61 58 -46 79 hhcurveto
            return
          </CharString>
          <CharString index="188">
            -28 -27 -27 -3 -15 hhcurveto
            -20 -21 7 10 -29 hvcurveto
            return
          </CharString>
          <CharString index="189">
            63 -21 165 -20 hstemhm
            return
          </CharString>
          <CharString index="190">
            rrcurveto
            33 5 1 4 -24 hhcurveto
            -23 -1 -5 -22 -4 hvcurveto
            -2 -12 -8 -49 -17 -83 -108 -77 rlinecurve
            -41 -29 -14 -35 -6 -33 return
          </CharString>
          <CharString index="191">
            60 callgsubr
            -117 53 11 53 hintmask 0001000000000000
            131 callsubr
            hintmask 0010000000000000
            -120 -3 rlineto
            return
          </CharString>
          <CharString index="192">
            -56 -41 -67 -29 -72 hhcurveto
            -101 hlineto
            return
          </CharString>
          <CharString index="193">
            9 callsubr
            hintmask 11000100
            -15 callsubr
            return
          </CharString>
          <CharString index="194">
            rmoveto
            -71 callgsubr
            -47 -38 -38 -40 -7 hvcurveto
            -42 -7 29 -36 43 hhcurveto
            47 39 38 40 6 hvcurveto
            endchar
          </CharString>
          <CharString index="195">
            778 -38 -21 48 36 53 36 457 36 54 36 48 -20 return
          </CharString>
          <CharString index="196">
            -70 43 171 36 90 124 32 -20 hstemhm
            return
          </CharString>
          <CharString index="197">
            722 17 -21 331 47 23 47 return
          </CharString>
          <CharString index="198">
            722 -11 47 614 47 return
          </CharString>
          <CharString index="199">
            rmoveto
            -75 callsubr
            return
          </CharString>
          <CharString index="200">
            -24 18 35 -29 59 hhcurveto
            121 113 81 147 24 hvcurveto
            -128 1 rmoveto
            -8 -48 -8 -49 -21 -38 rrcurveto
            return
          </CharString>
          <CharString index="201">
            139 callsubr
            hintmask 0000001000000000
            551 397 rmoveto
            23 4 -9 35 -41 hhcurveto
            -15 -37 -3 -34 -43 hvcurveto
            return
          </CharString>
          <CharString index="202">
            rmoveto
            34 6 -24 29 -35 hhcurveto
            -35 -32 -29 -34 -6 hvcurveto
            -35 -6 23 -28 35 hhcurveto
            35 33 28 35 6 hvcurveto
            return
          </CharString>
          <CharString index="203">
            7 rrcurveto
            2 7 9 1 9 hhcurveto
            10 7 -2 -4 2 hvcurveto
            return
          </CharString>
          <CharString index="204">
            rmoveto
            4 21 -9 18 return
          </CharString>
          <CharString index="205">
            507 646 4 5 2 5 1 6 rlinecurve
            -123 -544 rmoveto
            -147 hlineto
            176 174 rlineto
            return
          </CharString>
          <CharString index="206">
            23 -5 -5 3 -27 hhcurveto
            -209 -31 callsubr
            -94 -563 -4 -22 0 -1 -25 -3 rlinecurve
            return
          </CharString>
          <CharString index="207">
            76 -21 207 -20 hstemhm
            return
          </CharString>
          <CharString index="208">
            114 -7 47 14 47 return
          </CharString>
          <CharString index="209">
            42 252 rlineto
            15 3 1 5 -21 hhcurveto
            -11 -4 0 -9 -9 hvcurveto
            -265 -263 -4 -28 rlineto
            return
          </CharString>
          <CharString index="210">
            129 callsubr
            0 122 return
          </CharString>
          <CharString index="211">
            hlineto
            -13 -13 -11 -13 -2 hvcurveto
            return
          </CharString>
          <CharString index="212">
            444 -6 40 379 40 return
          </CharString>
          <CharString index="213">
            hstemhm
            235 142 return
          </CharString>
          <CharString index="214">
            rmoveto
            -24 22 rlineto
            return
          </CharString>
          <CharString index="215">
            -8 -48 rlineto
            hintmask 0000000010000000
            20 26 0 -4 11 hvcurveto
            hintmask 0000000001000000
            8 -4 2 -10 -2 -9 rrcurveto
            return
          </CharString>
          <CharString index="216">
            111 278 -95 callsubr
            return
          </CharString>
          <CharString index="217">
            263 259 -95 callsubr
            return
          </CharString>
          <CharString index="218">
            77 45 91 88 15 hvcurveto
            -428 -41 rmoveto
            -45 -19 -57 -25 -55 hhcurveto
            -32 -30 13 29 5 hvcurveto
            return
          </CharString>
          <CharString index="219">
            132 300 -95 callsubr
            return
          </CharString>
          <CharString index="220">
            121 callsubr
            endchar
          </CharString>
          <CharString index="221">
            76 399 -95 callsubr
            return
          </CharString>
          <CharString index="222">
            3 37 93 0 41 hhcurveto
            24 hlineto
            -40 -28 -43 -51 -6 -38 rrcurveto
            36 callsubr
            return
          </CharString>
          <CharString index="223">
            50 callgsubr
            592 47 return
          </CharString>
          <CharString index="224">
            -69 hlineto
            35 209 rlineto
            return
          </CharString>
          <CharString index="225">
            13 2 -9 11 -13 hhcurveto
            return
          </CharString>
          <CharString index="226">
            0 47 350 47 return
          </CharString>
          <CharString index="227">
            -39 -26 -27 -4 return
          </CharString>
          <CharString index="228">
            752 -95 callsubr
            return
          </CharString>
          <CharString index="229">
            559 222 rmoveto
            153 26 -87 75 -109 hhcurveto
            -48 -41 -15 -27 -39 hvcurveto
            return
          </CharString>
          <CharString index="230">
            559 223 rmoveto
            147 25 -80 80 -112 hhcurveto
            -45 -44 -14 -29 -42 hvcurveto
            return
          </CharString>
          <CharString index="231">
            20 callgsubr
            endchar
          </CharString>
          <CharString index="232">
            47 600 47 -44 47 106 callsubr
            return
          </CharString>
          <CharString index="233">
            rlineto
            -259 hlineto
            -13 -30 0 -30 -5 hvcurveto
            -31 return
          </CharString>
          <CharString index="234">
            611 0 51 588 47 return
          </CharString>
          <CharString index="235">
            600 0 47 227 -20 return
          </CharString>
          <CharString index="236">
            108 30 108 return
          </CharString>
          <CharString index="237">
            -20 callsubr
            -3 -36 -93 0 -41 hhcurveto
            -41 -93 59 callsubr
            return
          </CharString>
          <CharString index="238">
            841 18 callgsubr
            return
          </CharString>
          <CharString index="239">
            365 -21 194 156 hstem
            return
          </CharString>
          <CharString index="240">
            -92 -553 rlineto
            -69 hlineto
            return
          </CharString>
          <CharString index="241">
            40 383 36 return
          </CharString>
          <CharString index="242">
            hlineto
            -8 -48 rlineto
            return
          </CharString>
          <CharString index="243">
            36 -30 47 0 47 320 36 189 47 -47 55 hstemhm
            70 128 return
          </CharString>
          <CharString index="244">
            -14 -2 -5 -30 30 hhcurveto
            31 4 29 15 3 hvcurveto
            131 783 rlineto
            return
          </CharString>
          <CharString index="245">
            -40 -80 rlineto
            -66 hlineto
            -14 80 rlineto
            56 -128 rmoveto
            -26 -50 -8 50 rlineto
            return
          </CharString>
          <CharString index="246">
            111 -78 127 return
          </CharString>
          <CharString index="247">
            hlineto
            -7 -6 -4 -6 -2 hvcurveto
            -9 -20 rlineto
            -9 -4 5 -9 10 hhcurveto
            return
          </CharString>
          <CharString index="248">
            43 260 rlineto
            12 2 5 30 -30 hhcurveto
            -31 -5 -29 -13 -2 hvcurveto
            return
          </CharString>
          <CharString index="249">
            rmoveto
            5 28 rlineto
            -55 hlineto
            11 66 rlineto
            55 hlineto
            4 28 rlineto
            -55 hlineto
            return
          </CharString>
          <CharString index="250">
            2 26 59 0 28 hhcurveto
            29 45 0 -2 28 hvcurveto
            6 666 rmoveto
            return
          </CharString>
          <CharString index="251">
            rlineto
            -69 hlineto
            -7 -47 126 3 126 -3 -20 callsubr
            -69 hlineto
            return
          </CharString>
          <CharString index="252">
            rmoveto
            -25 22 rlineto
            return
          </CharString>
          <CharString index="253">
            hlineto
            -4 -23 rlineto
            47 hlineto
            -49 -296 rlineto
            -47 hlineto
            -4 -23 rlineto
            return
          </CharString>
          <CharString index="254">
            31 30 38 25 45 hhcurveto
            51 30 -64 -123 -21 hvcurveto
            endchar
          </CharString>
          <CharString index="255">
            99 592 22 callgsubr
            return
          </CharString>
          <CharString index="256">
            49 36 294 39 20 39 return
          </CharString>
          <CharString index="257">
            783 0 160 callgsubr
            return
          </CharString>
          <CharString index="258">
            47 312 55 0 36 return
          </CharString>
          <CharString index="259">
            500 507 -21 return
          </CharString>
          <CharString index="260">
            rmoveto
            -36 hlineto
            -82 return
          </CharString>
          <CharString index="261">
            -28 17 -40 hhcurveto
            hintmask 00100000
            -25 -27 -8 -10 -24 hvcurveto
            hintmask 01000000
            return
          </CharString>
          <CharString index="262">
            125 -100 125 -106 114 -114 125 hintmask 01001000
            return
          </CharString>
          <CharString index="263">
            107 callsubr
            -38 callgsubr
            return
          </CharString>
          <CharString index="264">
            163 callgsubr
            71 return
          </CharString>
          <CharString index="265">
            -13 8 -12 -20 29 hhcurveto
            18 7 8 11 1 hvcurveto
            endchar
          </CharString>
          <CharString index="266">
            hintmask 0010001000000000
            20 return
          </CharString>
          <CharString index="267">
            99 592 rlineto
            return
          </CharString>
          <CharString index="268">
            -205 43 109 39 150 38 248 39 hstemhm
            return
          </CharString>
          <CharString index="269">
            rmoveto
            29 5 -16 27 -37 hhcurveto
            -21 -25 -9 -10 -22 hvcurveto
            return
          </CharString>
          <CharString index="270">
            61 rmoveto
            -64 hlineto
            146 878 rlineto
            64 hlineto
            endchar
          </CharString>
          <CharString index="271">
            30 callgsubr
            87 0 return
          </CharString>
          <CharString index="272">
            -21 125 62 hstem
            return
          </CharString>
          <CharString index="273">
            3 -61 callsubr
            return
          </CharString>
          <CharString index="274">
            -48 -8 34 -16 25 hhcurveto
            32 35 22 41 6 hvcurveto
            return
          </CharString>
          <CharString index="275">
            51 9 -17 43 -44 hhcurveto
            -34 -29 -26 -32 -5 hvcurveto
            return
          </CharString>
          <CharString index="276">
            17 callgsubr
            592 47 return
          </CharString>
          <CharString index="277">
            hlineto
            181 callsubr
            return
          </CharString>
          <CharString index="278">
            -194 47 -44 44 147 47 441 -20 hstemhm
            return
          </CharString>
          <CharString index="279">
            114 -40 114 -112 128 42 128 return
          </CharString>
          <CharString index="280">
            hvcurveto
            hintmask 00100000
            22 10 22 11 19 14 rrcurveto
            endchar
          </CharString>
          <CharString index="281">
            -12 -29 0 -30 -5 hvcurveto
            -31 -5 31 0 15 hhcurveto
            return
          </CharString>
          <CharString index="282">
            -20 21 -20 hstemhm
            hintmask 00100000
            return
          </CharString>
          <CharString index="283">
            3 23 21 0 7 hhcurveto
            endchar
          </CharString>
          <CharString index="284">
            13 13 11 13 2 hvcurveto
            return
          </CharString>
          <CharString index="285">
            -17 -3 11 -13 17 hhcurveto
            return
          </CharString>
          <CharString index="286">
            hlineto
            8 48 rlineto
            return
          </CharString>
          <CharString index="287">
            174 hlineto
            -11 -66 rlineto
            -70 hlineto
            -5 -28 rlineto
            return
          </CharString>
          <CharString index="288">
            -58 -350 13 callsubr
            124 3 return
          </CharString>
          <CharString index="289">
            -36 callsubr
            3 36 return
          </CharString>
          <CharString index="290">
            -106 hlineto
            17 99 rlineto
            77 12 59 44 85 hhcurveto
            return
          </CharString>
          <CharString index="291">
            129 -65 129 17 36 hstemhm
            93 108 return
          </CharString>
          <CharString index="292">
            694 0 191 callsubr
            return
          </CharString>
          <CharString index="293">
            556 -11 47 618 43 return
          </CharString>
          <CharString index="294">
            hstemhm
            199 128 return
          </CharString>
          <CharString index="295">
            -21 193 -20 return
          </CharString>
          <CharString index="296">
            111 138 return
          </CharString>
          <CharString index="297">
            -61 callsubr
            62 return
          </CharString>
          <CharString index="298">
            47 581 47 return
          </CharString>
          <CharString index="299">
            116 callsubr
            hstemhm
            return
          </CharString>
          <CharString index="300">
            150 callsubr
            259 47 return
          </CharString>
          <CharString index="301">
            0 125 304 143 36 47 hstemhm
            return
          </CharString>
          <CharString index="302">
            17 39 12 59 32 9 55 rrcurveto
            48 8 return
          </CharString>
          <CharString index="303">
            -99 -592 rlineto
            return
          </CharString>
          <CharString index="304">
            -6 hvcurveto
            -47 -8 return
          </CharString>
        <CharString name=".notdef">
          280 endchar
        </CharString>
        <CharString name="A">
          -29 callsubr
          hstem
          -107 callsubr
          endchar
        </CharString>
        <CharString name="AE">
          -51 callgsubr
        </CharString>
        <CharString name="AE.dup">
          -51 callgsubr
        </CharString>
        <CharString name="AEacute">
          193 callgsubr
          82 callgsubr
          427 132 -89 132 -124 132 -84 132 53 47 -1 47 72 47 hintmask 1000010000010000
          923 274 rmoveto
          -47 hlineto
          -130 -44 -33 -97 -154 hhcurveto
          -86 hlineto
          hintmask 0100001001000000
          43 259 rlineto
          31 hlineto
          92 -2 -42 -75 -12 hvcurveto
          47 hlineto
          hintmask 0100000100100000
          46 281 rlineto
          -47 hlineto
          -74 -12 -12 -43 -92 hhcurveto
          -31 hlineto
          hintmask 1110000010010000
          154 callgsubr
          81 hlineto
          145 -3 -84 -110 -5 hvcurveto
          47 hlineto
          9 241 rlineto
          -549 94 callgsubr
          67 hlineto
          -302 -569 rlineto
          -17 -9 -3 -6 -86 hhcurveto
          -8 -47 107 3 118 -3 -75 callsubr
          0 -78 0 2 13 vhcurveto
          0 5 10 1 2 vhcurveto
          124 234 rlineto
          hintmask 0100001000000000
          148 hlineto
          hintmask 1110010000010000
          -43 -259 rlineto
          -71 -80 callsubr
          483 hlineto
          -353 353 rmoveto
          -131 hlineto
          153 286 rlineto
          hintmask 0010000010000000
          26 hlineto
          hintmask 0100000100000000
          hintmask 0001100000000000
          205 202 -99 callsubr
        </CharString>
        <CharString name="Aacute">
          -29 callsubr
          81 166 callgsubr
          hintmask 11100000
          -107 callsubr
          hintmask 00011000
          241 348 -99 callsubr
        </CharString>
        <CharString name="Abreve">
          -29 callsubr
          60 62 125 -27 callsubr
          endchar
        </CharString>
        <CharString name="Abreveacute">
          -29 callsubr
          60 62 336 -27 callsubr
          -30 138 -99 callsubr
        </CharString>
        <CharString name="Abrevedotbelow">
          97 callgsubr
          60 191 callgsubr
          hstemhm
          279 157 hintmask 01111100
          -107 callsubr
          -6 callgsubr
          hintmask 10000010
          -253 -1047 -104 callsubr
        </CharString>
        <CharString name="Abrevegrave">
          -29 callsubr
          60 62 125 -27 callsubr
          -40 73 121 callgsubr
          12 -9 -13 9 hvcurveto
          endchar
        </CharString>
        <CharString name="Abrevehookabove">
          -29 callsubr
          60 62 333 -27 callsubr
          -35 145 -101 callsubr
        </CharString>
        <CharString name="Abrevetilde">
          756 980 75 -53 62 -53 75 hstemhm
          cntrmask 11100000
          -107 callsubr
          hintmask 11100000
          -6 callgsubr
          33 139 156 callsubr
          -29 hvcurveto
          24 callgsubr
          -41 callsubr
          28 27 26 -71 callsubr
          -38 callsubr
          120 callgsubr
          3 hvcurveto
          endchar
        </CharString>
        <CharString name="Acaron">
          -29 callsubr
          71 -21 165 -20 hstemhm
          hintmask 11100000
          -107 callsubr
          hintmask 00011000
          283 376 -65 callsubr
        </CharString>
        <CharString name="Acircumflex">
          -29 callsubr
          71 -21 165 -20 hstemhm
          hintmask 11100000
          -107 callsubr
          hintmask 00011000
          110 callsubr
          endchar
        </CharString>
        <CharString name="Acircumflexacute">
          -29 callsubr
          71 -21 376 -20 hstemhm
          hintmask 11100000
          -107 callsubr
          hintmask 00011000
          263 259 -12 callsubr
          19 -38 152 60 14 6 24 10 10 27 rlinecurve
          endchar
        </CharString>
        <CharString name="Acircumflexdotbelow">
          97 callgsubr
          71 -21 165 -20 hstemhm
          279 157 hintmask 01111100
          -107 callsubr
          110 callsubr
          hintmask 10000010
          -222 -850 -104 callsubr
        </CharString>
        <CharString name="Acircumflexgrave">
          -29 callsubr
          71 -21 165 -20 hstemhm
          hintmask 11100000
          -107 callsubr
          hintmask 00011000
          263 259 -22 callgsubr
        </CharString>
        <CharString name="Acircumflexhookabove">
          -29 callsubr
          71 -21 373 -20 hstemhm
          hintmask 11100000
          -107 callsubr
          hintmask 00011000
          110 callsubr
          87 310 -103 callsubr
        </CharString>
        <CharString name="Acircumflextilde">
          -29 callsubr
          71 -21 220 130 callgsubr
          hintmask 11100000
          -107 callsubr
          hintmask 00010100
          263 259 95 callgsubr
          hintmask 00001000
          -28 -26 -27 -16 callgsubr
          hintmask 00000100
          33 callsubr
          hintmask 00001000
          -35 callsubr
          hintmask 00000100
          28 26 27 -71 callsubr
          hintmask 00001000
          -38 callsubr
          hintmask 00000100
          5 callgsubr
        </CharString>
        <CharString name="Adblgrave">
          -29 callsubr
          81 55 callgsubr
          hintmask 11100000
          -107 callsubr
          hintmask 00011000
          193 266 -73 callgsubr
        </CharString>
        <CharString name="Adieresis">
          -29 callsubr
          50 140 hstemhm
          288 141 165 141 hintmask 11100000
          -107 callsubr
          hintmask 00011100
          14 305 -87 callsubr
        </CharString>
        <CharString name="Adotbelow">
          97 callgsubr
          hstemhm
          279 157 hintmask 01110000
          -107 callsubr
          hintmask 10001000
          21 -615 -104 callsubr
        </CharString>
        <CharString name="Agrave">
          -29 callsubr
          81 166 callgsubr
          hintmask 11100000
          -107 callsubr
          hintmask 00011000
          162 283 -79 callgsubr
        </CharString>
        <CharString name="Ahookabove">
          -29 callsubr
          82 188 callgsubr
          hintmask 11100000
          -107 callsubr
          hintmask 00011000
          205 376 -103 callsubr
        </CharString>
        <CharString name="Alpha">
          -29 callsubr
          hstem
          -107 callsubr
          endchar
        </CharString>
        <CharString name="Amacron">
          -29 callsubr
          70 52 hstemhm
          hintmask 11100000
          -107 callsubr
          hintmask 00010000
          268 255 -60 callsubr
        </CharString>
        <CharString name="Aogonek">
          756 -204 66 138 47 -45 47 133 47 469 -37 callsubr
          endchar
        </CharString>
        <CharString name="Aogonekacute">
          756 -204 66 138 47 -45 47 133 47 469 -20 81 -21 176 -37 callsubr
          hintmask 00000110
          241 348 -99 callsubr
        </CharString>
        <CharString name="Aring">
          756 0 30 callsubr
          41 86 41 hstemhm
          hintmask 11100000
          -107 callsubr
          hintmask 00110000
          146 289 -76 callgsubr
          -36 -45 -38 -7 -8 callsubr
          endchar
        </CharString>
        <CharString name="Aringacute">
          756 0 30 callsubr
          41 86 41 211 -20 hstemhm
          hintmask 11100000
          -107 callsubr
          hintmask 00111000
          146 289 -76 callgsubr
          -36 -45 -38 -7 -8 callsubr
          33 221 rmoveto
          38 13 -22 19 callsubr
        </CharString>
        <CharString name="Atilde">
          -29 callsubr
          50 130 callgsubr
          hintmask 11100000
          -107 callsubr
          hintmask 00001000
          265 319 -55 callsubr
        </CharString>
        <CharString name="B">
          -42 callsubr
        </CharString>
        <CharString name="Beta">
          -42 callsubr
        </CharString>
        <CharString name="C">
          91 callsubr
          hstem
          135 callgsubr
          257 153 vstem
          -89 callgsubr
          -223 -37 129 -131 201 hhcurveto
          163 116 131 107 18 hvcurveto
          endchar
        </CharString>
        <CharString name="Cacute">
          91 callsubr
          62 -21 176 -20 129 callgsubr
          257 153 hintmask 11001100
          -89 callgsubr
          -223 -37 129 -131 201 hhcurveto
          163 116 131 107 18 hvcurveto
          hintmask 00110000
          -28 614 -99 callsubr
        </CharString>
        <CharString name="Ccaron">
          91 callsubr
          52 -21 165 -20 129 callgsubr
          257 153 hintmask 11001100
          -89 callgsubr
          -223 -37 129 -131 201 hhcurveto
          163 116 131 107 18 hvcurveto
          hintmask 00110000
          14 642 -65 callsubr
        </CharString>
        <CharString name="Ccedilla">
          91 callsubr
          129 callgsubr
          -35 153 139 153 hintmask 11101000
          -89 callgsubr
          -33 -201 101 -126 167 -23 -13 -74 rcurveline
          hintmask 00010000
          32 callsubr
          4 24 144 18 99 119 17 99 rlinecurve
          endchar
        </CharString>
        <CharString name="Ccircumflex">
          91 callsubr
          52 -21 165 -20 129 callgsubr
          257 153 hintmask 11001100
          -89 callgsubr
          -223 -37 129 -131 201 hhcurveto
          163 116 131 107 18 hvcurveto
          hintmask 00110000
          -6 525 -54 callsubr
        </CharString>
        <CharString name="Cdotaccent">
          91 callsubr
          42 156 129 callgsubr
          188 157 -88 153 hintmask 11010100
          -89 callgsubr
          -223 -37 129 -131 201 hhcurveto
          163 116 131 107 18 hvcurveto
          hintmask 00101000
          -92 590 -49 callgsubr
        </CharString>
        <CharString name="Chi">
          -43 callgsubr
        </CharString>
        <CharString name="D">
          767 0 110 callgsubr
          hintmask 01011000
          -8 callgsubr
          hintmask 10100110
          4 callgsubr
          hintmask 10101000
          85 callsubr
          hintmask 01010010
          99 592 124 callsubr
        </CharString>
        <CharString name="Dcaron">
          767 84 callgsubr
          63 -21 165 -20 34 callsubr
          2 147 -114 147 66 147 hintmask 0100011000000000
          -8 callgsubr
          hintmask 1000100110000000
          4 callgsubr
          hintmask 1000101000000000
          85 callsubr
          hintmask 0100010010000000
          99 592 20 callgsubr
          hintmask 0011000000000000
          15 532 -65 callsubr
        </CharString>
        <CharString name="Dcroat">
          -45 callgsubr
        </CharString>
        <CharString name="Ddotbelow">
          767 192 callsubr
          136 136 -57 157 -137 136 2 147 -114 147 66 147 hintmask 0010011000000000
          -8 callgsubr
          hintmask 0101000110000000
          4 callgsubr
          hintmask 0101001000000000
          85 callsubr
          hintmask 0010010010000000
          99 592 20 callgsubr
          hintmask 1000100000000000
          -247 -459 -104 callsubr
        </CharString>
        <CharString name="Delta">
          833 0 121 577 -20 hstem
          784 13 rmoveto
          0 1 3 -4 10 vhcurveto
          -211 647 rlineto
          24 -8 -10 1 -20 hhcurveto
          -24 -7 -4 -20 -14 hvcurveto
          -428 -648 rlineto
          -6 -10 -1 -3 0 vvcurveto
          -13 -2 10 0 16 hhcurveto
          680 hlineto
          16 10 0 13 2 hvcurveto
          -192 108 rmoveto
          -411 hlineto
          275 417 rlineto
          endchar
        </CharString>
        <CharString name="Dlinebelow">
          767 -148 52 96 110 callgsubr
          hintmask 00101100
          -8 callgsubr
          hintmask 01010011
          4 callgsubr
          hintmask 01010100
          85 callsubr
          hintmask 00101001
          99 592 20 callgsubr
          hintmask 10000000
          -149 -485 -60 callsubr
        </CharString>
        <CharString name="E">
          -25 callsubr
        </CharString>
        <CharString name="Eacute">
          0 callgsubr
          79 -21 176 -20 -103 callgsubr
          hintmask 0001100000000000
          25 841 -99 callsubr
        </CharString>
        <CharString name="Ebreve">
          0 callgsubr
          58 191 callgsubr
          -103 callgsubr
          hintmask 0001100000000000
          58 925 153 callsubr
          -16 -69 -96 callgsubr
          endchar
        </CharString>
        <CharString name="Ecaron">
          0 callgsubr
          69 -21 165 -20 -103 callgsubr
          hintmask 0001100000000000
          67 869 -65 callsubr
        </CharString>
        <CharString name="Ecircumflex">
          0 callgsubr
          69 -21 165 -20 -103 callgsubr
          hintmask 0001100100000000
          47 113 callsubr
        </CharString>
        <CharString name="Ecircumflexacute">
          0 callgsubr
          69 -21 376 -20 -103 callgsubr
          hintmask 0001100100000000
          47 752 -12 callsubr
          19 -38 152 60 14 6 24 10 10 27 rlinecurve
          endchar
        </CharString>
        <CharString name="Ecircumflexdotbelow">
          656 -200 156 44 25 callsubr
          69 -21 165 -20 28 callgsubr
          -49 157 -152 142 -98 47 8 142 -53 47 0 47 109 47 -46 47 hintmask 0110000001010010
          673 274 rmoveto
          -47 hlineto
          -130 -43 -36 -97 -166 hhcurveto
          -103 hlineto
          47 282 rlineto
          22 hlineto
          91 -3 -44 -73 -13 hvcurveto
          47 hlineto
          hintmask 0010000000001000
          47 281 rlineto
          -47 hlineto
          -73 -12 -11 -44 -91 hhcurveto
          hintmask 0010000000100000
          -22 hlineto
          hintmask 0001000010000000
          43 257 rlineto
          hintmask 0001000000100100
          99 hlineto
          155 -1 -82 -112 -4 hvcurveto
          47 hlineto
          9 241 rlineto
          -534 94 callgsubr
          hintmask 0001000010000000
          94 hlineto
          hintmask 0100111000000010
          -36 callsubr
          547 hlineto
          57 callsubr
          hintmask 1000000100000000
          -222 -850 -104 callsubr
        </CharString>
        <CharString name="Ecircumflexgrave">
          0 callgsubr
          69 -21 165 -20 -103 callgsubr
          hintmask 0001100101000000
          47 752 -22 callgsubr
        </CharString>
        <CharString name="Ecircumflexhookabove">
          0 callgsubr
          69 -21 373 -20 -103 callgsubr
          hintmask 0001100100001000
          57 callsubr
          87 310 -103 callsubr
        </CharString>
        <CharString name="Ecircumflextilde">
          0 callgsubr
          69 -21 220 75 -44 75 28 callgsubr
          -44 142 -98 47 8 142 -53 47 0 47 109 47 -46 47 hintmask 1100000010100100
          673 274 rmoveto
          -47 hlineto
          -130 -43 -36 -97 -166 hhcurveto
          -103 hlineto
          47 282 rlineto
          22 hlineto
          91 -3 -44 -73 -13 hvcurveto
          47 hlineto
          hintmask 0100000000010000
          47 281 rlineto
          -47 hlineto
          -73 -12 -11 -44 -91 hhcurveto
          hintmask 0100000001000000
          -22 hlineto
          hintmask 0010000100000000
          43 257 rlineto
          hintmask 0010000001001000
          99 hlineto
          155 -1 -82 -112 -4 hvcurveto
          47 hlineto
          9 241 rlineto
          -534 94 callgsubr
          hintmask 0010000100000000
          94 hlineto
          hintmask 1000001000000100
          -36 callsubr
          547 hlineto
          hintmask 0001010010000000
          47 752 rmoveto
          -151 141 -199 -141 10 -24 170 58 150 -58 rlineto
          59 304 12 callsubr
        </CharString>
        <CharString name="Edblgrave">
          0 callgsubr
          79 -21 195 -20 -103 callgsubr
          hintmask 0001100000000000
          5 759 -73 callgsubr
        </CharString>
        <CharString name="Edieresis">
          0 callgsubr
          48 140 28 callgsubr
          -44 142 -138 141 -101 47 8 142 -53 47 0 47 28 141 -60 47 -46 47 hintmask 1100000101000100
          673 274 rmoveto
          -47 hlineto
          -130 -43 -36 -97 -166 hhcurveto
          -103 hlineto
          47 282 rlineto
          22 hlineto
          91 -3 -44 -73 -13 hvcurveto
          47 hlineto
          hintmask 0100000000100000
          47 281 rlineto
          -47 hlineto
          -73 -12 -11 -44 -91 hhcurveto
          hintmask 0100000010000000
          -22 hlineto
          hintmask 0010010000000000
          43 257 rlineto
          hintmask 0010000010001000
          41 callsubr
          hintmask 1000100000000100
          -36 callsubr
          547 hlineto
          hintmask 0001001000000100
          -202 798 rmoveto
          -106 callsubr
          306 hmoveto
          38 6 -26 32 -39 hhcurveto
          hintmask 0001000000010000
          -42 -34 -34 -36 -6 hvcurveto
          -38 -7 26 -32 39 hhcurveto
          42 35 34 36 6 hvcurveto
          endchar
        </CharString>
        <CharString name="Edotaccent">
          0 callgsubr
          59 156 28 callgsubr
          -44 142 -98 47 8 142 -90 157 -120 47 0 47 109 47 -46 47 hintmask 1100001001001000
          673 274 rmoveto
          -47 hlineto
          -130 -43 -36 -97 -166 hhcurveto
          -103 hlineto
          47 282 rlineto
          22 hlineto
          91 -3 -44 -73 -13 hvcurveto
          47 hlineto
          hintmask 0100000000100000
          47 281 rlineto
          -47 hlineto
          -73 -12 -11 -44 -91 hhcurveto
          hintmask 0100000100000000
          -22 hlineto
          hintmask 0010010000000000
          43 257 rlineto
          hintmask 0010000100010000
          41 callsubr
          hintmask 1000100000001000
          -36 callsubr
          547 hlineto
          hintmask 0001000010000000
          -39 817 -49 callgsubr
        </CharString>
        <CharString name="Edotbelow">
          656 -200 156 44 25 callsubr
          28 callgsubr
          -49 157 -152 142 -98 47 8 142 -53 47 0 47 109 47 -46 47 hintmask 0110000101001000
          673 274 rmoveto
          -47 hlineto
          -130 -43 -36 -97 -166 hhcurveto
          -103 hlineto
          47 282 rlineto
          22 hlineto
          91 -3 -44 -73 -13 hvcurveto
          47 hlineto
          hintmask 0010000000100000
          47 281 rlineto
          -47 hlineto
          -73 -12 -11 -44 -91 hhcurveto
          hintmask 0010000010000000
          -22 hlineto
          hintmask 0001001000000000
          43 257 rlineto
          hintmask 0001000010010000
          99 hlineto
          155 -1 -82 -112 -4 hvcurveto
          47 hlineto
          9 241 rlineto
          -534 94 callgsubr
          hintmask 0001001000000000
          94 hlineto
          hintmask 0100100000001000
          -36 callsubr
          547 hlineto
          hintmask 1000010000000000
          -195 -122 -104 callsubr
        </CharString>
        <CharString name="Egrave">
          0 callgsubr
          79 -21 176 -20 -103 callgsubr
          hintmask 0001100000000000
          -54 776 -79 callgsubr
        </CharString>
        <CharString name="Ehookabove">
          0 callgsubr
          80 -21 193 -20 -103 callgsubr
          hintmask 0001101000000000
          -11 869 -103 callsubr
        </CharString>
        <CharString name="Emacron">
          0 callgsubr
          68 52 28 callgsubr
          -44 142 -98 47 8 142 -53 47 0 47 109 47 -46 47 hintmask 1100001010010000
          673 274 rmoveto
          -47 hlineto
          -130 -43 -36 -97 -166 hhcurveto
          -103 hlineto
          47 282 rlineto
          22 hlineto
          91 -3 -44 -73 -13 hvcurveto
          47 hlineto
          hintmask 0100000001000000
          47 281 rlineto
          -47 hlineto
          -73 -12 -11 -44 -91 hhcurveto
          hintmask 0100000100000000
          -22 hlineto
          hintmask 0010010000000000
          43 257 rlineto
          hintmask 0010000100100000
          41 callsubr
          hintmask 1000100000010000
          -36 callsubr
          547 hlineto
          hintmask 0001000000000000
          52 748 -60 callsubr
        </CharString>
        <CharString name="Eng">
          783 -11 126 -115 189 callgsubr
          -37 48 21 callgsubr
          -8 152 102 152 hintmask 00010100
          774 343 rmoveto
          184 31 -86 170 -172 hhcurveto
          -61 -60 -20 -34 -50 hvcurveto
          hintmask 00101000
          7 43 rlineto
          -2 -24 -23 -1 -24 hhcurveto
          -41 -93 59 callsubr
          hintmask 00100100
          99 hlineto
          hintmask 01001010
          -74 callsubr
          hintmask 01000100
          -75 callsubr
          hintmask 01011001
          -99 hlineto
          89 533 rlineto
          43 46 63 26 64 hhcurveto
          124 -17 -162 -144 -24 hvcurveto
          -13 -78 -16 -96 -19 -64 rrcurveto
          hintmask 10000011
          6 -9 -11 4 -13 hhcurveto
          -35 -32 -28 -35 -6 hvcurveto
          -35 -6 23 -28 35 hhcurveto
          149 77 182 172 28 hvcurveto
          endchar
        </CharString>
        <CharString name="Eogonek">
          656 -204 66 138 25 callsubr
          hstem
          381 142 -101 47 -34 47 cntrmask 00001110
          673 274 rmoveto
          -47 hlineto
          -130 -43 -36 -97 -166 hhcurveto
          -103 hlineto
          47 282 rlineto
          22 hlineto
          91 -3 -44 -73 -13 hvcurveto
          47 hlineto
          47 281 rlineto
          -47 hlineto
          -73 -12 -11 -44 -91 hhcurveto
          -22 hlineto
          43 257 rlineto
          99 hlineto
          155 -1 -82 -112 -4 hvcurveto
          47 hlineto
          9 241 rlineto
          -534 -31 callsubr
          -36 callsubr
          400 hlineto
          -39 -24 -43 -46 -7 -44 -56 callgsubr
          -68 -2 94 44 100 hvcurveto
          69 hlineto
          endchar
        </CharString>
        <CharString name="Eogonekacute">
          656 -204 66 138 25 callsubr
          79 -21 176 -20 28 callgsubr
          -44 142 -98 47 8 142 -94 142 -101 47 -34 47 -13 47 109 47 -46 47 hintmask 0110000010100001
          673 274 rmoveto
          -47 hlineto
          -130 -43 -36 -97 -166 hhcurveto
          -103 hlineto
          47 282 rlineto
          22 hlineto
          hintmask 0000000000010000
          91 -3 -44 -73 -13 hvcurveto
          47 hlineto
          hintmask 0010000000000100
          47 281 rlineto
          -47 hlineto
          -73 -12 -11 -44 -91 hhcurveto
          hintmask 0010000001000000
          -22 hlineto
          hintmask 0001000100000000
          43 257 rlineto
          hintmask 0001000001000010
          99 hlineto
          155 -1 -82 -112 -4 hvcurveto
          47 hlineto
          9 241 rlineto
          -534 94 callgsubr
          hintmask 0001000100000000
          94 hlineto
          hintmask 1100001000001000
          -36 callsubr
          400 hlineto
          -39 -24 -43 -46 -7 -44 rrcurveto
          36 callsubr
          37 callgsubr
          6 6 1 15 -6 7 rrcurveto
          hintmask 0000000000100000
          -6 6 -13 3 -10 -6 rrcurveto
          hintmask 1100000000001001
          186 callgsubr
          -2 94 44 100 hvcurveto
          69 hlineto
          hintmask 0000110000000000
          25 841 -99 callsubr
        </CharString>
        <CharString name="Epsilon">
          -25 callsubr
        </CharString>
        <CharString name="Ereversed">
          0 callgsubr
          hstemhm
          80 47 8 47 80 47 0 47 43 47 -47 142 -44 142 hintmask 1000000010000000
          627 hmoveto
          76 callsubr
          hintmask 0110101001000000
          98 586 22 callgsubr
          -534 hlineto
          -71 -241 rlineto
          47 hlineto
          112 34 27 82 155 hhcurveto
          99 hlineto
          -43 -257 rlineto
          -22 hlineto
          -91 3 44 73 12 hvcurveto
          -47 hlineto
          hintmask 1101010100000000
          -47 -281 rlineto
          47 hlineto
          73 13 11 44 91 hhcurveto
          22 hlineto
          -47 -282 rlineto
          -103 hlineto
          -166 -4 97 130 1 hvcurveto
          -47 -274 hlineto
          endchar
        </CharString>
        <CharString name="Eta">
          193 callsubr
          28 callgsubr
          -43 142 49 142 -48 45 callgsubr
          hintmask 10000010
          53 callgsubr
          hintmask 01101001
          99 592 -85 callgsubr
          -44 -259 rlineto
          -242 hlineto
          44 259 -85 callgsubr
          hintmask 11010100
          -99 -592 rlineto
          -83 callsubr
          8 47 rlineto
          -94 hlineto
          48 286 190 callgsubr
          hintmask 10000010
          -48 -286 rlineto
          hintmask 10000100
          -83 callsubr
          endchar
        </CharString>
        <CharString name="Eth">
          -45 callgsubr
        </CharString>
        <CharString name="Etilde">
          0 callgsubr
          48 75 -44 75 -103 callgsubr
          hintmask 0000100000000000
          49 812 -31 callgsubr
        </CharString>
        <CharString name="Euro">
          627 -11 48 216 48 84 48 216 48 hstem
          169 152 vstem
          572 3 rmoveto
          22 137 rlineto
          8 2 -6 6 -7 hhcurveto
          -24 hlineto
          -8 -6 -5 -7 -2 hvcurveto
          -56 -16 -46 -49 -53 hhcurveto
          -52 -42 31 47 -17 hvcurveto
          -15 39 0 49 6 50 rrcurveto
          191 141 callgsubr
          -198 hlineto
          7 42 7 42 rlineto
          228 141 callgsubr
          -231 hlineto
          11 50 16 49 28 39 rrcurveto
          47 32 53 31 52 hhcurveto
          53 30 -49 -56 -3 hvcurveto
          -7 -1 5 -5 8 hhcurveto
          24 hlineto
          7 8 6 8 1 hvcurveto
          23 137 rlineto
          8 1 -5 6 -8 hhcurveto
          -7 hlineto
          -3 -2 -1 -1 -3 hvcurveto
          -47 -28 rlineto
          19 -25 -31 11 -36 hhcurveto
          -82 -84 -34 -64 -62 hvcurveto
          -47 -48 -32 -57 -21 -61 rrcurveto
          -46 140 callsubr
          46 hlineto
          -4 -14 -2 -14 -3 -14 -2 -14 -2 -14 -1 -14 rrcurveto
          -41 140 callsubr
          51 hlineto
          1 -61 12 -57 31 -48 rrcurveto
          -64 41 73 -34 82 hhcurveto
          36 35 11 19 31 hvcurveto
          38 -28 rlineto
          -1 2 2 -1 3 hhcurveto
          7 hlineto
          8 7 6 8 2 hvcurveto
          endchar
        </CharString>
        <CharString name="F">
          628 0 47 270 47 269 148 callgsubr
          38 47 0 47 103 47 hintmask 00101000
          658 439 rmoveto
          9 241 rlineto
          -520 -31 callsubr
          hintmask 11010100
          87 callgsubr
          45 270 rlineto
          17 hlineto
          89 -2 -41 -76 -13 hvcurveto
          47 hlineto
          hintmask 01101011
          47 281 rlineto
          -47 hlineto
          -76 -12 -12 -41 -89 hhcurveto
          -17 hlineto
          45 269 rlineto
          90 hlineto
          152 -2 -84 -110 -5 hvcurveto
          endchar
        </CharString>
        <CharString name="G">
          63 callgsubr
          58 callgsubr
          hintmask 01000001
          773 229 92 callsubr
          -3 -37 -72 0 -40 hhcurveto
          -48 -95 0 3 -44 80 callgsubr
          125 hlineto
          hintmask 10010010
          -17 -101 rlineto
          -79 -13 -68 -13 -29 hhcurveto
          -48 -80 17 75 -36 hvcurveto
          -28 63 12 84 11 68 9 54 17 98 50 62 rrcurveto
          hintmask 00100100
          82 67 83 11 43 hhcurveto
          hintmask 00100010
          78 77 -59 -149 -3 hvcurveto
          -16 -1 7 0 17 hhcurveto
          26 1 2 26 5 hvcurveto
          36 215 rlineto
          19 3 1 9 -18 hhcurveto
          -9 -2 -2 -7 -9 hvcurveto
          hintmask 00000100
          -67 -53 rlineto
          hintmask 10111000
          -72 callsubr
          hintmask 01000001
          33 201 rlineto
          endchar
        </CharString>
        <CharString name="Gacute">
          63 callgsubr
          62 -21 176 -92 callgsubr
          hintmask 0001100000000000
          -33 612 -99 callsubr
        </CharString>
        <CharString name="Gamma">
          600 0 47 586 148 callgsubr
          hintmask 01010000
          630 439 rmoveto
          9 241 rlineto
          -492 -31 callsubr
          hintmask 10100000
          87 callgsubr
          hintmask 01010000
          98 586 rlineto
          72 hlineto
          143 -4 -83 -111 -4 hvcurveto
          endchar
        </CharString>
        <CharString name="Gbreve">
          63 callgsubr
          41 62 125 -92 callgsubr
          hintmask 0001100001000000
          696 vmoveto
          -36 hlineto
          -82 -16 -69 -96 callgsubr
          endchar
        </CharString>
        <CharString name="Gcaron">
          63 callgsubr
          52 -21 165 -92 callgsubr
          hintmask 0001100000000000
          9 640 -65 callsubr
        </CharString>
        <CharString name="Gcedilla">
          -51 callsubr
          hintmask 1101000001000000
          33 201 rlineto
          -269 -356 -101 callgsubr
        </CharString>
        <CharString name="Gcircumflex">
          63 callgsubr
          52 -21 165 -92 callgsubr
          hintmask 0001100000000000
          -11 523 -54 callsubr
        </CharString>
        <CharString name="Gcommaaccent">
          -51 callsubr
          hintmask 0001000001000000
          33 201 rlineto
          hintmask 1100000000000000
          -269 -356 -101 callgsubr
        </CharString>
        <CharString name="Gdotaccent">
          63 callgsubr
          42 156 129 callgsubr
          184 157 -83 3 callgsubr
          hintmask 0100000001000000
          773 229 92 callsubr
          -3 -37 -72 0 -40 hhcurveto
          -48 -95 0 3 -44 80 callgsubr
          125 hlineto
          hintmask 1000100010000000
          -17 -101 rlineto
          -79 -13 -68 -13 -29 hhcurveto
          -48 -80 17 75 -36 hvcurveto
          -28 63 12 84 11 68 9 54 17 98 50 62 rrcurveto
          hintmask 0010000100000000
          82 67 83 11 43 hhcurveto
          hintmask 0010000010000000
          78 77 -59 -149 -3 hvcurveto
          -16 -1 7 0 17 hhcurveto
          26 1 2 26 5 hvcurveto
          36 215 rlineto
          19 3 1 9 -18 hhcurveto
          -9 -2 -2 -7 -9 hvcurveto
          hintmask 0000000100000000
          -67 -53 rlineto
          hintmask 1010101000000000
          -50 callgsubr
          hintmask 0001010000000000
          -97 588 -49 callgsubr
        </CharString>
        <CharString name="H">
          193 callsubr
          28 callgsubr
          -43 142 49 142 -48 45 callgsubr
          hintmask 10000010
          53 callgsubr
          hintmask 01101001
          99 592 -85 callgsubr
          -44 -259 rlineto
          -242 hlineto
          44 259 -85 callgsubr
          hintmask 11010100
          -99 -592 rlineto
          -83 callsubr
          8 47 rlineto
          -94 hlineto
          48 286 190 callgsubr
          hintmask 10000010
          -48 -286 rlineto
          hintmask 10000100
          -83 callsubr
          endchar
        </CharString>
        <CharString name="H_uni0303">
          193 callsubr
          42 75 -44 75 9 callsubr
          49 142 -48 45 callgsubr
          hintmask 1000000010000000
          53 callgsubr
          hintmask 0110001001000000
          99 592 -85 callgsubr
          -44 -259 rlineto
          -242 hlineto
          44 259 -85 callgsubr
          hintmask 1100010100000000
          -99 -592 rlineto
          -83 callsubr
          8 47 rlineto
          -94 hlineto
          48 286 190 callgsubr
          hintmask 1000000010000000
          -48 -286 rlineto
          hintmask 1000000100000000
          -83 callsubr
          hintmask 0000100000000000
          -54 812 -31 callgsubr
        </CharString>
        <CharString name="Hbar">
          150 callsubr
          111 48 100 47 28 callgsubr
          -68 142 -134 142 -125 142 49 142 -48 142 -68 142 -134 142 -125 142 hintmask 1000000001000000
          53 callgsubr
          hintmask 0010000000100000
          74 444 rlineto
          94 179 callsubr
          hintmask 0010000000010000
          -94 hlineto
          hintmask 0001000000001000
          17 100 -85 callgsubr
          hintmask 0010001000010000
          -17 -100 rlineto
          -242 hlineto
          hintmask 0001000100000000
          17 100 -85 callgsubr
          hintmask 0010001000000000
          -17 -100 rlineto
          -94 135 callsubr
          hintmask 0010010000000000
          94 hlineto
          hintmask 1100100010000000
          -74 -444 rlineto
          -83 callsubr
          8 47 rlineto
          -94 hlineto
          48 286 190 callgsubr
          hintmask 1000000001000000
          -48 -286 rlineto
          hintmask 1110010010100000
          -83 callsubr
          -173 380 rmoveto
          -242 hlineto
          19 111 190 callgsubr
          endchar
        </CharString>
        <CharString name="Hbrevebelow">
          783 -215 191 callgsubr
          48 160 callgsubr
          259 44 callgsubr
          49 142 -48 45 callgsubr
          hintmask 0010000010000000
          53 callgsubr
          hintmask 0001101001000000
          99 592 -85 callgsubr
          -44 -259 rlineto
          -242 hlineto
          44 259 -85 callgsubr
          hintmask 0011010100000000
          -99 -592 rlineto
          -83 callsubr
          8 47 rlineto
          -94 hlineto
          48 286 190 callgsubr
          hintmask 0010000010000000
          -48 -286 rlineto
          hintmask 0010000100000000
          -83 callsubr
          hintmask 1100000000000000
          -204 -28 153 callsubr
          -15 -70 -96 callgsubr
          endchar
        </CharString>
        <CharString name="Hcircumflex">
          193 callsubr
          63 -21 165 -20 9 callsubr
          49 142 -48 45 callgsubr
          hintmask 1000000010000000
          53 callgsubr
          hintmask 0110001001000000
          99 592 -85 callgsubr
          -44 -259 rlineto
          -242 hlineto
          44 259 -85 callgsubr
          hintmask 1100010100000000
          -99 -592 rlineto
          -83 callsubr
          8 47 rlineto
          -94 hlineto
          48 286 190 callgsubr
          hintmask 1000000010000000
          -48 -286 rlineto
          hintmask 1000000100000000
          -83 callsubr
          hintmask 0001100000000000
          -56 113 callsubr
        </CharString>
        <CharString name="Hdieresis">
          193 callsubr
          42 140 9 callsubr
          -75 141 -17 142 -48 142 -54 141 -130 142 hintmask 1000000010000000
          53 callgsubr
          hintmask 0110010000100000
          99 592 -85 callgsubr
          -44 -259 rlineto
          -242 hlineto
          44 259 -85 callgsubr
          hintmask 1100100100000000
          -99 -592 rlineto
          -83 callsubr
          8 47 rlineto
          -94 hlineto
          48 286 190 callgsubr
          hintmask 1000000010000000
          -48 -286 rlineto
          hintmask 1000000100000000
          -83 callsubr
          hintmask 0001001001000000
          -305 798 -87 callsubr
        </CharString>
        <CharString name="Hdotbelow">
          783 50 callgsubr
          286 47 259 44 callgsubr
          -84 157 -24 142 -48 45 callgsubr
          hintmask 0100000010000000
          53 callgsubr
          hintmask 0011010001000000
          99 592 -85 callgsubr
          -44 -259 rlineto
          -242 hlineto
          44 259 -85 callgsubr
          hintmask 0110100100000000
          -99 -592 rlineto
          -83 callsubr
          8 47 rlineto
          -94 hlineto
          48 286 190 callgsubr
          hintmask 0100000010000000
          -48 -286 rlineto
          hintmask 0100000100000000
          -83 callsubr
          hintmask 1000001000000000
          -298 -122 -104 callsubr
        </CharString>
        <CharString name="I">
          7 callsubr
        </CharString>
        <CharString name="I_J">
          874 -11 36 -25 47 -5 149 448 47 21 callgsubr
          0 70 callgsubr
          hintmask 0100010000000000
          368 -45 callsubr
          hintmask 0101101000000000
          -99 hlineto
          160 callsubr
          99 hlineto
          130 callsubr
          hintmask 0001010000000000
          99 hlineto
          hintmask 0101100010000000
          -74 callsubr
          555 5 callsubr
          hintmask 1010001100000000
          -47 callgsubr
          hintmask 0001000010000000
          82 490 rlineto
          hintmask 0001000001000000
          endchar
        </CharString>
        <CharString name="Iacute">
          44 callsubr
          73 -21 176 -20 21 callgsubr
          -90 callgsubr
          hintmask 00110000
          109 841 -99 callsubr
        </CharString>
        <CharString name="Ibreve">
          44 callsubr
          52 191 callgsubr
          21 callgsubr
          -90 callgsubr
          hintmask 00110000
          142 925 153 callsubr
          -16 -69 -96 callgsubr
          endchar
        </CharString>
        <CharString name="Icaron">
          44 callsubr
          63 -21 165 -20 21 callgsubr
          -90 callgsubr
          hintmask 00110000
          151 869 -65 callsubr
        </CharString>
        <CharString name="Icircumflex">
          44 callsubr
          63 -21 165 -20 21 callgsubr
          -90 callgsubr
          hintmask 00110000
          131 113 callsubr
        </CharString>
        <CharString name="Idblgrave">
          44 callsubr
          73 -21 195 -20 21 callgsubr
          -90 callgsubr
          hintmask 00110000
          89 759 -73 callgsubr
        </CharString>
        <CharString name="Idieresis">
          44 callsubr
          42 140 146 callgsubr
          -90 callgsubr
          hintmask 00110010
          -118 798 -87 callsubr
        </CharString>
        <CharString name="Idieresisacute">
          44 callsubr
          42 140 73 -21 176 -20 146 callgsubr
          hintmask 1000000100000000
          368 -45 callsubr
          hintmask 1000001000000000
          -99 hlineto
          hintmask 0100000100000000
          160 callsubr
          99 27 callsubr
          -93 0 -41 hhcurveto
          -41 -93 114 callgsubr
          hintmask 0100001000000000
          -60 callgsubr
          hintmask 0100000100000000
          99 hlineto
          hintmask 1000001000000000
          -74 callsubr
          hintmask 0011110010000000
          -118 798 -97 callgsubr
          -49 225 -99 callsubr
        </CharString>
        <CharString name="Idotaccent">
          44 callsubr
          53 156 21 callgsubr
          -120 157 hintmask 10001000
          368 -45 callsubr
          hintmask 10010000
          -99 hlineto
          hintmask 01001000
          160 callsubr
          99 27 callsubr
          -93 0 -41 hhcurveto
          -41 -93 114 callgsubr
          hintmask 01010000
          -60 callgsubr
          hintmask 01001000
          99 hlineto
          hintmask 10010000
          -74 callsubr
          hintmask 00100100
          45 817 -49 callgsubr
        </CharString>
        <CharString name="Idotbelow">
          397 192 callsubr
          100 157 -122 45 callgsubr
          hintmask 01000100
          368 -45 callsubr
          hintmask 01001000
          -99 hlineto
          hintmask 00100100
          160 callsubr
          99 27 callsubr
          -93 0 -41 hhcurveto
          -41 -93 114 callgsubr
          hintmask 00101000
          -60 callgsubr
          hintmask 00100100
          99 hlineto
          hintmask 01001000
          -74 callsubr
          hintmask 10010000
          -111 -122 -104 callsubr
        </CharString>
        <CharString name="Igrave">
          44 callsubr
          73 -21 176 -20 21 callgsubr
          -90 callgsubr
          hintmask 00110100
          30 776 -79 callgsubr
        </CharString>
        <CharString name="Ihookabove">
          44 callsubr
          74 -21 193 -20 21 callgsubr
          -90 callgsubr
          hintmask 00110000
          73 869 -103 callsubr
        </CharString>
        <CharString name="Imacron">
          44 callsubr
          62 52 21 callgsubr
          hintmask 10001000
          368 -45 callsubr
          hintmask 10010000
          -99 hlineto
          hintmask 01001000
          160 callsubr
          99 27 callsubr
          -93 0 -41 hhcurveto
          -41 -93 114 callgsubr
          hintmask 01010000
          -60 callgsubr
          hintmask 01001000
          99 hlineto
          hintmask 10010000
          -74 callsubr
          hintmask 00100000
          136 748 -60 callsubr
        </CharString>
        <CharString name="Imacron.alt">
          44 callsubr
          62 52 21 callgsubr
          hintmask 10001000
          368 -45 callsubr
          hintmask 10010000
          -99 hlineto
          hintmask 01001000
          160 callsubr
          99 27 callsubr
          -93 0 -41 hhcurveto
          -41 -93 114 callgsubr
          hintmask 01010000
          -60 callgsubr
          hintmask 01001000
          99 hlineto
          hintmask 10010000
          -74 callsubr
          hintmask 00100000
          53 748 46 callgsubr
        </CharString>
        <CharString name="Iogonek">
          397 -204 66 138 189 callgsubr
          157 callgsubr
          hintmask 01000100
          368 -45 callsubr
          hintmask 01010000
          -99 hlineto
          hintmask 00100100
          160 callsubr
          99 hlineto
          hintmask 00110010
          130 callsubr
          hintmask 00100100
          99 hlineto
          hintmask 01010000
          196 callsubr
          -99 -80 callsubr
          hintmask 10001000
          115 callsubr
          hintmask 00000010
          37 callgsubr
          hintmask 11001000
          61 callgsubr
          endchar
        </CharString>
        <CharString name="Iogonekacute">
          397 -204 66 138 189 callgsubr
          73 -21 176 -20 157 callgsubr
          hintmask 0100000100000000
          368 -45 callsubr
          hintmask 0100010000000000
          -99 hlineto
          hintmask 0010000100000000
          160 callsubr
          99 hlineto
          hintmask 0010010010000000
          130 callsubr
          hintmask 0010000100000000
          99 hlineto
          hintmask 0100010000000000
          196 callsubr
          -99 -80 callsubr
          hintmask 1000001000000000
          115 callsubr
          hintmask 0000000010000000
          37 callgsubr
          hintmask 1100001000000000
          61 callgsubr
          hintmask 0001100000000000
          109 841 -99 callsubr
        </CharString>
        <CharString name="Iota">
          7 callsubr
        </CharString>
        <CharString name="Itilde">
          44 callsubr
          42 75 -44 75 21 callgsubr
          -90 callgsubr
          hintmask 00010000
          133 812 -54 callgsubr
        </CharString>
        <CharString name="J">
          139 callgsubr
          103 callgsubr
          hintmask 00100100
          566 5 callsubr
          hintmask 11011000
          -47 callgsubr
          hintmask 00100100
          82 490 rlineto
          hintmask 00100010
          endchar
        </CharString>
        <CharString name="J_uni030C.cap">
          516.66667 -11 36 17 149 254 -21 145 117 -47 47 103 callgsubr
          hintmask 0000100100000000
          566 5 callsubr
          hintmask 1100011000000000
          -47 callgsubr
          hintmask 0000100100000000
          82 490 rlineto
          hintmask 0000100010000000
          226 -47 rmoveto
          51 8 -17 43 -44 hhcurveto
          -34 -28 -26 -32 -5 hvcurveto
          hintmask 0011000000000000
          -30 -5 16 -29 38 hhcurveto
          19 15 8 6 7 hvcurveto
          -16 -72 -47 -43 -22 -17 -9 -6 -1 -2 -1 -4 rrcurveto
          -7 -1 7 -8 6 hhcurveto
          11 86 66 102 17 hvcurveto
          endchar
        </CharString>
        <CharString name="Jacute">
          139 callgsubr
          73 -21 176 -20 103 callgsubr
          hintmask 0010000100000000
          566 5 callsubr
          hintmask 1100011000000000
          -47 callgsubr
          hintmask 0010000100000000
          82 490 rlineto
          hintmask 0010000010000000
          hintmask 0001100000000000
          77 202 -99 callsubr
        </CharString>
        <CharString name="Jcircumflex">
          139 callgsubr
          63 -21 165 -20 103 callgsubr
          hintmask 0010000100000000
          566 5 callsubr
          hintmask 1100011000000000
          -47 callgsubr
          hintmask 0010000100000000
          82 490 rlineto
          hintmask 0010000010000000
          hintmask 0001100000000000
          99 113 -54 callsubr
        </CharString>
        <CharString name="K">
          783 0 47 592 44 callgsubr
          -63 142 hintmask 11010000
          -67 callsubr
          hintmask 10101000
          -46 callgsubr
          endchar
        </CharString>
        <CharString name="Kappa">
          783 0 47 592 44 callgsubr
          -63 142 hintmask 11010000
          -67 callsubr
          hintmask 10101000
          -46 callgsubr
          endchar
        </CharString>
        <CharString name="Kcedilla">
          783 169 callsubr
          28 callgsubr
          -43 142 -63 142 hintmask 00110100
          -67 callsubr
          hintmask 11101010
          -46 callgsubr
          -307 -127 -101 callgsubr
        </CharString>
        <CharString name="Kcommaaccent">
          783 169 callsubr
          28 callgsubr
          -43 142 -63 142 hintmask 00110100
          -67 callsubr
          hintmask 00101010
          -46 callgsubr
          hintmask 11000010
          -307 -127 -101 callgsubr
        </CharString>
        <CharString name="L">
          194 callgsubr
          28 callgsubr
          -43 142 hintmask 11010000
          -15 callsubr
          hintmask 00101000
          -53 callgsubr
          hintmask 11010000
          -44 callsubr
          492 hlineto
          endchar
        </CharString>
        <CharString name="L_uni0303">
          194 callgsubr
          42 75 -44 75 23 callgsubr
          hintmask 00001000
          -21 812 -55 callsubr
        </CharString>
        <CharString name="Lacute">
          194 callgsubr
          73 -21 176 -20 23 callgsubr
          hintmask 00011000
          -45 841 -99 callsubr
        </CharString>
        <CharString name="Lambda">
          700 0 47 651 -20 hstem
          664 -45 callsubr
          -74 hlineto
          -100 626 rlineto
          25 -4 -13 0 -15 hhcurveto
          -16 -13 0 -25 -12 hvcurveto
          -296 -603 rlineto
          -16 -8 -3 -7 -75 hhcurveto
          -61 callsubr
          2 31 36 1 31 hhcurveto
          116 -3 -75 callsubr
          -20 -33 0 10 -25 hvcurveto
          202 412 67 -422 rlineto
          -84 164 callsubr
          41 hhcurveto
          40 67 0 -3 36 hvcurveto
          endchar
        </CharString>
        <CharString name="Lcaron">
          128 callsubr
          191 -21 145 117 -47 47 86 callsubr
          hintmask 00001010
          -53 callgsubr
          hintmask 11001100
          -44 callsubr
          492 hlineto
          143 592 rmoveto
          51 8 -17 43 -44 hhcurveto
          -34 -28 -26 -32 -5 hvcurveto
          hintmask 00110000
          -30 -5 16 -29 38 hhcurveto
          19 15 8 6 7 hvcurveto
          -16 -72 -47 -43 -22 -17 -9 -6 -1 -2 -1 -4 rrcurveto
          -7 -1 7 -8 6 hhcurveto
          11 86 66 102 17 hvcurveto
          endchar
        </CharString>
        <CharString name="Lcedilla">
          600 17 callgsubr
          227 -20 385 44 callgsubr
          hintmask 00110100
          -15 callsubr
          hintmask 00001010
          -53 callgsubr
          hintmask 11110100
          -44 callsubr
          492 hlineto
          -184 -127 -101 callgsubr
        </CharString>
        <CharString name="Lcommaaccent">
          600 17 callgsubr
          227 -20 385 44 callgsubr
          hintmask 00110100
          -15 callsubr
          hintmask 00001010
          -53 callgsubr
          hintmask 00110100
          -44 callsubr
          492 hlineto
          hintmask 11000000
          -184 -127 -101 callgsubr
        </CharString>
        <CharString name="Ldot">
          128 callsubr
          96 156 133 44 callgsubr
          hintmask 11001000
          -15 callsubr
          hintmask 00010100
          -53 callgsubr
          hintmask 11101000
          -44 callsubr
          492 hlineto
          122 428 87 callsubr
        </CharString>
        <CharString name="Ldotbelow">
          600 50 callgsubr
          227 -20 385 47 28 callgsubr
          -77 157 -123 142 hintmask 01101000
          -15 callsubr
          hintmask 00010010
          -53 callgsubr
          hintmask 01101000
          -44 callsubr
          492 hlineto
          hintmask 10000100
          -168 -122 -104 callsubr
        </CharString>
        <CharString name="Ldotbelowmacron">
          600 50 callgsubr
          227 -20 385 47 62 52 28 callgsubr
          -77 157 -123 142 hintmask 01100100
          -15 callsubr
          hintmask 00010001
          -53 callgsubr
          hintmask 11100100
          -44 callsubr
          492 hlineto
          -168 -122 rmoveto
          -71 callgsubr
          hintmask 10000010
          -98 callsubr
          hintmask 00001000
          158 870 -60 callsubr
        </CharString>
        <CharString name="Lslash">
          600 84 callgsubr
          hstemhm
          149 45 callgsubr
          hintmask 10100000
          616 274 rmoveto
          -47 hlineto
          -72 -19 -43 -155 -150 hhcurveto
          -66 hlineto
          57 340 197 145 -27 36 -160 -117 rlineto
          hintmask 01010000
          32 188 40 callsubr
          -41 -99 0 -45 hhcurveto
          -40 -94 0 3 -35 hvcurveto
          -70 callgsubr
          -52 -311 -96 -71 25 -37 60 46 rlineto
          hintmask 10100000
          -36 -219 -63 callsubr
          492 hlineto
          endchar
        </CharString>
        <CharString name="M">
          -48 callgsubr
        </CharString>
        <CharString name="Mdotbelow">
          950 50 callgsubr
          -44 47 563 47 -21 47 153 callgsubr
          163 53 -34 157 171 125 -53 53 hintmask 0100100001000000
          915 hmoveto
          76 callsubr
          148 callsubr
          -208 hlineto
          -21 -11 0 -25 -13 hvcurveto
          -275 -503 rlineto
          hintmask 0001000000000000
          -107 502 rlineto
          hintmask 0010111000000000
          99 callsubr
          hintmask 0100000000000000
          -5 callgsubr
          hintmask 0010000000000000
          140 callgsubr
          hintmask 0100000000000000
          29 callgsubr
          hintmask 0011011000000000
          -21 -21 2 1 -7 hvcurveto
          -24 3 0 1 4 22 89 537 rcurveline
          1 hlineto
          126 -588 rlineto
          hintmask 0100000010000000
          -13 3 2 -12 21 hhcurveto
          20 6 13 12 7 hvcurveto
          331 604 rlineto
          1 hlineto
          -97 -582 -63 callsubr
          hintmask 0010000000000000
          3 36 82 0 39 hhcurveto
          hintmask 0100000000000000
          39 83 0 -3 34 hvcurveto
          hintmask 1000000100000000
          -382 -122 -104 callsubr
        </CharString>
        <CharString name="Mu">
          -48 callgsubr
        </CharString>
        <CharString name="N">
          -44 callgsubr
        </CharString>
        <CharString name="Nacute">
          40 callgsubr
          73 -21 176 -20 -79 callsubr
          hintmask 0000011000000000
          -165 202 -99 callsubr
        </CharString>
        <CharString name="Ncaron">
          40 callgsubr
          63 -21 165 -20 -79 callsubr
          hintmask 0000011000000000
          -123 230 -65 callsubr
        </CharString>
        <CharString name="Ncedilla">
          -46 callsubr
          hintmask 1100001000000000
          3 23 21 0 7 hhcurveto
          -401 -766 -101 callgsubr
        </CharString>
        <CharString name="Ncommaaccent">
          -46 callsubr
          hintmask 0000001000000000
          3 23 21 0 7 hhcurveto
          hintmask 1100000000000000
          -401 -766 -101 callgsubr
        </CharString>
        <CharString name="Ndotaccent">
          40 callgsubr
          42 156 153 callgsubr
          253 157 99 53 hintmask 0000100000000000
          855 18 callgsubr
          hintmask 0001000000000000
          -120 -3 rlineto
          hintmask 0110101010000000
          -64 callsubr
          hintmask 0110001000000000
          -21 -21 2 1 -7 hvcurveto
          -24 3 0 1 4 22 85 513 rcurveline
          323 -576 rlineto
          hintmask 1001000010000000
          -13 7 5 0 13 hhcurveto
          27 2 9 23 3 hvcurveto
          97 578 3 22 1 1 24 3 rlinecurve
          hintmask 0000100000000000
          3 23 21 0 7 hhcurveto
          hintmask 0000010100000000
          -231 167 -49 callgsubr
        </CharString>
        <CharString name="Ndotbelow">
          783 -200 156 44 62 callsubr
          153 callgsubr
          99 157 253 53 hintmask 0000010000000000
          855 18 callgsubr
          hintmask 0000100000000000
          -120 -3 rlineto
          hintmask 0011011010000000
          -86 callgsubr
          hintmask 0100000000000000
          -5 callgsubr
          hintmask 0010000000000000
          140 callgsubr
          hintmask 0100000000000000
          29 callgsubr
          hintmask 0011001000000000
          -21 -21 2 1 -7 hvcurveto
          -24 3 0 1 4 22 85 513 rcurveline
          323 -576 rlineto
          hintmask 0100100010000000
          -13 7 5 0 13 hhcurveto
          27 2 9 23 3 hvcurveto
          97 578 3 22 1 1 24 3 rlinecurve
          hintmask 0000010000000000
          3 23 21 0 7 hhcurveto
          hintmask 1000000100000000
          -385 -761 -104 callsubr
        </CharString>
        <CharString name="Ntilde">
          40 callgsubr
          42 75 -44 75 -79 callsubr
          hintmask 0000001000000000
          -141 173 107 callsubr
          hintmask 0000010000000000
          -38 callgsubr
          -29 hvcurveto
          hintmask 0000001000000000
          24 callgsubr
          hintmask 0000010000000000
          -41 callsubr
          hintmask 0000001000000000
          28 27 26 -71 callsubr
          hintmask 0000010000000000
          -38 callsubr
          hintmask 0000001000000000
          120 callgsubr
          3 hvcurveto
          endchar
        </CharString>
        <CharString name="Nu">
          -44 callgsubr
        </CharString>
        <CharString name="O">
          26 callgsubr
          hstem
          -106 callgsubr
          endchar
        </CharString>
        <CharString name="OE">
          138 callgsubr
          887 47 -47 147 -47 47 cntrmask 0000001110000000
          hintmask 0110101110000000
          136 callgsubr
          154 callgsubr
          60 hlineto
          96 0 -44 -73 -12 hvcurveto
          47 hlineto
          52 callgsubr
          hintmask 1000011110000000
          78 callgsubr
          hintmask 0100001110000000
          113 callgsubr
          hintmask 1001011110000000
          66 callsubr
        </CharString>
        <CharString name="OE.dup">
          138 callgsubr
          696 147 -3 147 -100 47 -47 147 -47 47 hintmask 0100000100000000
          136 callgsubr
          hintmask 0010001000000000
          154 callgsubr
          60 hlineto
          hintmask 0000000100000000
          96 0 -44 -73 -12 hvcurveto
          hintmask 0000000001000000
          47 hlineto
          hintmask 0001101010100000
          52 callgsubr
          hintmask 1000010000000000
          78 callgsubr
          hintmask 0100000001000000
          113 callgsubr
          hintmask 1001010000000000
          66 callsubr
        </CharString>
        <CharString name="Oacute">
          26 callgsubr
          62 166 callgsubr
          hintmask 11000000
          -106 callgsubr
          hintmask 00110000
          54 488 -99 callsubr
        </CharString>
        <CharString name="Obreve">
          26 callgsubr
          41 191 callgsubr
          hstemhm
          hintmask 11000000
          -106 callgsubr
          hintmask 00110000
          87 572 153 callsubr
          -16 -69 -96 callgsubr
          endchar
        </CharString>
        <CharString name="Ocaron">
          26 callgsubr
          52 -21 165 -20 hstemhm
          hintmask 11000000
          -106 callgsubr
          hintmask 00110000
          96 516 -65 callsubr
        </CharString>
        <CharString name="Ocircumflex">
          26 callgsubr
          52 -21 165 -20 hstemhm
          hintmask 11000000
          -106 callgsubr
          hintmask 00110000
          114 callsubr
          endchar
        </CharString>
        <CharString name="Ocircumflexacute">
          26 callgsubr
          52 -21 376 -20 hstemhm
          hintmask 11000000
          -106 callgsubr
          hintmask 00110000
          76 399 -12 callsubr
          19 -38 152 60 14 6 24 10 10 27 rlinecurve
          endchar
        </CharString>
        <CharString name="Ocircumflexdotbelow">
          750 51 callsubr
          33 42 626 40 52 -21 165 -20 hstemhm
          276 157 hintmask 01111000
          -106 callgsubr
          114 callsubr
          hintmask 10000100
          -222 -850 -104 callsubr
        </CharString>
        <CharString name="Ocircumflexgrave">
          26 callgsubr
          52 -21 165 -20 hstemhm
          hintmask 11000000
          -106 callgsubr
          hintmask 00110000
          76 399 -22 callgsubr
        </CharString>
        <CharString name="Ocircumflexhookabove">
          26 callgsubr
          52 -21 373 -20 hstemhm
          hintmask 11000000
          -106 callgsubr
          hintmask 00110000
          114 callsubr
          87 310 -103 callsubr
        </CharString>
        <CharString name="Ocircumflextilde">
          26 callgsubr
          52 -21 220 130 callgsubr
          hintmask 11000000
          -106 callgsubr
          hintmask 00101000
          76 399 rmoveto
          -151 141 -199 -141 10 -24 170 58 150 -58 rlineto
          59 304 -68 callgsubr
        </CharString>
        <CharString name="Odblgrave">
          26 callgsubr
          62 55 callgsubr
          hintmask 11000000
          -106 callgsubr
          hintmask 00110000
          34 406 -73 callgsubr
        </CharString>
        <CharString name="Odieresis">
          26 callgsubr
          31 140 hstemhm
          285 141 165 141 hintmask 11000000
          -106 callgsubr
          hintmask 00111000
          -173 445 -87 callsubr
        </CharString>
        <CharString name="Odotbelow">
          750 51 callsubr
          33 42 626 40 hstemhm
          276 157 hintmask 01100000
          -106 callgsubr
          hintmask 10010000
          -166 -475 -104 callsubr
        </CharString>
        <CharString name="Ograve">
          26 callgsubr
          62 166 callgsubr
          hintmask 11000000
          -106 callgsubr
          hintmask 00110000
          -25 423 -79 callgsubr
        </CharString>
        <CharString name="Ohookabove">
          26 callgsubr
          63 188 callgsubr
          hintmask 11000000
          -106 callgsubr
          hintmask 00110000
          18 516 -103 callsubr
        </CharString>
        <CharString name="Ohorn">
          91 callgsubr
          122 -20 hstemhm
          hintmask 01010000
          -93 callsubr
          endchar
        </CharString>
        <CharString name="Ohornacute">
          91 callgsubr
          62 -21 81 -20 115 -20 hstemhm
          hintmask 01011000
          -93 callsubr
          hintmask 00010100
          25 484 -99 callsubr
        </CharString>
        <CharString name="Ohorndotbelow">
          750 51 callsubr
          33 42 613 42 -29 40 122 -20 hstemhm
          276 157 hintmask 00101000
          749 339 rmoveto
          15 95 -8 95 -50 70 -4 5 -4 4 -3 5 49 18 38 51 9 56 rrcurveto
          42 7 -20 39 -39 hhcurveto
          -45 -28 -33 -33 -5 hvcurveto
          -34 -6 16 -33 45 hhcurveto
          5 hlineto
          -15 -19 -21 -15 -24 -8 rrcurveto
          hintmask 01010000
          36 -46 -60 17 -65 hhcurveto
          -88 -91 -32 -66 -69 hvcurveto
          -75 -70 -40 -95 -15 -95 -16 -93 10 -93 50 -69 rrcurveto
          -64 48 81 -31 87 hhcurveto
          87 91 31 64 70 hvcurveto
          74 69 39 93 16 93 rrcurveto
          -149 18 rmoveto
          -14 -82 -15 -84 -50 -73 rrcurveto
          -50 -34 -53 -37 -55 hhcurveto
          -55 -41 37 50 -17 hvcurveto
          -25 73 13 84 14 82 12 75 15 78 47 66 rrcurveto
          48 35 53 33 54 hhcurveto
          54 41 -33 -48 18 hvcurveto
          26 -66 -11 -78 -12 -75 rrcurveto
          hintmask 10000100
          -167 -479 -104 callsubr
        </CharString>
        <CharString name="Ohorngrave">
          91 callgsubr
          62 -21 81 -20 115 -20 hstemhm
          hintmask 01011000
          -93 callsubr
          hintmask 00010100
          -26 419 -79 callgsubr
        </CharString>
        <CharString name="Ohornhookabove">
          91 callgsubr
          63 -21 80 -20 133 -20 hstemhm
          hintmask 01001000
          -93 callsubr
          hintmask 00010100
          17 512 -103 callsubr
        </CharString>
        <CharString name="Ohorntilde">
          91 callgsubr
          31 130 callgsubr
          hintmask 01000000
          -93 callsubr
          hintmask 00001000
          77 455 -55 callsubr
        </CharString>
        <CharString name="Ohungarumlaut">
          26 callgsubr
          62 55 callgsubr
          hintmask 11000000
          -106 callgsubr
          hintmask 00110000
          -68 521 rmoveto
          32 6 -30 -33 callsubr
          39 -21 95 91 13 13 13 15 2 17 rlinecurve
          167 hmoveto
          32 6 -30 -33 callsubr
          39 -21 95 91 13 13 13 15 2 17 rlinecurve
          endchar
        </CharString>
        <CharString name="Omacron">
          26 callgsubr
          51 52 hstemhm
          hintmask 11000000
          -106 callgsubr
          hintmask 00100000
          81 395 -60 callsubr
        </CharString>
        <CharString name="Omega">
          -43 callsubr
        </CharString>
        <CharString name="Omicron">
          26 callgsubr
          hstem
          -106 callgsubr
          endchar
        </CharString>
        <CharString name="Oogonek">
          750 -50 40 1 40 626 40 hstem
          -32 callsubr
          endchar
        </CharString>
        <CharString name="Oogonekacute">
          750 -50 40 1 40 626 40 62 166 callgsubr
          hintmask 11100000
          -32 callsubr
          hintmask 00011000
          54 488 -99 callsubr
        </CharString>
        <CharString name="Orogate">
          750 750 339 rmoveto
          38 229 -115 120 -164 9 31 184 rcurveline
          -36 hlineto
          -31 -184 -172 -9 -151 -126 -37 -223 rlinecurve
          -38 -223 115 -119 165 -8 -30 -183 rcurveline
          36 hlineto
          30 183 174 9 148 125 37 216 rlinecurve
          -151 14 rmoveto
          -13 -79 -13 -68 -41 -72 rrcurveto
          -63 -36 -60 -40 -56 hhcurveto
          -60 -41 41 58 -16 hvcurveto
          -20 70 13 79 12 74 11 64 12 75 39 65 rrcurveto
          74 45 62 26 47 hhcurveto
          57 48 -36 -68 16 hvcurveto
          16 -63 -10 -64 -12 -73 rrcurveto
          endchar
        </CharString>
        <CharString name="Oslash">
          88 callsubr
          hstem
          113 142 381 142 vstem
          -68 callsubr
          endchar
        </CharString>
        <CharString name="Oslash.dup">
          88 callsubr
          hstem
          113 142 381 142 vstem
          -68 callsubr
          endchar
        </CharString>
        <CharString name="Oslashacute">
          88 callsubr
          34 166 callgsubr
          113 142 381 142 hintmask 1111110011000000
          -68 callsubr
          hintmask 0000001100000000
          31 501 -99 callsubr
        </CharString>
        <CharString name="Otilde">
          26 callgsubr
          31 130 callgsubr
          hintmask 11000000
          -106 callgsubr
          hintmask 00010000
          78 459 -54 callgsubr
        </CharString>
        <CharString name="P">
          -14 callgsubr
        </CharString>
        <CharString name="Phi">
          722 0 47 104 43 298 43 104 47 hstemhm
          113 147 38 131 -113 131 -125 131 -97 147 -131 131 -124 131 -113 131 47 147 hintmask 0000000000100000
          722 343 rmoveto
          14 83 -55 92 -171 15 rrcurveto
          hintmask 0001000000010000
          18 106 40 callsubr
          -38 -102 0 -43 hhcurveto
          -44 -102 0 3 -38 55 callsubr
          118 hlineto
          hintmask 0000100000100000
          -18 -107 -154 -15 -96 -82 -16 -92 rlinecurve
          hintmask 0000001000000000
          -15 -93 71 -81 147 -15 rrcurveto
          hintmask 1000010000000000
          -18 -107 rlineto
          -118 -80 callsubr
          hintmask 1000000010000000
          3 39 102 0 43 hhcurveto
          44 102 0 -3 37 145 callgsubr
          hintmask 1000010000000000
          -118 hlineto
          hintmask 0000101000001000
          18 106 178 16 84 93 13 81 rlinecurve
          -400 -149 rmoveto
          -83 24 11 64 10 61 rrcurveto
          hintmask 0010000001000000
          10 61 11 64 91 24 rrcurveto
          hintmask 0100000100000000
          203 -149 rmoveto
          -10 -61 -12 -70 -100 -20 rrcurveto
          hintmask 0000000010001000
          50 302 94 -20 -12 -70 -10 -61 rlinecurve
          endchar
        </CharString>
        <CharString name="Pi">
          783 0 47 586 148 callgsubr
          144 142 -44 142 hintmask 10001000
          53 callgsubr
          hintmask 01010100
          98 586 22 callgsubr
          -714 -31 callsubr
          hintmask 10100000
          -98 -586 rlineto
          -83 callsubr
          8 47 rlineto
          -94 hlineto
          hintmask 01010100
          98 586 190 callgsubr
          hintmask 10001000
          -98 -586 rlineto
          -83 callsubr
          endchar
        </CharString>
        <CharString name="Psi">
          778 0 47 107 47 308 38 92 47 hstemhm
          326 131 -113 131 -50 131 hintmask 01110010
          809 529 rmoveto
          18 3 -17 0 -15 hhcurveto
          -72 hlineto
          -50 -26 -24 -98 -16 hvcurveto
          -11 -67 -20 -119 -103 -40 74 440 rcurveline
          118 -37 callgsubr
          -38 -102 0 -43 hhcurveto
          -44 -102 0 3 -38 55 callsubr
          118 hlineto
          -73 -438 -70 36 6 98 12 74 rlinecurve
          79 13 8 59 -70 hhcurveto
          -72 hlineto
          -15 -17 0 -18 -3 hvcurveto
          -2 -14 11 -2 10 -3 22 -4 -8 -53 -7 -37 rrcurveto
          hintmask 01000100
          -23 -149 51 -92 146 -21 rrcurveto
          hintmask 10001000
          -18 -107 rlineto
          -118 -80 callsubr
          3 39 102 0 43 hhcurveto
          44 102 0 -3 37 145 callgsubr
          -118 hlineto
          hintmask 01000100
          18 107 188 21 62 127 21 118 rlinecurve
          7 40 8 47 25 4 7 1 14 2 2 15 rrcurveto
          endchar
        </CharString>
        <CharString name="Q">
          750 -194 153 30 40 90 36 502 40 hstemhm
          113 147 39 36 121 147 0 147 hintmask 11011001
          697 -10 rmoveto
          10 2 3 18 -18 hhcurveto
          -15 -4 -13 -8 -3 hvcurveto
          -33 -10 -48 -5 -19 hhcurveto
          -19 -27 0 59 -22 hvcurveto
          163 70 53 153 17 98 rrcurveto
          237 39 -125 121 -173 hhcurveto
          -180 -160 -127 -231 -38 hvcurveto
          -227 -38 118 -123 180 hhcurveto
          hintmask 11111110
          41 38 8 1 4 hvcurveto
          -103 -4 -1 -89 95 hhcurveto
          110 35 148 36 6 hvcurveto
          -94 350 rmoveto
          -12 -73 -21 -121 -76 -68 rrcurveto
          41 -16 -26 36 -51 hhcurveto
          -50 -44 -37 -45 -8 hvcurveto
          0 -1 -9 -4 vvcurveto
          -69 63 13 113 18 104 9 53 12 76 34 65 rrcurveto
          102 54 74 21 41 hhcurveto
          54 54 -33 -82 18 hvcurveto
          14 -62 -9 -66 -12 -74 rrcurveto
          -149 -291 rmoveto
          -12 -21 -28 -8 -25 hhcurveto
          -48 2 35 9 1 hvcurveto
          23 4 24 23 33 hhcurveto
          39 17 -25 -45 2 hvcurveto
          endchar
        </CharString>
        <CharString name="R">
          -98 callgsubr
          endchar
        </CharString>
        <CharString name="Racute">
          -98 callgsubr
          hintmask 11100000
          94 341 -99 callsubr
        </CharString>
        <CharString name="Rcaron">
          -98 callgsubr
          hintmask 11100000
          136 369 -65 callsubr
        </CharString>
        <CharString name="Rcedilla">
          -98 callgsubr
          -142 -627 -101 callgsubr
        </CharString>
        <CharString name="Rcommaaccent">
          -98 callgsubr
          hintmask 11100000
          -142 -627 -101 callgsubr
        </CharString>
        <CharString name="Rdblgrave">
          -98 callgsubr
          hintmask 11100000
          46 259 -73 callgsubr
        </CharString>
        <CharString name="Rdotaccent">
          760 0 47 278 36 278 47 34 callsubr
          66 157 -30 -78 callsubr
          hintmask 11100100
          30 317 -49 callgsubr
        </CharString>
        <CharString name="Rdotbelow">
          760 0 47 278 36 278 47 34 callsubr
          -90 157 126 -78 callsubr
          hintmask 11100100
          -126 -622 -104 callsubr
        </CharString>
        <CharString name="Rdotbelowmacron">
          760 0 47 278 36 278 47 34 callsubr
          -90 157 126 -78 callsubr
          -126 -622 rmoveto
          -71 callgsubr
          hintmask 11100100
          -98 callsubr
          hintmask 11100000
          247 870 -60 callsubr
        </CharString>
        <CharString name="Rho">
          -14 callgsubr
        </CharString>
        <CharString name="S">
          186 callsubr
          hstem
          533 203 rmoveto
          -102 callsubr
          endchar
        </CharString>
        <CharString name="S_S">
          1111 -11 47 618 43 hstem
          533 203 rmoveto
          -102 callsubr
          556 hmoveto
          -102 callsubr
          endchar
        </CharString>
        <CharString name="Sacute">
          186 callsubr
          62 166 callgsubr
          hintmask 11000000
          533 203 rmoveto
          -102 callsubr
          hintmask 00110000
          23 638 -99 callsubr
        </CharString>
        <CharString name="Scaron">
          186 callsubr
          52 -21 165 -20 hstemhm
          hintmask 11000000
          533 203 rmoveto
          -102 callsubr
          hintmask 00110000
          65 666 -65 callsubr
        </CharString>
        <CharString name="Scedilla">
          556 -11 47 -39 43 614 43 hstemhm
          119 97 hintmask 10100000
          533 203 rmoveto
          -100 callsubr
          hintmask 01010000
          33 28 26 -23 32 -13 29 -7 rlinecurve
          -13 -78 rlineto
          27 25 -12 -23 -3 hvcurveto
          -36 -6 -64 0 -52 hhcurveto
          -24 135 callsubr
          48 hlineto
          102 118 0 84 14 hvcurveto
          119 callgsubr
          4 23 116 11 74 91 19 111 rlinecurve
          endchar
        </CharString>
        <CharString name="Scircumflex">
          186 callsubr
          52 -21 165 -20 hstemhm
          hintmask 11000000
          533 203 rmoveto
          -102 callsubr
          hintmask 00110000
          45 549 -54 callsubr
        </CharString>
        <CharString name="Sdotbelow">
          556 51 callsubr
          33 47 618 43 hstemhm
          179 157 hintmask 01100000
          533 203 rmoveto
          -102 callsubr
          hintmask 10010000
          -197 -325 -104 callsubr
        </CharString>
        <CharString name="Sigma">
          722 0 66 573 47 hstem
          708 260 rmoveto
          -47 hlineto
          -150 -43 -63 -44 -153 hhcurveto
          -219 hlineto
          300 256 16 13 0 2 1 6 rlinecurve
          1 5 -2 5 -4 8 -149 278 rcurveline
          156 hlineto
          154 41 -49 -145 -5 hvcurveto
          47 hlineto
          9 241 rlineto
          -546 hlineto
          -20 -12 0 -24 -4 hvcurveto
          -1 -8 0 -3 6 -13 192 -355 rcurveline
          -289 -246 -10 -9 -4 -3 -1 -7 rlinecurve
          -18 -3 17 0 15 hhcurveto
          546 hlineto
          endchar
        </CharString>
        <CharString name="T">
          694 0 88 callgsubr
          hintmask 11101000
          -82 callsubr
          hintmask 10010000
          -134 hlineto
          hintmask 01001000
          3 callsubr
          endchar
        </CharString>
        <CharString name="T_uni0303">
          185 callsubr
          53 75 -44 75 52 callsubr
          hintmask 11001010
          -82 callsubr
          hintmask 10000100
          -134 hlineto
          hintmask 01000010
          3 callsubr
          hintmask 00010000
          -32 378 -54 callgsubr
        </CharString>
        <CharString name="T_uni0308">
          185 callsubr
          53 140 hstemhm
          142 142 -26 141 -115 142 -45 142 41 141 hintmask 11010010
          -82 callsubr
          hintmask 10000100
          -134 hlineto
          hintmask 01000010
          3 callsubr
          hintmask 00101001
          -283 364 -87 callsubr
        </CharString>
        <CharString name="Tau">
          694 0 88 callgsubr
          hintmask 11101000
          -82 callsubr
          hintmask 10010000
          -134 hlineto
          hintmask 01001000
          3 callsubr
          endchar
        </CharString>
        <CharString name="Tcaron">
          185 callsubr
          74 -21 165 -20 52 callsubr
          hintmask 11001010
          -82 callsubr
          hintmask 10000100
          -134 hlineto
          hintmask 01000010
          3 callsubr
          hintmask 00110000
          -14 435 -65 callsubr
        </CharString>
        <CharString name="Tcedilla">
          694 -200 48 71 48 33 191 callsubr
          hstemhm
          142 142 -95 96 -1 142 -92 128 -81 142 hintmask 0011100010000000
          729 434 rmoveto
          20 241 rlineto
          -579 hlineto
          -62 -241 rlineto
          47 hlineto
          110 28 21 84 128 hhcurveto
          49 hlineto
          -97 -581 rlineto
          -134 -80 callsubr
          2 36 68 1 53 hhcurveto
          hintmask 1110010100000000
          -14 -84 rlineto
          32 callsubr
          6 36 rlineto
          54 67 -1 -2 36 145 callgsubr
          hintmask 0010001000000000
          -134 hlineto
          hintmask 0001000010000000
          3 callsubr
          endchar
        </CharString>
        <CharString name="Tdotbelow">
          694 50 callgsubr
          581 47 hstemhm
          142 142 -36 157 -121 142 -45 142 hintmask 01110010
          -82 callsubr
          hintmask 01000100
          -134 hlineto
          hintmask 00100010
          3 callsubr
          hintmask 10001000
          -277 -556 -104 callsubr
        </CharString>
        <CharString name="Theta">
          778 -11 38 257 121 256 36 hstem
          328 47 0 142 0 47 cntrmask 00011100
          778 340 rmoveto
          226 37 -120 131 -190 hhcurveto
          -197 -159 -137 -220 -36 hvcurveto
          -226 -38 122 -125 190 hhcurveto
          186 167 123 228 38 hvcurveto
          -142 hmoveto
          -11 -67 -16 -86 -53 -72 rrcurveto
          -61 -46 -64 -27 -52 hhcurveto
          -52 -57 25 68 -27 hvcurveto
          -27 68 13 85 11 67 16 95 16 64 45 66 rrcurveto
          56 39 63 40 64 hhcurveto
          32 75 -8 -99 32 hvcurveto
          22 -67 -14 -90 -9 -57 rrcurveto
          -72 -90 rmoveto
          31 189 rlineto
          -47 hlineto
          -5 -34 rlineto
          -173 hlineto
          5 34 rlineto
          -47 hlineto
          -31 -189 rlineto
          47 hlineto
          5 34 rlineto
          173 hlineto
          -5 -34 rlineto
          endchar
        </CharString>
        <CharString name="Thorn">
          628 0 47 131 47 292 47 75 47 hstem
          634 371 rmoveto
          107 18 -55 86 -136 hhcurveto
          -108 hlineto
          13 75 rlineto
          94 hlineto
          7 47 -159 -3 -160 118 callgsubr
          196 callsubr
          -94 hlineto
          -8 -47 160 3 159 -3 76 callsubr
          22 131 rlineto
          99 hlineto
          177 57 119 74 12 hvcurveto
          -147 1 rmoveto
          -5 -32 -11 -35 -17 -29 rrcurveto
          -51 -32 -35 0 -24 hhcurveto
          -66 hlineto
          48 292 rlineto
          83 hlineto
          23 23 0 -46 13 hvcurveto
          10 -38 -9 -54 -1 -7 rrcurveto
          endchar
        </CharString>
        <CharString name="Tlinebelow">
          694 -148 52 96 88 callgsubr
          hintmask 01110100
          -82 callsubr
          hintmask 01001000
          -134 hlineto
          hintmask 00100100
          3 callsubr
          hintmask 10010000
          -179 -582 -60 callsubr
        </CharString>
        <CharString name="U">
          769 -11 125 callsubr
          101 60 callgsubr
          -117 53 11 53 hintmask 00100000
          131 callsubr
          hintmask 01000000
          -120 -3 rlineto
          hintmask 00100100
          7 callgsubr
          hintmask 00101000
          20 hlineto
          hintmask 11000011
          21 20 -2 -1 7 hvcurveto
          25 -3 -1 -1 -3 -22 -64 -380 rcurveline
          -151 -25 -104 -43 -82 hhcurveto
          -138 22 129 45 7 hvcurveto
          hintmask 00111000
          72 429 rlineto
          94 176 callgsubr
          37 callsubr
          hintmask 10110011
          -40 -90 0 3 -35 hvcurveto
          -70 callgsubr
          -69 -410 rlineto
          -136 -22 84 -104 174 hhcurveto
          154 100 107 131 22 hvcurveto
          64 383 rlineto
          hintmask 01000000
          3 22 1 1 24 3 rrcurveto
          hintmask 00100000
          176 callsubr
        </CharString>
        <CharString name="U_uni032F">
          769 -194 -21 125 62 17 125 callsubr
          101 60 callgsubr
          -117 53 11 53 hintmask 0000100000000000
          131 callsubr
          hintmask 0001000000000000
          -120 -3 rlineto
          hintmask 0000100100000000
          7 callgsubr
          hintmask 0000101000000000
          20 hlineto
          hintmask 0011000011000000
          21 20 -2 -1 7 hvcurveto
          25 -3 -1 -1 -3 -22 -64 -380 rcurveline
          -151 -25 -104 -43 -82 hhcurveto
          -138 22 129 45 7 hvcurveto
          hintmask 0000111000000000
          72 429 22 callgsubr
          hintmask 0001000000000000
          37 callsubr
          hintmask 0010110011000000
          -40 -90 0 3 -35 hvcurveto
          -70 callgsubr
          -69 -410 rlineto
          -136 -22 84 -104 174 hhcurveto
          154 100 107 131 22 hvcurveto
          64 383 rlineto
          hintmask 0001000000000000
          3 22 1 1 24 3 rrcurveto
          hintmask 0000100000000000
          3 23 21 0 7 hhcurveto
          hintmask 1100000000000000
          -292 -854 rmoveto
          116 16 -60 -25 callgsubr
        </CharString>
        <CharString name="Uacute">
          1 callgsubr
          73 -21 176 -20 -104 callgsubr
          hintmask 0001100000000000
          -135 202 -99 callsubr
        </CharString>
        <CharString name="Ubreve">
          1 callgsubr
          52 191 callgsubr
          -104 callgsubr
          hintmask 0001100000000000
          -102 286 153 callsubr
          -16 -69 -96 callgsubr
          endchar
        </CharString>
        <CharString name="Ucaron">
          1 callgsubr
          63 -21 165 -20 -104 callgsubr
          hintmask 0001100000000000
          -93 230 -65 callsubr
        </CharString>
        <CharString name="Ucircumflex">
          1 callgsubr
          63 -21 165 -20 -104 callgsubr
          hintmask 0001100000000000
          -113 113 -54 callsubr
        </CharString>
        <CharString name="Udblgrave">
          1 callgsubr
          73 -21 195 -20 -104 callgsubr
          hintmask 0001100000000000
          -155 120 -73 callgsubr
        </CharString>
        <CharString name="Udieresis">
          1 callgsubr
          42 140 11 callgsubr
          hintmask 0010000100000000
          7 callgsubr
          159 callsubr
          hlineto
          hintmask 1100000001100000
          21 20 -2 -1 7 hvcurveto
          25 -3 -1 -1 -3 -22 -64 -380 rcurveline
          -151 -25 -104 -43 -82 hhcurveto
          -138 22 129 45 7 hvcurveto
          hintmask 0010101000000000
          72 429 rlineto
          94 hlineto
          49 callsubr
          37 callsubr
          hintmask 1010100001100000
          -40 -90 0 3 -35 hvcurveto
          -70 callgsubr
          -69 -410 rlineto
          -136 -22 84 -104 174 hhcurveto
          154 100 107 131 22 hvcurveto
          64 383 rlineto
          hintmask 0100000000000000
          3 22 1 1 24 3 rrcurveto
          hintmask 0010000000000000
          3 23 21 0 7 hhcurveto
          hintmask 0001010010000000
          -362 38 callgsubr
        </CharString>
        <CharString name="Udieresisacute">
          1 callgsubr
          42 140 73 -21 176 -87 callgsubr
          -49 225 -99 callsubr
        </CharString>
        <CharString name="Udieresiscaron">
          1 callgsubr
          42 140 63 -21 165 -87 callgsubr
          -7 253 -65 callsubr
        </CharString>
        <CharString name="Udieresisgrave">
          1 callgsubr
          42 140 73 -21 176 -87 callgsubr
          -128 160 -79 callgsubr
        </CharString>
        <CharString name="Udotbelow">
          769 51 callsubr
          33 125 callsubr
          -68 157 12 84 callsubr
          hintmask 0001000100000000
          7 callgsubr
          hintmask 0001001000000000
          20 hlineto
          hintmask 0110000011000000
          21 20 -2 -1 7 hvcurveto
          25 -3 -1 -1 -3 -22 -64 -380 rcurveline
          -151 -25 -104 -43 -82 hhcurveto
          -138 22 129 45 7 hvcurveto
          hintmask 0001101000000000
          72 429 22 callgsubr
          hintmask 0010000000000000
          37 callsubr
          hintmask 0101100011000000
          -40 -90 0 3 -35 hvcurveto
          -70 callgsubr
          -69 -410 rlineto
          -136 -22 84 -104 174 hhcurveto
          154 100 107 131 22 hvcurveto
          64 383 rlineto
          122 callgsubr
          hintmask 1000010000000000
          -355 -761 -104 callsubr
        </CharString>
        <CharString name="Ugrave">
          1 callgsubr
          73 -21 176 -20 -104 callgsubr
          hintmask 0001100000000000
          -214 137 -79 callgsubr
        </CharString>
        <CharString name="Uhookabove">
          1 callgsubr
          74 -21 193 -20 -104 callgsubr
          hintmask 0001100000000000
          -171 230 -103 callsubr
        </CharString>
        <CharString name="Uhorn">
          -95 callgsubr
          endchar
        </CharString>
        <CharString name="Uhornacute">
          -95 callgsubr
          hintmask 1110000000000000
          -243 105 -99 callsubr
        </CharString>
        <CharString name="Uhorndotbelow">
          769 636 47 -44 44 -44 47 hstemhm
          165 142 -73 142 -90 157 -31 142 0 53 -22 142 -102 53 171 53 cntrmask 1110000000000000
          hintmask 1110000010100000
          902 736 rmoveto
          43 7 -19 40 -41 hhcurveto
          -44 -28 -33 -33 -5 hvcurveto
          -34 -6 16 -33 44 hhcurveto
          4 hlineto
          -20 -23 -31 -15 -32 -6 7 44 rcurveline
          -2 -9 -9 -1 -9 hhcurveto
          hintmask 1110000101000000
          -120 48 callsubr
          23 24 0 -3 22 hvcurveto
          11 -2 12 -2 -1 -6 -66 -397 rcurveline
          -9 -57 -24 -50 -38 -35 rrcurveto
          hintmask 1111001000000000
          -34 -38 -51 -17 -53 hhcurveto
          -44 -37 17 32 -19 hvcurveto
          -19 34 3 40 11 70 rrcurveto
          hintmask 1110100000000000
          69 410 rlineto
          94 hlineto
          7 47 -165 -3 -165 118 callgsubr
          hintmask 1111000010000000
          -69 -410 -11 -68 17 -64 43 -43 rlinecurve
          -46 45 68 -19 77 hhcurveto
          65 66 21 45 50 hvcurveto
          hintmask 1110000001100000
          51 45 31 62 11 67 61 365 rcurveline
          78 11 72 56 13 75 rrcurveto
          hintmask 1110010000000000
          -459 -858 -104 callsubr
        </CharString>
        <CharString name="Uhorngrave">
          -95 callgsubr
          hintmask 1110001000000000
          -295 40 -79 callgsubr
        </CharString>
        <CharString name="Uhornhookabove">
          -95 callgsubr
          hintmask 1110000000000000
          -252 133 -103 callsubr
        </CharString>
        <CharString name="Uhorntilde">
          -95 callgsubr
          hintmask 1110000000000000
          -192 76 156 callsubr
          -29 hvcurveto
          24 callgsubr
          -41 callsubr
          28 27 26 -71 callsubr
          -38 callsubr
          120 callgsubr
          3 hvcurveto
          endchar
        </CharString>
        <CharString name="Uhungarumlaut">
          1 callgsubr
          73 -21 195 -20 -104 callgsubr
          hintmask 0001100000000000
          -257 235 rmoveto
          32 6 -30 -33 callsubr
          39 -21 95 91 13 13 13 15 2 17 rlinecurve
          167 hmoveto
          32 6 -30 -33 callsubr
          39 -21 95 91 13 13 13 15 2 17 rlinecurve
          endchar
        </CharString>
        <CharString name="Umacron">
          1 callgsubr
          62 52 106 callsubr
          101 60 callgsubr
          -117 53 11 53 hintmask 0010000000000000
          131 callsubr
          hintmask 0100000000000000
          -120 -3 rlineto
          hintmask 0010001000000000
          7 callgsubr
          hintmask 0010010000000000
          20 hlineto
          hintmask 1100000110000000
          21 20 -2 -1 7 hvcurveto
          25 -3 -1 -1 -3 -22 -64 -380 rcurveline
          -151 -25 -104 -43 -82 hhcurveto
          -138 22 129 45 7 hvcurveto
          hintmask 0010110000000000
          72 429 rlineto
          94 hlineto
          49 callsubr
          37 callsubr
          hintmask 1010100110000000
          -40 -90 0 3 -35 hvcurveto
          -70 callgsubr
          -69 -410 rlineto
          -136 -22 84 -104 174 hhcurveto
          154 100 107 131 22 hvcurveto
          64 383 rlineto
          hintmask 0100000000000000
          3 22 1 1 24 3 rrcurveto
          hintmask 0010000000000000
          3 23 21 0 7 hhcurveto
          hintmask 0001000000000000
          -108 109 -60 callsubr
        </CharString>
        <CharString name="Uogonek">
          769 -204 66 127 125 callsubr
          101 84 callsubr
          hintmask 0001001000000000
          7 callgsubr
          hintmask 0001010000000000
          20 hlineto
          hintmask 0110000110000000
          21 20 -2 -1 7 hvcurveto
          25 -3 -1 -1 -3 -22 -64 -380 rcurveline
          -151 -25 -104 -43 -82 hhcurveto
          -138 22 129 45 7 hvcurveto
          hintmask 0001110000000000
          72 429 22 callgsubr
          hintmask 0010000000000000
          37 callsubr
          hintmask 1001100110000000
          -40 -90 0 3 -35 hvcurveto
          -70 callgsubr
          -69 -410 -21 -130 76 -100 157 -9 rlinecurve
          -35 -29 -32 -42 -5 -33 rrcurveto
          63 callsubr
          11 17 16 15 17 11 125 21 81 97 19 116 64 383 rcurveline
          122 callgsubr
          endchar
        </CharString>
        <CharString name="Upsilon">
          778 0 47 535 115 hstemhm
          148 53 125 142 -91 142 241 53 hintmask 01101000
          813 554 rmoveto
          56 10 -28 87 -93 hhcurveto
          -136 -73 -150 -61 -23 hvcurveto
          -1 hlineto
          124 -7 -51 87 -104 hhcurveto
          -93 -56 -88 -55 -10 hvcurveto
          -23 -3 13 0 14 hhcurveto
          14 9 0 20 6 hvcurveto
          21 6 18 10 53 hhcurveto
          26 46 0 -67 22 hvcurveto
          21 -63 -15 -90 -1 -11 rrcurveto
          hintmask 10010000
          -51 -304 rlineto
          -118 -80 callsubr
          3 42 102 0 46 hhcurveto
          46 102 0 -3 40 145 callgsubr
          -118 hlineto
          hintmask 01001100
          51 304 1 10 15 89 38 60 rlinecurve
          72 46 47 0 27 hhcurveto
          34 34 -3 -26 -1 hvcurveto
          -16 1 -6 22 14 13 0 23 3 vhcurveto
          endchar
        </CharString>
        <CharString name="Uring">
          1 callgsubr
          12 41 86 41 -104 callgsubr
          hintmask 0001100000000000
          -229 143 -76 callgsubr
          -36 -45 -38 -7 -8 callsubr
          endchar
        </CharString>
        <CharString name="Utilde">
          1 callgsubr
          42 75 -44 75 -104 callgsubr
          hintmask 0000100000000000
          -111 173 -31 callgsubr
        </CharString>
        <CharString name="V">
          756 187 callgsubr
          hstem
          840 22 callsubr
          -102 -3 -117 48 callsubr
          18 34 0 -10 23 hvcurveto
          -243 -445 -97 455 rlineto
          82 27 callsubr
          -86 0 -40 hhcurveto
          -39 -72 59 callsubr
          81 hlineto
          133 -622 rlineto
          -17 3 3 -8 27 hhcurveto
          28 4 8 17 10 hvcurveto
          329 599 rlineto
          17 10 3 6 80 hhcurveto
          endchar
        </CharString>
        <CharString name="W">
          150 callgsubr
          hstem
          -91 callgsubr
          endchar
        </CharString>
        <CharString name="Wacute">
          150 callgsubr
          82 callgsubr
          hintmask 11000000
          -91 callgsubr
          hintmask 00110000
          -323 202 -99 callsubr
        </CharString>
        <CharString name="Wcircumflex">
          150 callgsubr
          82 callsubr
          hintmask 11000000
          -91 callgsubr
          hintmask 00110000
          -301 113 -54 callsubr
        </CharString>
        <CharString name="Wdieresis">
          150 callgsubr
          42 140 hstemhm
          427 141 165 141 hintmask 11000000
          -91 callgsubr
          hintmask 00111000
          -550 38 callgsubr
        </CharString>
        <CharString name="Wgrave">
          150 callgsubr
          82 callgsubr
          hintmask 11000000
          -91 callgsubr
          hintmask 00110000
          -402 137 -79 callgsubr
        </CharString>
        <CharString name="X">
          -43 callgsubr
        </CharString>
        <CharString name="Xi">
          667 0 112 97 -20 80 -21 47 112 47 -20 64 -21 86 112 hstemhm
          77 47 3 47 6 47 -12 47 259 47 -12 47 -35 47 -3 47 -7 47 hintmask 0000011010000001
          699 477 rmoveto
          24 198 rlineto
          -554 hlineto
          -42 -198 rlineto
          47 hlineto
          6 32 7 28 9 14 rrcurveto
          12 8 40 0 28 hhcurveto
          310 hlineto
          9 57 0 -9 4 hvcurveto
          6 -12 -3 -32 -3 -33 rrcurveto
          7 -268 rmoveto
          hintmask 1100000100000010
          -47 hlineto
          -10 -45 -6 -28 -9 -13 rrcurveto
          -11 -9 -52 0 -18 hhcurveto
          -312 hlineto
          -26 -46 0 13 -3 hvcurveto
          -5 14 2 25 6 45 rrcurveto
          -47 hlineto
          -26 -209 rlineto
          hintmask 1000000000000100
          564 hlineto
          hintmask 0101100000101010
          -47 248 rmoveto
          35 206 rlineto
          -47 -80 callsubr
          -294 134 callgsubr
          -47 hlineto
          hintmask 0011000001010000
          -35 -206 rlineto
          47 134 callgsubr
          294 -80 callsubr
          endchar
        </CharString>
        <CharString name="Y">
          756 84 callgsubr
          hstemhm
          317 136 -98 136 hintmask 01010000
          846 22 callsubr
          -102 -3 -119 48 callsubr
          22 23 0 -10 22 hvcurveto
          -209 -283 -118 293 rlineto
          75 27 callsubr
          -90 0 -41 hhcurveto
          -39 -75 59 callsubr
          85 hlineto
          147 -365 rlineto
          hintmask 10100000
          -38 -227 9 callgsubr
          88 17 callsubr
          -95 hlineto
          hintmask 01010000
          38 227 254 344 rlineto
          14 10 6 7 85 hhcurveto
          endchar
        </CharString>
        <CharString name="Yacute">
          756 84 callgsubr
          82 callgsubr
          317 136 -98 136 -89 callsubr
          hintmask 00110000
          -190 202 -99 callsubr
        </CharString>
        <CharString name="Ycircumflex">
          756 84 callgsubr
          82 callsubr
          317 136 -98 136 -89 callsubr
          hintmask 00110000
          -168 113 -54 callsubr
        </CharString>
        <CharString name="Ydieresis">
          756 84 callgsubr
          42 140 hstemhm
          288 141 -112 136 -98 136 103 141 -89 callsubr
          hintmask 00110010
          -417 38 callgsubr
        </CharString>
        <CharString name="Ydotbelow">
          756 192 callsubr
          279 157 -119 136 -98 136 hintmask 00100100
          846 22 callsubr
          -102 -3 -119 48 callsubr
          22 23 0 -10 22 hvcurveto
          -209 -283 -118 293 rlineto
          75 27 callsubr
          -90 0 -41 hhcurveto
          -39 -75 59 callsubr
          85 hlineto
          147 -365 rlineto
          hintmask 01001000
          -38 -227 9 callgsubr
          88 17 callsubr
          -95 hlineto
          hintmask 00100100
          38 227 254 344 rlineto
          14 10 6 7 85 hhcurveto
          hintmask 10010000
          -410 -761 -104 callsubr
        </CharString>
        <CharString name="Ygrave">
          756 84 callgsubr
          82 callgsubr
          317 136 -98 136 -89 callsubr
          hintmask 00110100
          -269 137 -79 callgsubr
        </CharString>
        <CharString name="Yhookabove">
          756 84 callgsubr
          74 188 callgsubr
          317 136 -98 136 -89 callsubr
          hintmask 00110000
          -226 230 -103 callsubr
        </CharString>
        <CharString name="Ytilde">
          756 84 callgsubr
          42 130 callgsubr
          317 136 -98 136 -89 callsubr
          hintmask 00010000
          -166 173 -54 callgsubr
        </CharString>
        <CharString name="Z">
          127 callsubr
          hstem
          -81 callgsubr
          endchar
        </CharString>
        <CharString name="Zacute">
          127 callsubr
          82 callgsubr
          hintmask 11000000
          -81 callgsubr
          hintmask 00110000
          42 841 -99 callsubr
        </CharString>
        <CharString name="Zcaron">
          127 callsubr
          82 callsubr
          hintmask 11000000
          -81 callgsubr
          hintmask 00110000
          84 869 -65 callsubr
        </CharString>
        <CharString name="Zdotaccent">
          127 callsubr
          53 156 hstemhm
          363 157 hintmask 11000000
          -81 callgsubr
          hintmask 00110000
          -22 817 -49 callgsubr
        </CharString>
        <CharString name="Zdotbelow">
          611 51 callsubr
          44 51 588 47 hstemhm
          207 157 hintmask 01100000
          -81 callgsubr
          hintmask 10010000
          -178 -122 -104 callsubr
        </CharString>
        <CharString name="Zeta">
          127 callsubr
          hstem
          -81 callgsubr
          endchar
        </CharString>
        <CharString name="a">
          -20 callgsubr
          hstem
          -107 callgsubr
          endchar
        </CharString>
        <CharString name="aacute">
          -20 callgsubr
          75 callsubr
          hintmask 11100000
          -107 callgsubr
          hintmask 00011000
          142 411 -93 callgsubr
        </CharString>
        <CharString name="abreve">
          -20 callgsubr
          62 191 callgsubr
          hstemhm
          hintmask 11100000
          -107 callgsubr
          hintmask 00011000
          180 469 153 callsubr
          -16 -69 -96 callgsubr
          endchar
        </CharString>
        <CharString name="abreveacute">
          168 callgsubr
          336 -20 hstemhm
          hintmask 11100000
          -107 callgsubr
          hintmask 00011000
          180 470 153 callsubr
          -15 -70 -96 callgsubr
          -30 138 rmoveto
          38 14 -23 19 callsubr
        </CharString>
        <CharString name="abrevedotbelow">
          486 107 callgsubr
          11 callsubr
          62 191 callgsubr
          hstemhm
          144 157 hintmask 01111100
          -107 callgsubr
          180 469 153 callsubr
          -16 -69 -96 callgsubr
          hintmask 10000010
          -216 -824 -104 callsubr
        </CharString>
        <CharString name="abrevegrave">
          168 callgsubr
          125 -20 hstemhm
          hintmask 11100000
          -107 callgsubr
          hintmask 00011000
          180 470 153 callsubr
          -15 -70 -96 callgsubr
          -40 73 rmoveto
          -32 -38 -132 60 -12 6 -20 10 -1 27 rlinecurve
          38 33 35 39 18 12 -9 -13 10 vhcurveto
          endchar
        </CharString>
        <CharString name="abrevehookabove">
          168 callgsubr
          333 -20 hstemhm
          hintmask 11100000
          -107 callgsubr
          hintmask 00011000
          180 470 153 callsubr
          -15 -70 -96 callgsubr
          -35 145 -53 callsubr
        </CharString>
        <CharString name="abrevetilde">
          486 758 75 -53 62 -53 75 hstemhm
          cntrmask 11100000
          -107 callgsubr
          hintmask 11100000
          180 470 153 callsubr
          -15 -70 -96 callgsubr
          33 139 156 callsubr
          -28 hvcurveto
          33 callsubr
          -39 -25 -27 -4 -4 36 callgsubr
          28 27 27 3 15 hhcurveto
          20 21 -7 -10 29 hvcurveto
          -6 19 22 -8 21 hhcurveto
          120 callgsubr
          4 hvcurveto
          endchar
        </CharString>
        <CharString name="acaron">
          -20 callgsubr
          73 -21 207 -20 hstemhm
          hintmask 11100000
          -107 callgsubr
          hintmask 00011000
          198 457 -50 callsubr
        </CharString>
        <CharString name="acircumflex">
          -20 callgsubr
          73 -21 207 -20 hstemhm
          hintmask 11100000
          -107 callgsubr
          hintmask 00011000
          171 294 -62 callsubr
          endchar
        </CharString>
        <CharString name="acircumflexacute">
          -20 callgsubr
          73 -21 376 -35 callgsubr
          -5 303 rmoveto
          38 13 -22 35 -39 hhcurveto
          -18 -15 -9 -13 -14 hvcurveto
          -124 -116 20 -38 152 60 14 6 23 10 10 27 rlinecurve
          endchar
        </CharString>
        <CharString name="acircumflexdotbelow">
          486 107 callgsubr
          11 callsubr
          73 -21 207 -20 hstemhm
          144 157 hintmask 01111100
          -107 callgsubr
          171 294 -62 callsubr
          hintmask 10000010
          -183 -627 -104 callsubr
        </CharString>
        <CharString name="acircumflexgrave">
          -20 callgsubr
          73 -21 165 -35 callgsubr
          -14 238 121 callgsubr
          11 -9 -13 10 hvcurveto
          endchar
        </CharString>
        <CharString name="acircumflexhookabove">
          -20 callgsubr
          73 -21 373 -35 callgsubr
          87 310 -91 callsubr
          7 -2 -4 2 hvcurveto
          -4 -1 -10 -3 12 callgsubr
          -22 -22 -16 -27 -5 -29 -2 -16 rcurveline
          -8 -2 5 -6 8 hhcurveto
          8 7 6 8 2 hvcurveto
          2 17 4 22 23 15 43 18 rlinecurve
          18 8 16 16 3 20 rrcurveto
          endchar
        </CharString>
        <CharString name="acircumflextilde">
          -20 callgsubr
          73 -21 220 130 callgsubr
          hintmask 11100000
          -107 callgsubr
          hintmask 00010100
          169 296 1 callsubr
        </CharString>
        <CharString name="acute">
          500 532 66 callgsubr
          hstem
          486 644 -93 callgsubr
        </CharString>
        <CharString name="acute.cap">
          500 517 167 callgsubr
          hstem
          488 599 -99 callsubr
        </CharString>
        <CharString name="acute.dup">
          500 532 66 callgsubr
          hstem
          486 644 -93 callgsubr
        </CharString>
        <CharString name="acute.ts1">
          500 535 -21 192 175 callsubr
          508 645 rmoveto
          32 5 -26 30 -32 hhcurveto
          hintmask 11000000
          -3 -2 -1 -3 hhcurveto
          -22 -3 -16 -17 -13 -17 -29 -36 -27 -36 -30 -35 -3 -4 -6 -5 -2 -5 rrcurveto
          -2 vlineto
          -3 1 -2 2 -3 vhcurveto
          15 -18 rlineto
          -3 2 3 -3 4 hhcurveto
          8 22 16 8 14 hvcurveto
          82 48 23 13 28 16 5 30 rlinecurve
          endchar
        </CharString>
        <CharString name="adblgrave">
          -20 callgsubr
          75 callsubr
          hintmask 11100000
          -107 callgsubr
          hintmask 00011000
          127 299 -80 callgsubr
        </CharString>
        <CharString name="adieresis">
          -20 callgsubr
          86 140 hstemhm
          146 50 callsubr
          hintmask 11100000
          -107 callgsubr
          hintmask 00011100
          -50 376 -82 callgsubr
        </CharString>
        <CharString name="adotbelow">
          486 107 callgsubr
          11 callsubr
          hstemhm
          144 157 hintmask 01110000
          -107 callgsubr
          hintmask 10001000
          -36 -355 -104 callsubr
        </CharString>
        <CharString name="ae">
          -63 callgsubr
        </CharString>
        <CharString name="ae.dup">
          -63 callgsubr
        </CharString>
        <CharString name="aeacute">
          722 -6 36 184 33 -29 108 callgsubr
          75 callsubr
          45 117 178 114 -112 114 -113 117 hintmask 0000000010000000
          713 117 rmoveto
          18 3 -19 0 -5 hhcurveto
          -18 -4 -7 -12 -6 hvcurveto
          -66 -34 -56 -16 -31 hhcurveto
          -31 -38 13 45 -18 hvcurveto
          hintmask 0010000100000000
          -15 39 8 55 5 32 rrcurveto
          243 hlineto
          hintmask 1101001000000000
          25 8 1 28 4 hvcurveto
          121 20 -42 85 -119 hhcurveto
          -46 -56 -13 -37 -48 hvcurveto
          50 -44 -79 0 -23 hhcurveto
          -34 -132 -2 -90 -15 hvcurveto
          -44 -7 32 -19 27 hhcurveto
          31 35 21 42 7 hvcurveto
          6 32 -20 18 0 vvcurveto
          4 21 9 2 30 hhcurveto
          60 19 -46 -70 -12 hvcurveto
          -9 -53 -65 -3 -213 -12 -22 -130 rlinecurve
          -75 -12 75 -34 91 hhcurveto
          47 72 9 51 60 hvcurveto
          -48 44 60 -12 46 hhcurveto
          121 60 101 22 4 hvcurveto
          -73 134 rmoveto
          hintmask 1011001001000000
          -180 hlineto
          7 35 7 39 22 35 rrcurveto
          30 19 34 27 38 hhcurveto
          77 -19 -128 -38 -5 hvcurveto
          -297 -130 rmoveto
          -37 -6 -54 -54 -68 hhcurveto
          -43 -15 40 33 5 hvcurveto
          hintmask 0100000100000000
          16 97 132 12 30 2 rrcurveto
          hintmask 0000000010000000
          -3 -21 -2 -29 7 -34 rrcurveto
          hintmask 0000000001000000
          2 -5 -1 -4 0 vvcurveto
          hintmask 0000110000000000
          254 523 -93 callgsubr
        </CharString>
        <CharString name="agrave">
          -20 callgsubr
          75 callsubr
          hintmask 11100000
          -107 callgsubr
          hintmask 00011000
          62 311 -66 callsubr
        </CharString>
        <CharString name="ahookabove">
          -20 callgsubr
          80 188 callgsubr
          hintmask 11100000
          -107 callgsubr
          hintmask 00011000
          110 409 -101 callsubr
        </CharString>
        <CharString name="amacron">
          -20 callgsubr
          130 52 hstemhm
          hintmask 11100000
          -107 callgsubr
          hintmask 00010000
          184 350 -60 callsubr
        </CharString>
        <CharString name="ampersand">
          778 -11 47 349 36 -27 47 -44 47 84 47 94 36 hstemhm
          376 47 -47 128 -47 47 cntrmask 0000001110000000
          hintmask 0001001110000000
          793 397 92 callsubr
          hintmask 0010001110000000
          -2 -32 -40 -1 -27 hhcurveto
          hintmask 0001001110000000
          -11 -84 1 2 -27 80 callgsubr
          hintmask 1100111110000000
          10 67 0 -12 -2 hvcurveto
          -1 -5 -75 -97 -10 -14 -22 -30 -37 -46 -40 -40 -28 42 -63 102 -21 86 19 16 122 101 13 74 rrcurveto
          51 8 -11 80 -74 hhcurveto
          -76 -101 -62 -115 -19 hvcurveto
          -13 -80 12 -77 9 -39 -4 -3 -55 -47 -13 -11 -22 -19 -36 -31 -6 -8 -29 -32 -6 -28 -3 -16 rrcurveto
          -84 -14 70 -64 100 hhcurveto
          74 66 32 32 46 hvcurveto
          -34 39 62 -30 69 hhcurveto
          79 70 53 76 15 hvcurveto
          -47 hlineto
          -68 -16 -65 -14 -22 hhcurveto
          -52 -50 76 6 -4 hvcurveto
          63 62 52 69 57 77 5 7 18 24 7 9 rrcurveto
          hintmask 0010001110000000
          18 24 1 1 22 3 rrcurveto
          hintmask 0001001110000000
          3 22 32 0 11 hhcurveto
          -336 178 rmoveto
          hintmask 1100111110000000
          -5 -32 -22 -43 -88 -79 -8 43 -1 54 8 47 rrcurveto
          82 14 43 22 25 hhcurveto
          48 -13 -85 -9 -1 hvcurveto
          -81 -494 rmoveto
          -24 -38 -48 -21 -51 hhcurveto
          -29 -32 13 125 21 hvcurveto
          4 23 10 61 37 39 26 -82 43 -73 57 -61 rrcurveto
          endchar
        </CharString>
        <CharString name="anglearc">
          778 -61 -21 666 -20 hstemhm
          585 60 -57 60 hintmask 00100000
          726 30 rmoveto
          2 13 -6 11 -11 4 -113 44 rcurveline
          22 48 16 50 9 51 rrcurveto
          hintmask 11010000
          8 51 1 50 -6 48 127 44 rcurveline
          13 4 10 11 2 13 rrcurveto
          17 3 -11 13 -17 hhcurveto
          -4 -3 -1 -1 -4 hvcurveto
          -128 -44 -11 42 -16 39 -23 36 rlinecurve
          7 -4 -8 4 -10 hhcurveto
          -17 -15 -13 -17 -3 hvcurveto
          -1 -7 1 -7 4 -5 19 -30 15 -34 10 -35 -454 -157 rcurveline
          -13 -4 -10 -11 -2 -13 -2 -13 6 -11 11 -4 402 -157 rcurveline
          -22 -35 -26 -34 -29 -30 -5 -5 -4 -7 -1 -7 rrcurveto
          178 callsubr
          10 9 4 7 6 hvcurveto
          35 36 30 39 25 42 113 -44 rcurveline
          -1 3 3 -1 4 hhcurveto
          17 15 13 17 3 hvcurveto
          -141 221 rmoveto
          -7 -44 -14 -43 -18 -41 -331 128 rcurveline
          373 128 rlineto
          hintmask 00100000
          5 -41 -1 -43 -7 -44 rrcurveto
          endchar
        </CharString>
        <CharString name="angleleft">
          389 -229 -21 1000 175 callsubr
          296 -221 rmoveto
          2 9 -3 10 -1 9 -28 135 -20 138 -25 136 -2 10 -5 16 2 8 2 11 9 13 4 10 157 306 rcurveline
          45 87 6 13 9 13 4 13 rlinecurve
          1 3 rlineto
          17 3 -11 15 -17 hhcurveto
          hintmask 11000000
          -6 -1 -21 -3 -10 -25 -8 -17 rlinecurve
          -73 -140 -68 -143 -76 -139 -5 -11 -7 -11 -2 -11 -2 -11 4 -10 2 -10 42 -241 rcurveline
          32 -181 4 -19 1 -26 23 -2 rlinecurve
          7 7 1 4 7 hvcurveto
          7 6 6 6 3 6 1 6 rlinecurve
          endchar
        </CharString>
        <CharString name="angleright">
          389 -229 -21 1000 175 callsubr
          320 251 rmoveto
          2 11 -5 10 -1 10 -10 58 rcurveline
          -65 364 -3 18 0 25 -23 4 rlinecurve
          hintmask 11000000
          -3 -4 0 -1 -3 hvcurveto
          -15 -13 -17 -12 -2 hvcurveto
          -1 -7 1 -8 2 -7 63 -353 rcurveline
          11 -60 1 -11 5 -15 -1 -9 rlinecurve
          -2 -11 -9 -13 -5 -10 -34 -66 rcurveline
          -120 -234 -18 -36 -20 -36 -17 -36 rlinecurve
          -5 -8 -6 -12 -2 -9 rrcurveto
          -16 -2 10 -14 17 hhcurveto
          2 hlineto
          24 1 9 24 11 19 216 424 rcurveline
          5 11 8 11 2 11 rrcurveto
          endchar
        </CharString>
        <CharString name="aogonek">
          182 callgsubr
          hstem
          484 24 rmoveto
          3 20 -9 2 -11 1 -47 3 3 13 3 21 36 216 rcurveline
          95 16 -64 58 -123 hhcurveto
          -33 -132 -2 -90 -15 hvcurveto
          -44 -7 32 -19 27 hhcurveto
          31 35 21 42 7 hvcurveto
          6 32 -20 18 0 vvcurveto
          4 21 9 2 30 hhcurveto
          60 18 -48 -68 -12 hvcurveto
          -6 -36 -144 -3 -139 -48 -18 -105 rlinecurve
          -83 -14 89 -32 75 hhcurveto
          61 47 35 45 28 hvcurveto
          -2 -14 -5 -28 26 -18 -44 -24 -55 -60 -7 -44 -56 callgsubr
          -68 -4 93 45 101 hvcurveto
          42 hlineto
          20 12 0 24 4 hvcurveto
          -163 114 rmoveto
          -86 -14 -69 -22 -29 hhcurveto
          -41 -16 41 38 6 hvcurveto
          19 110 134 12 26 2 rrcurveto
          endchar
        </CharString>
        <CharString name="aogonekacute">
          182 callgsubr
          75 callsubr
          hintmask 11100000
          484 24 rmoveto
          3 20 -9 2 -11 1 -47 3 3 13 3 21 36 216 rcurveline
          95 16 -64 58 -123 hhcurveto
          -33 -132 -2 -90 -15 hvcurveto
          -44 -7 32 -19 27 hhcurveto
          31 35 21 42 7 hvcurveto
          6 32 -20 18 0 vvcurveto
          4 21 9 2 30 hhcurveto
          60 18 -48 -68 -12 hvcurveto
          -6 -36 -144 -3 -139 -48 -18 -105 rlinecurve
          -83 -14 89 -32 75 hhcurveto
          61 47 35 45 28 hvcurveto
          -2 -14 -5 -28 26 -18 -44 -24 -55 -60 -7 -44 -56 callgsubr
          -68 -4 93 45 101 hvcurveto
          42 hlineto
          20 12 0 24 4 hvcurveto
          -163 114 rmoveto
          -86 -14 -69 -22 -29 hhcurveto
          -41 -16 41 38 6 hvcurveto
          19 110 134 12 26 2 rrcurveto
          hintmask 00011000
          142 411 -93 callgsubr
        </CharString>
        <CharString name="aring">
          -20 callgsubr
          68 41 86 41 hstemhm
          209 54 hintmask 11100100
          -107 callgsubr
          hintmask 00011000
          60 372 -10 callsubr
        </CharString>
        <CharString name="aringacute">
          -20 callgsubr
          68 41 86 41 211 -20 hstemhm
          209 54 hintmask 11100010
          -107 callgsubr
          hintmask 00011100
          60 372 -76 callgsubr
          -37 -45 -38 -6 -8 callsubr
          33 221 -99 callsubr
        </CharString>
        <CharString name="asciicircum">
          556 583 -21 182 -20 hstem
          658 584 rmoveto
          -256 160 -310 -160 8 -22 291 123 252 -123 rlineto
          endchar
        </CharString>
        <CharString name="asciitilde">
          556 193 192 callgsubr
          603 290 156 callgsubr
          -31 hvcurveto
          17 -27 154 callsubr
          -21 -10 -22 77 callsubr
          28 8 10 23 173 callsubr
        </CharString>
        <CharString name="asciitilde.low">
          556 0 192 callgsubr
          571 97 156 callgsubr
          -32 hvcurveto
          17 -26 154 callsubr
          -22 -10 -21 77 callsubr
          27 8 10 24 173 callsubr
        </CharString>
        <CharString name="asterisk">
          500 327 -21 444 -20 hstemhm
          263 89 -28 89 0 89 hintmask 01001000
          511 443 rmoveto
          4 26 -14 6 -13 5 -113 48 rcurveline
          129 48 15 5 16 6 4 26 rlinecurve
          30 5 -22 19 -20 hhcurveto
          -12 -9 -6 -7 -9 hvcurveto
          -108 -85 44 134 rlineto
          3 8 2 5 0 vvcurveto
          25 4 -22 14 -20 hhcurveto
          hintmask 00010000
          -23 -25 -16 -23 -3 hvcurveto
          -1 -3 0 -4 -13 vvcurveto
          -127 vlineto
          -80 84 rlineto
          10 -9 -5 4 -12 hhcurveto
          -20 -28 -19 -30 -5 hvcurveto
          -4 -26 14 -6 13 -5 113 -48 rcurveline
          -129 -48 -15 -5 -16 -6 -4 -26 rlinecurve
          -30 -5 22 -19 20 hhcurveto
          12 9 6 7 9 hvcurveto
          108 85 -44 -134 rlineto
          hintmask 10100000
          -3 -8 -1 -5 0 vvcurveto
          -25 -5 22 -14 20 hhcurveto
          23 25 16 23 4 hvcurveto
          3 0 4 13 vvcurveto
          127 vlineto
          80 -84 rlineto
          -10 9 5 -4 12 hhcurveto
          20 28 19 30 5 hvcurveto
          endchar
        </CharString>
        <CharString name="asterisk.math">
          500 50 -21 444 -20 hstemhm
          90 89 -52 89 0 89 -76 89 -53 89 -77 89 38 89 hintmask 0000010010000000
          465 166 rmoveto
          5 32 -28 5 -21 9 -30 13 -31 12 -30 14 34 14 35 12 35 13 24 9 30 5 5 32 rrcurveto
          24 4 -17 25 -24 hhcurveto
          -20 -16 -18 -12 -16 hvcurveto
          -86 -67 rlineto
          hintmask 0000001000000000
          10 36 14 35 12 36 rrcurveto
          hintmask 0110000100000000
          4 12 6 14 2 13 rrcurveto
          25 5 -20 14 -22 hhcurveto
          -22 -25 -14 -25 -5 hvcurveto
          -2 -12 2 -14 -11 vvcurveto
          -36 2 -37 -2 -36 vhcurveto
          -20 23 -22 22 -22 22 rrcurveto
          12 -12 -10 18 -20 hhcurveto
          -24 -25 -25 -24 -4 hvcurveto
          -5 -33 29 -4 19 -9 31 -13 31 -12 30 -14 -34 -14 -35 -12 -36 -13 -22 -9 -31 -4 -5 -33 rrcurveto
          hintmask 0001000000000000
          -24 -4 17 -25 24 hhcurveto
          159 callsubr
          16 18 12 16 hvcurveto
          86 67 rlineto
          hintmask 1001010000000000
          -10 -36 -14 -37 -12 -36 -4 -11 -7 -14 -2 -12 rrcurveto
          -25 -4 21 -14 22 hhcurveto
          hintmask 0000100000000000
          22 24 14 25 4 hvcurveto
          3 13 -2 14 12 vvcurveto
          36 -2 35 2 36 vhcurveto
          20 -23 22 -22 22 -22 rrcurveto
          -12 12 10 -18 20 hhcurveto
          24 25 25 24 4 hvcurveto
          endchar
        </CharString>
        <CharString name="at">
          778 -6 36 98 36 366 36 98 36 hstemhm
          114 47 86 114 0 47 -17 114 45 114 -107 47 34 47 -21 114 hintmask 1101100000100000
          734 79 rmoveto
          14 3 -13 0 -15 hhcurveto
          -24 hlineto
          -16 -2 0 -7 -15 hvcurveto
          -42 -99 -86 -14 -71 hhcurveto
          -174 -94 121 196 33 hvcurveto
          210 35 147 107 156 hhcurveto
          66 82 -21 -70 49 hvcurveto
          59 -86 -18 -107 -8 -48 rrcurveto
          -80 -13 -19 -88 -56 hhcurveto
          -26 8 43 14 2 hvcurveto
          hintmask 0000000000010000
          39 232 rlineto
          hintmask 0010010001100000
          27 4 -1 2 -29 hhcurveto
          -34 hlineto
          63 -22 -54 21 -47 hhcurveto
          -104 -106 -72 -147 -24 hvcurveto
          hintmask 0100001000010000
          -148 -25 83 -71 103 hhcurveto
          41 38 15 25 32 hvcurveto
          -39 29 59 -1 19 hhcurveto
          86 44 81 134 22 hvcurveto
          hintmask 1111110110000000
          240 40 -133 117 -180 hhcurveto
          -189 -165 -129 -224 -37 hvcurveto
          -208 -35 102 -145 210 hhcurveto
          42 52 4 13 63 hvcurveto
          62 12 62 17 58 29 rrcurveto
          0 3 5 1 5 vhcurveto
          -177 399 rmoveto
          -4 -7 -1 -3 -2 -15 -41 -242 rcurveline
          -27 -25 -33 -20 -34 hhcurveto
          -45 -32 57 126 21 hvcurveto
          126 21 51 57 45 hhcurveto
          hintmask 0000000001000000
          29 32 -16 -36 18 hvcurveto
          endchar
        </CharString>
        <CharString name="atilde">
          -20 callgsubr
          103 130 callgsubr
          hintmask 11100000
          -107 callgsubr
          hintmask 00001000
          180 407 -68 callgsubr
        </CharString>
        <CharString name="b">
          556 -6 36 384 36 189 55 hstemhm
          133 128 -76 172 callsubr
          hintmask 01100010
          122 callsubr
          48 286 -179 -8 -60 callgsubr
          hintmask 00001000
          62 7 0 -39 -7 hvcurveto
          -100 -600 rlineto
          hintmask 10010001
          48 hlineto
          56 47 rlineto
          93 callsubr
          hintmask 10001000
          170 callgsubr
          hintmask 01000101
          96 callgsubr
        </CharString>
        <CharString name="backslash">
          575 750 -20 hstem
          473 -219 rmoveto
          1 6 0 1 -3 13 -224 919 rcurveline
          17 -4 -3 13 -21 hhcurveto
          -14 -18 -11 -20 -3 hvcurveto
          -1 -6 1 -1 3 -13 223 -919 rcurveline
          -15 4 3 -15 21 hhcurveto
          14 18 11 20 3 hvcurveto
          endchar
        </CharString>
        <CharString name="baht">
          711 0 47 245 47 0 36 264 47 hstemhm
          332 48 -48 147 -48 48 cntrmask 00001110
          hintmask 10111110
          685 186 rmoveto
          14 84 -45 74 -115 15 99 19 62 62 13 74 rrcurveto
          89 15 -57 83 -145 hhcurveto
          -40 179 callsubr
          13 3 -10 11 -13 hhcurveto
          -14 -11 -11 -13 -3 hvcurveto
          -8 -48 rlineto
          -290 -31 callsubr
          -44 callsubr
          290 135 callsubr
          -13 -2 8 -11 14 hhcurveto
          177 callsubr
          8 48 rlineto
          66 hlineto
          147 84 89 97 16 hvcurveto
          -114 328 rmoveto
          -74 -13 -38 -65 -81 hhcurveto
          -4 hlineto
          44 264 rlineto
          27 hlineto
          18 68 0 -125 -21 hvcurveto
          -184 -139 rmoveto
          -65 hlineto
          44 264 rlineto
          65 hlineto
          107 -451 rmoveto
          -7 -43 -14 -31 -17 -22 rrcurveto
          -45 -34 -40 0 -17 hhcurveto
          -29 hlineto
          49 292 rlineto
          39 hlineto
          hintmask 11001110
          20 32 0 -47 15 hvcurveto
          14 -40 -9 -55 -2 -9 rrcurveto
          -206 -141 rmoveto
          -65 hlineto
          49 292 rlineto
          65 hlineto
          endchar
        </CharString>
        <CharString name="bar">
          319 750 -20 hstem
          95 61 91 61 vstem
          56 callsubr
          endchar
        </CharString>
        <CharString name="bigcircle">
          686 0 60 566 60 hstem
          57 60 566 60 vstem
          -77 callgsubr
          endchar
        </CharString>
        <CharString name="blanksymbol">
          556 -6 36 384 36 189 36 -36 55 hstemhm
          133 128 -88 114 -114 128 -116 172 callsubr
          hintmask 0100000001000000
          122 callsubr
          hintmask 0010010000000000
          26 155 87 71 5 4 3 6 2 7 rlinecurve
          13 2 -8 11 -14 hhcurveto
          -6 -7 -2 -4 -4 hvcurveto
          -49 -40 rlineto
          hintmask 0001000100000000
          11 65 -179 -8 -7 -88 callgsubr
          hintmask 0000001000000000
          -12 -72 -71 -58 -5 -4 -4 -6 -1 -7 rlinecurve
          -13 -3 10 -11 13 hhcurveto
          6 6 2 4 5 hvcurveto
          33 27 -77 -462 rlineto
          hintmask 0000100000000000
          48 hlineto
          56 47 rlineto
          hintmask 1000001000100000
          93 callsubr
          hintmask 1000000100000000
          170 callgsubr
          hintmask 0100000010100000
          96 callgsubr
        </CharString>
        <CharString name="braceleft">
          169 callgsubr
          254 111 cntrmask 11100000
          457 -232 rmoveto
          2 13 -4 4 -12 1 -83 5 -31 35 -6 36 -1 10 1 8 3 17 39 237 rcurveline
          6 42 -23 51 -82 23 124 32 12 69 7 45 35 210 rcurveline
          4 22 5 29 43 29 13 7 32 18 52 3 14 1 8 0 3 17 rrcurveto
          18 3 -9 0 -22 hhcurveto
          -142 -98 -50 -77 -14 hvcurveto
          -34 -206 -11 -62 -3 -21 -38 -29 rlinecurve
          -27 -21 -37 -14 -41 -2 -14 -1 -8 0 -3 -17 -2 -13 4 -4 12 -1 89 -5 28 -45 3 -36 1 -8 0 -2 -6 -37 -36 -210 rcurveline
          -128 -21 164 -11 67 hhcurveto
          22 9 0 18 3 hvcurveto
          endchar
        </CharString>
        <CharString name="braceright">
          169 callgsubr
          cntrmask 11100000
          538 250 rmoveto
          2 13 -4 4 -12 1 -64 3 -47 26 -8 55 -2 8 0 2 7 39 35 210 rcurveline
          123 20 -149 16 -82 hhcurveto
          -21 -10 0 -18 -3 hvcurveto
          -2 -13 4 -4 12 -1 80 -4 36 -33 5 -39 2 -10 -2 -8 -2 -17 -40 -237 rcurveline
          -6 -42 23 -50 83 -24 -125 -32 -11 -68 -8 -46 -35 -210 rcurveline
          -4 -23 -4 -26 -42 -29 -11 -7 -34 -20 -55 -3 -14 -1 -8 0 -3 -17 rrcurveto
          -18 -3 10 0 21 hhcurveto
          150 92 54 73 13 hvcurveto
          35 206 11 65 3 17 39 31 rlinecurve
          13 11 36 22 54 3 14 1 8 0 3 17 rrcurveto
          endchar
        </CharString>
        <CharString name="bracketleft">
          280 -250 61 878 61 hstem
          215 -250 rmoveto
          10 61 rlineto
          -89 hlineto
          147 878 rlineto
          89 hlineto
          10 61 rlineto
          -150 hlineto
          -167 -1000 rlineto
          endchar
        </CharString>
        <CharString name="bracketright">
          280 -250 61 878 61 hstem
          130 -250 rmoveto
          167 1000 rlineto
          -150 hlineto
          -10 -61 rlineto
          89 hlineto
          -147 -878 rlineto
          -89 hlineto
          -10 -61 rlineto
          endchar
        </CharString>
        <CharString name="breve">
          500 515 165 callgsubr
          524 702 153 callsubr
          -16 -69 -96 callgsubr
          endchar
        </CharString>
        <CharString name="breve.cap">
          500 496 62 125 64 callgsubr
          endchar
        </CharString>
        <CharString name="breve.ts1">
          611 508 165 callgsubr
          209 36 352 36 vstem
          633 695 rmoveto
          -36 hlineto
          -86 -16 -102 -39 -79 hhcurveto
          -77 -91 38 87 13 hvcurveto
          -36 hlineto
          -118 -20 99 -69 101 hhcurveto
          100 124 65 122 20 hvcurveto
          endchar
        </CharString>
        <CharString name="brokenbar">
          319 750 -20 hstemhm
          95 61 0 61 -31 61 0 61 hintmask 10001000
          247 341 rmoveto
          61 365 73 callgsubr
          hintmask 00010000
          -61 -365 rlineto
          -14 -2 13 -10 16 hhcurveto
          15 17 10 14 2 hvcurveto
          -91 -547 rmoveto
          hintmask 00100000
          61 365 rlineto
          14 2 -13 10 -15 hhcurveto
          -16 -17 -10 -14 -2 hvcurveto
          hintmask 01000000
          -61 -365 73 callsubr
          endchar
        </CharString>
        <CharString name="bullet">
          778 61 328 hstem
          263 328 81 callgsubr
          endchar
        </CharString>
        <CharString name="c">
          105 callsubr
          hstem
          199 128 12 125 vstem
          -86 callsubr
          -148 -25 84 -80 118 hhcurveto
          136 50 112 11 2 hvcurveto
          endchar
        </CharString>
        <CharString name="cacute">
          105 callsubr
          75 callsubr
          199 128 12 125 hintmask 11001100
          -86 callsubr
          -148 -25 84 -80 118 hhcurveto
          136 50 112 11 2 hvcurveto
          hintmask 00110000
          45 527 -93 callgsubr
        </CharString>
        <CharString name="caron">
          500 128 callgsubr
          542 690 -50 callsubr
        </CharString>
        <CharString name="caron.cap">
          152 callsubr
          165 -20 hstem
          530 627 -65 callsubr
        </CharString>
</ttFont>
